<?xml version="1.0" encoding="UTF-8" standalone="no"?>
<!-- Created with Inkscape (http://www.inkscape.org/) -->
<svg
   xmlns:ns0="http://www.iki.fi/pav/software/textext/"
   xmlns:dc="http://purl.org/dc/elements/1.1/"
   xmlns:cc="http://creativecommons.org/ns#"
   xmlns:rdf="http://www.w3.org/1999/02/22-rdf-syntax-ns#"
   xmlns:svg="http://www.w3.org/2000/svg"
   xmlns="http://www.w3.org/2000/svg"
   xmlns:sodipodi="http://sodipodi.sourceforge.net/DTD/sodipodi-0.dtd"
   xmlns:inkscape="http://www.inkscape.org/namespaces/inkscape"
   width="560.77917"
   height="213.11357"
   id="svg2"
   sodipodi:version="0.32"
   inkscape:version="0.46"
   sodipodi:docname="adapting.svg"
   inkscape:output_extension="org.inkscape.output.svg.inkscape"
   version="1.0">
  <sodipodi:namedview
     id="base"
     pagecolor="#ffffff"
     bordercolor="#666666"
     borderopacity="1.0"
     gridtolerance="10000"
     guidetolerance="10"
     objecttolerance="10"
     inkscape:pageopacity="0.0"
     inkscape:pageshadow="2"
     inkscape:zoom="1.9294582"
     inkscape:cx="280.38958"
     inkscape:cy="106.55677"
     inkscape:document-units="px"
     inkscape:current-layer="layer1"
     showgrid="true"
     inkscape:window-width="1156"
     inkscape:window-height="670"
     inkscape:window-x="23"
     inkscape:window-y="149"
     showguides="true"
     inkscape:guide-bbox="true"
     inkscape:snap-global="false">
    <inkscape:grid
       type="xygrid"
       id="grid2444" />
  </sodipodi:namedview>
  <defs
     id="defs4">
    <marker
       inkscape:stockid="Arrow1Lend"
       orient="auto"
       refY="0"
       refX="0"
       id="Arrow1Lend"
       style="overflow:visible">
      <path
         id="path4067"
         d="M 0,0 L 5,-5 L -12.5,0 L 5,5 L 0,0 z"
         style="fill-rule:evenodd;stroke:#000000;stroke-width:1pt;marker-start:none"
         transform="matrix(-0.8,0,0,-0.8,-10,0)" />
    </marker>
    <inkscape:perspective
       id="perspective10"
       inkscape:persp3d-origin="372.04724 : 350.78739 : 1"
       inkscape:vp_z="744.09448 : 526.18109 : 1"
       inkscape:vp_y="0 : 1000 : 0"
       inkscape:vp_x="0 : 526.18109 : 1"
       sodipodi:type="inkscape:persp3d" />
  </defs>
  <metadata
     id="metadata7">
    <rdf:RDF>
      <cc:Work
         rdf:about="">
        <dc:format>image/svg+xml</dc:format>
        <dc:type
           rdf:resource="http://purl.org/dc/dcmitype/StillImage" />
      </cc:Work>
    </rdf:RDF>
  </metadata>
  <g
     id="layer1"
     inkscape:groupmode="layer"
     inkscape:label="Layer 1"
     transform="translate(-46.260727,-104.75305)">
    <path
       style="fill:#d4d4d4;fill-rule:evenodd;stroke:#000000;stroke-width:1px;stroke-linecap:butt;stroke-linejoin:miter;stroke-opacity:1;fill-opacity:1"
       d="M 140,70.52217 L 418.25212,160.24899 L 418.25212,71.623077 L 139.93565,70.586517"
       id="path2446"
       transform="translate(46.260727,104.75305)"
       sodipodi:nodetypes="cccc" />
    <rect
       y="173.54884"
       x="185.47244"
       height="94.769524"
       width="281.86523"
       id="rect2383"
       style="opacity:1;fill:none;fill-opacity:1;fill-rule:evenodd;stroke:#747474;stroke-width:4.4551158;stroke-miterlimit:4;stroke-dasharray:none;stroke-opacity:1" />
    <rect
       y="182.98123"
       x="47.260727"
       height="77.012993"
       width="134.15584"
       id="rect3155"
       style="opacity:1;fill:none;fill-opacity:1;fill-rule:evenodd;stroke:#000000;stroke-width:2;stroke-miterlimit:4;stroke-dasharray:none;stroke-opacity:1" />
    <rect
       y="182.42711"
       x="471.88409"
       height="77.012993"
       width="134.15584"
       id="rect3159"
       style="opacity:1;fill:none;fill-opacity:1;fill-rule:evenodd;stroke:#000000;stroke-width:2;stroke-miterlimit:4;stroke-dasharray:none;stroke-opacity:1" />
    <g
       ns0:preamble="/home/mlenz/.inkscape/textext-preamble.tex"
       ns0:text="\\begin{align*}\n   a C_{++}|\\chi_N^+&gt;\\\\\n   a C_{+-}|\\chi_N^-&gt;\\\\\n   b C_{--}|\\chi_N^-&gt;\\\\\n   b C_{-+}|\\chi_N^+&gt;\\\\\n\\end{align*}\n"
       word-spacing="normal"
       letter-spacing="normal"
       font-size-adjust="none"
       font-stretch="normal"
       font-weight="normal"
       font-variant="normal"
       font-style="normal"
       fill-rule="even-odd"
       stroke-miterlimit="10.433"
       xml:space="preserve"
       transform="matrix(1.320095,0,0,-1.320095,-97.249326,1116.476)"
       id="g3295"
       style="font-style:normal;font-variant:normal;font-weight:normal;font-stretch:normal;letter-spacing:normal;word-spacing:normal;text-anchor:start;fill:none;fill-opacity:1;stroke:#000000;stroke-linecap:butt;stroke-linejoin:miter;stroke-miterlimit:10.43299961;stroke-dasharray:none;stroke-dashoffset:0;stroke-opacity:1">




































</g>    <g
       style="font-style:normal;font-variant:normal;font-weight:normal;font-stretch:normal;letter-spacing:normal;word-spacing:normal;text-anchor:start;fill:none;fill-opacity:1;stroke:#000000;stroke-linecap:butt;stroke-linejoin:miter;stroke-miterlimit:10.43299961;stroke-dasharray:none;stroke-dashoffset:0;stroke-opacity:1"
       ns0:preamble="/home/mlenz/.inkscape/textext-preamble.tex"
       ns0:text="\\begin{align*}\n\\mathbf{\\Psi_U^\\uparrow}\n\\end{align*}"
       word-spacing="normal"
       letter-spacing="normal"
       font-size-adjust="none"
       font-stretch="normal"
       font-weight="normal"
       font-variant="normal"
       font-style="normal"
       fill-rule="even-odd"
       stroke-miterlimit="10.433"
       xml:space="preserve"
       transform="matrix(1.6085256,0,0,-1.6085256,-482.98807,1366.2672)"
       id="content">
<path
   style="fill:#000000;stroke-width:0"
   id="path2722"
   d="M 392.2,713.49 L 393.55,713.49 L 393.55,713.96 C 393.11,713.93 392.04,713.93 391.55,713.93 C 391.07,713.93 389.99,713.93 389.55,713.96 L 389.55,713.49 L 390.9,713.49 L 390.9,709.07 C 389.75,709.4 389.71,710.64 389.71,711.27 C 389.7,712.15 389.42,712.57 388.82,712.57 L 388.11,712.57 C 387.96,712.57 387.79,712.57 387.79,712.39 C 387.79,712.24 387.91,712.22 388.02,712.21 C 388.39,712.14 388.4,711.39 388.4,711.34 C 388.4,710.99 388.42,710.1 389,709.46 C 389.5,708.93 390.19,708.72 390.9,708.65 L 390.9,707.59 L 389.55,707.59 L 389.55,707.12 C 389.99,707.15 391.05,707.15 391.54,707.15 C 392.03,707.15 393.11,707.15 393.55,707.12 L 393.55,707.59 L 392.2,707.59 L 392.2,708.65 C 393.13,708.73 393.71,709.03 394.06,709.35 C 394.75,710 394.79,710.95 394.79,711.08 C 394.79,711.53 394.8,712.14 395.21,712.21 C 395.28,712.22 395.41,712.24 395.41,712.39 C 395.41,712.57 395.24,712.57 395.09,712.57 L 394.37,712.57 C 394.03,712.57 393.5,712.53 393.49,711.16 C 393.48,709.95 393.05,709.28 392.2,709.05 L 392.2,713.49 z" />
<path
   style="fill:#000000;stroke-width:0"
   id="path2724"
   d="M 398.27,716.12 L 398.31,716.07 L 398.35,716.03 L 398.4,715.98 L 398.44,715.94 L 398.48,715.9 L 398.53,715.86 L 398.57,715.82 L 398.62,715.78 L 398.66,715.75 L 398.71,715.72 L 398.75,715.68 L 398.8,715.65 L 398.84,715.63 L 398.88,715.6 L 398.93,715.57 L 398.97,715.55 L 399.01,715.53 L 399.05,715.51 L 399.08,715.49 L 399.12,715.47 L 399.15,715.46 L 399.19,715.44 L 399.22,715.43 L 399.25,715.42 L 399.27,715.41 L 399.3,715.4 L 399.32,715.39 L 399.34,715.38 L 399.36,715.38 L 399.37,715.38 L 399.38,715.37 L 399.39,715.37 C 399.46,715.37 399.48,715.44 399.48,715.49 C 399.48,715.59 399.46,715.6 399.34,715.65 C 398.79,715.87 398.45,716.22 398.2,716.68 C 398.18,716.71 398.16,716.76 398.1,716.76 C 398.07,716.76 398.05,716.74 398.03,716.73 C 398.03,716.72 398.03,716.71 397.95,716.59 C 397.78,716.27 397.45,715.88 396.84,715.64 C 396.74,715.6 396.72,715.59 396.72,715.49 C 396.72,715.44 396.74,715.37 396.81,715.37 C 396.88,715.37 397.5,715.6 397.93,716.12 L 397.93,710.82 C 397.93,710.72 397.93,710.56 398.1,710.56 C 398.27,710.56 398.27,710.72 398.27,710.82 L 398.27,716.12 z" />
<path
   style="fill:#000000;stroke-width:0"
   id="path2726"
   d="M 401.78,708.39 L 401.78,708.4 L 401.78,708.4 L 401.78,708.41 L 401.78,708.41 L 401.78,708.42 L 401.78,708.42 L 401.78,708.43 L 401.78,708.43 L 401.78,708.44 L 401.78,708.44 L 401.78,708.44 L 401.78,708.45 L 401.78,708.45 L 401.78,708.45 L 401.78,708.46 L 401.78,708.46 L 401.78,708.46 L 401.78,708.47 L 401.78,708.47 L 401.78,708.47 L 401.78,708.47 L 401.78,708.48 L 401.78,708.48 L 401.78,708.49 L 401.78,708.49 L 401.78,708.49 L 401.78,708.5 L 401.78,708.5 L 401.79,708.5 L 401.79,708.51 L 401.79,708.51 L 401.79,708.51 L 401.79,708.51 L 401.79,708.51 L 401.79,708.52 L 401.79,708.52 L 401.79,708.52 L 401.79,708.52 L 401.8,708.52 L 401.8,708.53 C 401.86,708.57 402.21,708.57 402.3,708.57 L 402.52,708.57 L 402.52,708.96 C 402.43,708.95 401.8,708.93 401.53,708.93 C 401.26,708.93 400.61,708.96 400.54,708.96 L 400.54,708.57 L 400.77,708.57 C 400.87,708.57 401.01,708.56 401.12,708.55 C 401.28,708.54 401.28,708.53 401.28,708.39 L 401.28,705.81 C 401.28,704.78 400.44,704.48 399.64,704.48 C 398.34,704.48 398.26,705.28 398.26,705.77 L 398.26,708.57 L 399,708.57 L 399,708.96 C 398.84,708.95 397.85,708.93 397.73,708.93 C 397.58,708.93 396.61,708.95 396.46,708.96 L 396.46,708.57 L 397.2,708.57 L 397.2,705.79 C 397.2,704.91 397.95,704.09 399.62,704.09 C 401.18,704.09 401.78,704.97 401.78,705.78 L 401.78,708.39 z" />
</g>    <g
       id="g2927"
       transform="matrix(1.6496158,0,0,-1.6496158,-434.06243,1380.7179)"
       xml:space="preserve"
       stroke-miterlimit="10.433"
       fill-rule="even-odd"
       font-style="normal"
       font-variant="normal"
       font-weight="normal"
       font-stretch="normal"
       font-size-adjust="none"
       letter-spacing="normal"
       word-spacing="normal"
       ns0:text="\\begin{align*}\n  &amp;a \\mathbf{\\Psi^+_U}\\\\ \n+&amp; b  \\mathbf{\\Psi^-_U}\n\\end{align*}"
       ns0:preamble="/home/mlenz/.inkscape/textext-preamble.tex"
       style="font-style:normal;font-variant:normal;font-weight:normal;font-stretch:normal;letter-spacing:normal;word-spacing:normal;text-anchor:start;fill:none;fill-opacity:1;stroke:#000000;stroke-linecap:butt;stroke-linejoin:miter;stroke-miterlimit:10.43299961;stroke-dasharray:none;stroke-dashoffset:0;stroke-opacity:1">
<path
   style="fill:#000000;stroke-width:0"
   d="M 392.1,710.89 L 392.09,710.92 L 392.07,710.96 L 392.05,710.99 L 392.03,711.02 L 392.01,711.05 L 391.99,711.08 L 391.97,711.11 L 391.95,711.14 L 391.93,711.17 L 391.9,711.2 L 391.88,711.23 L 391.85,711.25 L 391.83,711.28 L 391.8,711.3 L 391.77,711.32 L 391.75,711.35 L 391.72,711.37 L 391.69,711.39 L 391.66,711.4 L 391.63,711.42 L 391.59,711.44 L 391.56,711.45 L 391.53,711.47 L 391.49,711.48 L 391.46,711.49 L 391.42,711.5 L 391.39,711.51 L 391.35,711.51 L 391.31,711.52 L 391.27,711.52 L 391.23,711.53 L 391.19,711.53 L 391.2,711.31 C 391.85,711.31 391.98,710.49 391.98,710.43 C 391.98,710.37 391.96,710.31 391.95,710.26 L 391.46,708.31 C 391.41,708.13 391.41,708.11 391.26,707.94 C 390.82,707.39 390.41,707.23 390.13,707.23 C 389.63,707.23 389.49,707.78 389.49,708.17 C 389.49,708.67 389.81,709.89 390.04,710.35 C 390.35,710.94 390.8,711.31 391.2,711.31 L 391.19,711.53 C 390.02,711.53 388.79,710.06 388.79,708.61 C 388.79,707.67 389.33,707.01 390.11,707.01 C 390.31,707.01 390.81,707.05 391.41,707.76 C 391.49,707.34 391.83,707.01 392.31,707.01 C 392.66,707.01 392.89,707.24 393.05,707.56 C 393.22,707.92 393.35,708.53 393.35,708.55 C 393.35,708.65 393.26,708.65 393.23,708.65 C 393.13,708.65 393.12,708.61 393.09,708.47 C 392.92,707.82 392.74,707.23 392.33,707.23 C 392.06,707.23 392.03,707.49 392.03,707.69 C 392.03,707.91 392.05,707.99 392.16,708.43 C 392.27,708.85 392.29,708.95 392.38,709.32 C 392.55,709.96 392.59,710.15 392.74,710.72 C 392.81,711 392.81,711.02 392.81,711.06 C 392.81,711.23 392.69,711.33 392.52,711.33 C 392.28,711.33 392.13,711.11 392.1,710.89 z"
   id="path2929" />
<path
   style="fill:#000000;stroke-width:0"
   d="M 398.7,713.49 L 400.05,713.49 L 400.05,713.96 C 399.61,713.93 398.54,713.93 398.06,713.93 C 397.57,713.93 396.49,713.93 396.05,713.96 L 396.05,713.49 L 397.4,713.49 L 397.4,709.07 C 396.25,709.4 396.21,710.64 396.21,711.27 C 396.2,712.15 395.92,712.57 395.33,712.57 L 394.61,712.57 C 394.46,712.57 394.29,712.57 394.29,712.39 C 394.29,712.24 394.41,712.22 394.52,712.21 C 394.9,712.14 394.91,711.39 394.91,711.34 C 394.91,710.99 394.92,710.1 395.51,709.46 C 396,708.93 396.69,708.72 397.4,708.65 L 397.4,707.59 L 396.05,707.59 L 396.05,707.12 C 396.49,707.15 397.56,707.15 398.05,707.15 C 398.53,707.15 399.61,707.15 400.05,707.12 L 400.05,707.59 L 398.7,707.59 L 398.7,708.65 C 399.63,708.73 400.22,709.03 400.57,709.35 C 401.25,710 401.29,710.95 401.29,711.08 C 401.29,711.53 401.3,712.14 401.71,712.21 C 401.78,712.22 401.91,712.24 401.91,712.39 C 401.91,712.57 401.74,712.57 401.59,712.57 L 400.88,712.57 C 400.54,712.57 400,712.53 399.99,711.16 C 399.98,709.95 399.55,709.28 398.7,709.05 L 398.7,713.49 z"
   id="path2931" />
<path
   style="fill:#000000;stroke-width:0"
   d="M 405.8,712.97 L 407.93,712.97 C 408.02,712.97 408.19,712.97 408.19,713.13 C 408.19,713.31 408.03,713.31 407.93,713.31 L 405.8,713.31 L 405.8,715.45 C 405.8,715.54 405.8,715.71 405.63,715.71 C 405.46,715.71 405.46,715.55 405.46,715.45 L 405.46,713.31 L 403.32,713.31 C 403.23,713.31 403.06,713.31 403.06,713.14 C 403.06,712.97 403.22,712.97 403.32,712.97 L 405.46,712.97 L 405.46,710.83 C 405.46,710.73 405.46,710.57 405.62,710.57 C 405.8,710.57 405.8,710.73 405.8,710.83 L 405.8,712.97 z"
   id="path2933" />
<path
   style="fill:#000000;stroke-width:0"
   d="M 408.29,708.39 L 408.29,708.4 L 408.29,708.4 L 408.29,708.41 L 408.29,708.41 L 408.29,708.42 L 408.29,708.42 L 408.29,708.43 L 408.29,708.43 L 408.29,708.44 L 408.29,708.44 L 408.29,708.44 L 408.29,708.45 L 408.29,708.45 L 408.29,708.45 L 408.29,708.46 L 408.29,708.46 L 408.29,708.46 L 408.29,708.47 L 408.29,708.47 L 408.29,708.47 L 408.29,708.47 L 408.29,708.48 L 408.29,708.48 L 408.29,708.49 L 408.29,708.49 L 408.29,708.49 L 408.29,708.5 L 408.29,708.5 L 408.3,708.5 L 408.3,708.51 L 408.3,708.51 L 408.3,708.51 L 408.3,708.51 L 408.3,708.51 L 408.3,708.52 L 408.3,708.52 L 408.3,708.52 L 408.3,708.52 L 408.31,708.52 L 408.31,708.53 C 408.37,708.57 408.72,708.57 408.8,708.57 L 409.04,708.57 L 409.04,708.96 C 408.94,708.95 408.31,708.93 408.04,708.93 C 407.77,708.93 407.12,708.96 407.05,708.96 L 407.05,708.57 L 407.28,708.57 C 407.38,708.57 407.52,708.56 407.63,708.55 C 407.79,708.54 407.79,708.53 407.79,708.39 L 407.79,705.81 C 407.79,704.78 406.95,704.48 406.15,704.48 C 404.85,704.48 404.77,705.28 404.77,705.77 L 404.77,708.57 L 405.51,708.57 L 405.51,708.96 C 405.35,708.95 404.36,708.93 404.24,708.93 C 404.09,708.93 403.12,708.95 402.97,708.96 L 402.97,708.57 L 403.71,708.57 L 403.71,705.79 C 403.71,704.91 404.46,704.09 406.13,704.09 C 407.69,704.09 408.29,704.97 408.29,705.78 L 408.29,708.39 z"
   id="path2935" />
<path
   style="fill:#000000;stroke-width:0"
   d="M 384.71,693.27 L 387.49,693.27 C 387.63,693.27 387.82,693.27 387.82,693.47 C 387.82,693.66 387.63,693.66 387.49,693.66 L 384.71,693.66 L 384.71,696.45 C 384.71,696.59 384.71,696.78 384.52,696.78 C 384.32,696.78 384.32,696.59 384.32,696.45 L 384.32,693.66 L 381.53,693.66 C 381.39,693.66 381.2,693.66 381.2,693.47 C 381.2,693.27 381.39,693.27 381.53,693.27 L 384.32,693.27 L 384.32,690.48 C 384.32,690.34 384.32,690.15 384.52,690.15 C 384.71,690.15 384.71,690.34 384.71,690.48 L 384.71,693.27 z"
   id="path2937" />
<path
   style="fill:#000000;stroke-width:0"
   d="M 390.77,697.78 L 390.77,697.78 L 390.77,697.78 L 390.77,697.78 L 390.77,697.78 L 390.77,697.79 L 390.77,697.79 L 390.77,697.79 L 390.77,697.8 L 390.77,697.8 L 390.77,697.8 L 390.77,697.81 L 390.76,697.81 L 390.76,697.82 L 390.76,697.82 L 390.76,697.83 L 390.76,697.83 L 390.75,697.84 L 390.75,697.84 L 390.75,697.85 L 390.74,697.85 L 390.74,697.86 L 390.73,697.86 L 390.73,697.86 L 390.73,697.86 L 390.73,697.87 L 390.72,697.87 L 390.72,697.87 L 390.72,697.87 L 390.71,697.87 L 390.71,697.87 L 390.71,697.88 L 390.7,697.88 L 390.7,697.88 L 390.7,697.88 L 390.69,697.88 L 390.69,697.88 L 390.68,697.88 L 390.68,697.89 L 390.67,697.89 L 390.67,697.89 L 390.66,697.89 L 390.66,697.89 L 390.65,697.89 L 390.65,697.89 L 390.64,697.89 C 390.41,697.89 389.68,697.81 389.42,697.79 C 389.34,697.78 389.23,697.77 389.23,697.59 C 389.23,697.47 389.32,697.47 389.47,697.47 C 389.95,697.47 389.97,697.4 389.97,697.3 C 389.97,697.23 389.88,696.89 389.83,696.68 L 389.02,693.44 C 388.9,692.94 388.86,692.78 388.86,692.43 C 388.86,691.48 389.38,690.86 390.12,690.86 C 391.3,690.86 392.52,692.35 392.52,693.78 C 392.52,694.69 391.99,695.38 391.2,695.38 L 391.18,695.16 C 391.54,695.16 391.8,694.86 391.8,694.22 C 391.8,693.64 391.48,692.49 391.3,692.11 C 390.97,691.44 390.51,691.09 390.12,691.09 C 389.78,691.09 389.45,691.35 389.45,692.09 C 389.45,692.28 389.45,692.47 389.61,693.1 L 389.83,694.01 C 389.89,694.23 389.89,694.25 389.98,694.36 C 390.47,695.01 390.92,695.16 391.18,695.16 L 391.2,695.38 C 390.74,695.38 390.33,695.09 390.03,694.78 L 390.77,697.78 z"
   id="path2939" />
<path
   style="fill:#000000;stroke-width:0"
   d="M 397.71,697.34 L 399.06,697.34 L 399.06,697.81 C 398.62,697.78 397.55,697.78 397.07,697.78 C 396.58,697.78 395.5,697.78 395.06,697.81 L 395.06,697.34 L 396.41,697.34 L 396.41,692.92 C 395.26,693.26 395.22,694.49 395.22,695.12 C 395.21,696.01 394.93,696.42 394.34,696.42 L 393.62,696.42 C 393.47,696.42 393.3,696.42 393.3,696.24 C 393.3,696.1 393.42,696.08 393.53,696.07 C 393.91,696 393.92,695.24 393.92,695.19 C 393.92,694.84 393.93,693.95 394.52,693.32 C 395.01,692.78 395.7,692.57 396.41,692.5 L 396.41,691.44 L 395.06,691.44 L 395.06,690.97 C 395.5,691.01 396.57,691.01 397.06,691.01 C 397.54,691.01 398.62,691.01 399.06,690.97 L 399.06,691.44 L 397.71,691.44 L 397.71,692.5 C 398.64,692.58 399.23,692.89 399.58,693.21 C 400.26,693.85 400.3,694.8 400.3,694.93 C 400.3,695.38 400.31,696 400.72,696.07 C 400.79,696.08 400.92,696.1 400.92,696.24 C 400.92,696.42 400.75,696.42 400.6,696.42 L 399.89,696.42 C 399.55,696.42 399.01,696.39 399,695.01 C 398.99,693.8 398.56,693.14 397.71,692.91 L 397.71,697.34 z"
   id="path2941" />
<path
   style="fill:#000000;stroke-width:0"
   d="M 406.79,696.81 L 406.8,696.81 L 406.81,696.81 L 406.82,696.81 L 406.83,696.81 L 406.84,696.81 L 406.85,696.81 L 406.86,696.81 L 406.87,696.81 L 406.88,696.81 L 406.89,696.82 L 406.9,696.82 L 406.91,696.82 L 406.92,696.82 L 406.93,696.82 L 406.94,696.83 L 406.95,696.83 L 406.96,696.84 L 406.97,696.84 L 406.98,696.85 L 406.99,696.85 L 407,696.86 L 407.01,696.87 L 407.01,696.87 L 407.02,696.88 L 407.02,696.88 L 407.02,696.89 L 407.03,696.89 L 407.03,696.9 L 407.03,696.9 L 407.03,696.91 L 407.04,696.91 L 407.04,696.92 L 407.04,696.92 L 407.04,696.93 L 407.04,696.94 L 407.04,696.94 L 407.05,696.95 L 407.05,696.96 L 407.05,696.96 L 407.05,696.97 L 407.05,696.98 C 407.05,697.15 406.89,697.15 406.79,697.15 L 402.59,697.15 C 402.49,697.15 402.33,697.15 402.33,696.98 C 402.33,696.81 402.5,696.81 402.59,696.81 L 406.79,696.81 z"
   id="path2943" />
<path
   style="fill:#000000;stroke-width:0"
   d="M 407.3,692.25 L 407.3,692.25 L 407.3,692.26 L 407.3,692.26 L 407.3,692.27 L 407.3,692.27 L 407.3,692.28 L 407.3,692.28 L 407.3,692.28 L 407.3,692.29 L 407.3,692.29 L 407.3,692.3 L 407.3,692.3 L 407.3,692.3 L 407.3,692.31 L 407.3,692.31 L 407.3,692.31 L 407.3,692.32 L 407.3,692.32 L 407.3,692.32 L 407.3,692.32 L 407.3,692.33 L 407.3,692.33 L 407.3,692.33 L 407.3,692.34 L 407.3,692.34 L 407.3,692.35 L 407.3,692.35 L 407.3,692.35 L 407.31,692.36 L 407.31,692.36 L 407.31,692.36 L 407.31,692.36 L 407.31,692.36 L 407.31,692.37 L 407.31,692.37 L 407.31,692.37 L 407.31,692.37 L 407.31,692.37 L 407.32,692.38 L 407.32,692.38 C 407.38,692.42 407.73,692.42 407.82,692.42 L 408.05,692.42 L 408.05,692.81 C 407.95,692.8 407.32,692.78 407.05,692.78 C 406.78,692.78 406.13,692.81 406.06,692.81 L 406.06,692.42 L 406.29,692.42 C 406.39,692.42 406.53,692.41 406.64,692.41 C 406.8,692.39 406.8,692.39 406.8,692.25 L 406.8,689.66 C 406.8,688.63 405.96,688.33 405.17,688.33 C 403.86,688.33 403.78,689.13 403.78,689.62 L 403.78,692.42 L 404.52,692.42 L 404.52,692.81 C 404.36,692.8 403.36,692.78 403.25,692.78 C 403.1,692.78 402.13,692.8 401.98,692.81 L 401.98,692.42 L 402.72,692.42 L 402.72,689.64 C 402.72,688.77 403.47,687.94 405.14,687.94 C 406.7,687.94 407.3,688.82 407.3,689.63 L 407.3,692.25 z"
   id="path2945" />
</g>    <g
       id="g3129"
       transform="matrix(1.6496158,0,0,-1.6496158,-217.6447,1380.7179)"
       xml:space="preserve"
       stroke-miterlimit="10.433"
       fill-rule="even-odd"
       font-style="normal"
       font-variant="normal"
       font-weight="normal"
       font-stretch="normal"
       font-size-adjust="none"
       letter-spacing="normal"
       word-spacing="normal"
       ns0:text="\\begin{align*}\n  &amp;a \\mathbf{\\Psi^+_U}\\\\ \n+&amp; b  \\mathbf{\\Psi^-_U}\n\\end{align*}"
       ns0:preamble="/home/mlenz/.inkscape/textext-preamble.tex"
       style="font-style:normal;font-variant:normal;font-weight:normal;font-stretch:normal;letter-spacing:normal;word-spacing:normal;text-anchor:start;fill:none;fill-opacity:1;stroke:#000000;stroke-linecap:butt;stroke-linejoin:miter;stroke-miterlimit:10.43299961;stroke-dasharray:none;stroke-dashoffset:0;stroke-opacity:1">
<path
   style="fill:#000000;stroke-width:0"
   d="M 392.1,710.89 L 392.09,710.92 L 392.07,710.96 L 392.05,710.99 L 392.03,711.02 L 392.01,711.05 L 391.99,711.08 L 391.97,711.11 L 391.95,711.14 L 391.93,711.17 L 391.9,711.2 L 391.88,711.23 L 391.85,711.25 L 391.83,711.28 L 391.8,711.3 L 391.77,711.32 L 391.75,711.35 L 391.72,711.37 L 391.69,711.39 L 391.66,711.4 L 391.63,711.42 L 391.59,711.44 L 391.56,711.45 L 391.53,711.47 L 391.49,711.48 L 391.46,711.49 L 391.42,711.5 L 391.39,711.51 L 391.35,711.51 L 391.31,711.52 L 391.27,711.52 L 391.23,711.53 L 391.19,711.53 L 391.2,711.31 C 391.85,711.31 391.98,710.49 391.98,710.43 C 391.98,710.37 391.96,710.31 391.95,710.26 L 391.46,708.31 C 391.41,708.13 391.41,708.11 391.26,707.94 C 390.82,707.39 390.41,707.23 390.13,707.23 C 389.63,707.23 389.49,707.78 389.49,708.17 C 389.49,708.67 389.81,709.89 390.04,710.35 C 390.35,710.94 390.8,711.31 391.2,711.31 L 391.19,711.53 C 390.02,711.53 388.79,710.06 388.79,708.61 C 388.79,707.67 389.33,707.01 390.11,707.01 C 390.31,707.01 390.81,707.05 391.41,707.76 C 391.49,707.34 391.83,707.01 392.31,707.01 C 392.66,707.01 392.89,707.24 393.05,707.56 C 393.22,707.92 393.35,708.53 393.35,708.55 C 393.35,708.65 393.26,708.65 393.23,708.65 C 393.13,708.65 393.12,708.61 393.09,708.47 C 392.92,707.82 392.74,707.23 392.33,707.23 C 392.06,707.23 392.03,707.49 392.03,707.69 C 392.03,707.91 392.05,707.99 392.16,708.43 C 392.27,708.85 392.29,708.95 392.38,709.32 C 392.55,709.96 392.59,710.15 392.74,710.72 C 392.81,711 392.81,711.02 392.81,711.06 C 392.81,711.23 392.69,711.33 392.52,711.33 C 392.28,711.33 392.13,711.11 392.1,710.89 z"
   id="path3131" />
<path
   style="fill:#000000;stroke-width:0"
   d="M 398.7,713.49 L 400.05,713.49 L 400.05,713.96 C 399.61,713.93 398.54,713.93 398.06,713.93 C 397.57,713.93 396.49,713.93 396.05,713.96 L 396.05,713.49 L 397.4,713.49 L 397.4,709.07 C 396.25,709.4 396.21,710.64 396.21,711.27 C 396.2,712.15 395.92,712.57 395.33,712.57 L 394.61,712.57 C 394.46,712.57 394.29,712.57 394.29,712.39 C 394.29,712.24 394.41,712.22 394.52,712.21 C 394.9,712.14 394.91,711.39 394.91,711.34 C 394.91,710.99 394.92,710.1 395.51,709.46 C 396,708.93 396.69,708.72 397.4,708.65 L 397.4,707.59 L 396.05,707.59 L 396.05,707.12 C 396.49,707.15 397.56,707.15 398.05,707.15 C 398.53,707.15 399.61,707.15 400.05,707.12 L 400.05,707.59 L 398.7,707.59 L 398.7,708.65 C 399.63,708.73 400.22,709.03 400.57,709.35 C 401.25,710 401.29,710.95 401.29,711.08 C 401.29,711.53 401.3,712.14 401.71,712.21 C 401.78,712.22 401.91,712.24 401.91,712.39 C 401.91,712.57 401.74,712.57 401.59,712.57 L 400.88,712.57 C 400.54,712.57 400,712.53 399.99,711.16 C 399.98,709.95 399.55,709.28 398.7,709.05 L 398.7,713.49 z"
   id="path3133" />
<path
   style="fill:#000000;stroke-width:0"
   d="M 405.8,712.97 L 407.93,712.97 C 408.02,712.97 408.19,712.97 408.19,713.13 C 408.19,713.31 408.03,713.31 407.93,713.31 L 405.8,713.31 L 405.8,715.45 C 405.8,715.54 405.8,715.71 405.63,715.71 C 405.46,715.71 405.46,715.55 405.46,715.45 L 405.46,713.31 L 403.32,713.31 C 403.23,713.31 403.06,713.31 403.06,713.14 C 403.06,712.97 403.22,712.97 403.32,712.97 L 405.46,712.97 L 405.46,710.83 C 405.46,710.73 405.46,710.57 405.62,710.57 C 405.8,710.57 405.8,710.73 405.8,710.83 L 405.8,712.97 z"
   id="path3135" />
<path
   style="fill:#000000;stroke-width:0"
   d="M 408.29,708.39 L 408.29,708.4 L 408.29,708.4 L 408.29,708.41 L 408.29,708.41 L 408.29,708.42 L 408.29,708.42 L 408.29,708.43 L 408.29,708.43 L 408.29,708.44 L 408.29,708.44 L 408.29,708.44 L 408.29,708.45 L 408.29,708.45 L 408.29,708.45 L 408.29,708.46 L 408.29,708.46 L 408.29,708.46 L 408.29,708.47 L 408.29,708.47 L 408.29,708.47 L 408.29,708.47 L 408.29,708.48 L 408.29,708.48 L 408.29,708.49 L 408.29,708.49 L 408.29,708.49 L 408.29,708.5 L 408.29,708.5 L 408.3,708.5 L 408.3,708.51 L 408.3,708.51 L 408.3,708.51 L 408.3,708.51 L 408.3,708.51 L 408.3,708.52 L 408.3,708.52 L 408.3,708.52 L 408.3,708.52 L 408.31,708.52 L 408.31,708.53 C 408.37,708.57 408.72,708.57 408.8,708.57 L 409.04,708.57 L 409.04,708.96 C 408.94,708.95 408.31,708.93 408.04,708.93 C 407.77,708.93 407.12,708.96 407.05,708.96 L 407.05,708.57 L 407.28,708.57 C 407.38,708.57 407.52,708.56 407.63,708.55 C 407.79,708.54 407.79,708.53 407.79,708.39 L 407.79,705.81 C 407.79,704.78 406.95,704.48 406.15,704.48 C 404.85,704.48 404.77,705.28 404.77,705.77 L 404.77,708.57 L 405.51,708.57 L 405.51,708.96 C 405.35,708.95 404.36,708.93 404.24,708.93 C 404.09,708.93 403.12,708.95 402.97,708.96 L 402.97,708.57 L 403.71,708.57 L 403.71,705.79 C 403.71,704.91 404.46,704.09 406.13,704.09 C 407.69,704.09 408.29,704.97 408.29,705.78 L 408.29,708.39 z"
   id="path3137" />
<path
   style="fill:#000000;stroke-width:0"
   d="M 384.71,693.27 L 387.49,693.27 C 387.63,693.27 387.82,693.27 387.82,693.47 C 387.82,693.66 387.63,693.66 387.49,693.66 L 384.71,693.66 L 384.71,696.45 C 384.71,696.59 384.71,696.78 384.52,696.78 C 384.32,696.78 384.32,696.59 384.32,696.45 L 384.32,693.66 L 381.53,693.66 C 381.39,693.66 381.2,693.66 381.2,693.47 C 381.2,693.27 381.39,693.27 381.53,693.27 L 384.32,693.27 L 384.32,690.48 C 384.32,690.34 384.32,690.15 384.52,690.15 C 384.71,690.15 384.71,690.34 384.71,690.48 L 384.71,693.27 z"
   id="path3139" />
<path
   style="fill:#000000;stroke-width:0"
   d="M 390.77,697.78 L 390.77,697.78 L 390.77,697.78 L 390.77,697.78 L 390.77,697.78 L 390.77,697.79 L 390.77,697.79 L 390.77,697.79 L 390.77,697.8 L 390.77,697.8 L 390.77,697.8 L 390.77,697.81 L 390.76,697.81 L 390.76,697.82 L 390.76,697.82 L 390.76,697.83 L 390.76,697.83 L 390.75,697.84 L 390.75,697.84 L 390.75,697.85 L 390.74,697.85 L 390.74,697.86 L 390.73,697.86 L 390.73,697.86 L 390.73,697.86 L 390.73,697.87 L 390.72,697.87 L 390.72,697.87 L 390.72,697.87 L 390.71,697.87 L 390.71,697.87 L 390.71,697.88 L 390.7,697.88 L 390.7,697.88 L 390.7,697.88 L 390.69,697.88 L 390.69,697.88 L 390.68,697.88 L 390.68,697.89 L 390.67,697.89 L 390.67,697.89 L 390.66,697.89 L 390.66,697.89 L 390.65,697.89 L 390.65,697.89 L 390.64,697.89 C 390.41,697.89 389.68,697.81 389.42,697.79 C 389.34,697.78 389.23,697.77 389.23,697.59 C 389.23,697.47 389.32,697.47 389.47,697.47 C 389.95,697.47 389.97,697.4 389.97,697.3 C 389.97,697.23 389.88,696.89 389.83,696.68 L 389.02,693.44 C 388.9,692.94 388.86,692.78 388.86,692.43 C 388.86,691.48 389.38,690.86 390.12,690.86 C 391.3,690.86 392.52,692.35 392.52,693.78 C 392.52,694.69 391.99,695.38 391.2,695.38 L 391.18,695.16 C 391.54,695.16 391.8,694.86 391.8,694.22 C 391.8,693.64 391.48,692.49 391.3,692.11 C 390.97,691.44 390.51,691.09 390.12,691.09 C 389.78,691.09 389.45,691.35 389.45,692.09 C 389.45,692.28 389.45,692.47 389.61,693.1 L 389.83,694.01 C 389.89,694.23 389.89,694.25 389.98,694.36 C 390.47,695.01 390.92,695.16 391.18,695.16 L 391.2,695.38 C 390.74,695.38 390.33,695.09 390.03,694.78 L 390.77,697.78 z"
   id="path3141" />
<path
   style="fill:#000000;stroke-width:0"
   d="M 397.71,697.34 L 399.06,697.34 L 399.06,697.81 C 398.62,697.78 397.55,697.78 397.07,697.78 C 396.58,697.78 395.5,697.78 395.06,697.81 L 395.06,697.34 L 396.41,697.34 L 396.41,692.92 C 395.26,693.26 395.22,694.49 395.22,695.12 C 395.21,696.01 394.93,696.42 394.34,696.42 L 393.62,696.42 C 393.47,696.42 393.3,696.42 393.3,696.24 C 393.3,696.1 393.42,696.08 393.53,696.07 C 393.91,696 393.92,695.24 393.92,695.19 C 393.92,694.84 393.93,693.95 394.52,693.32 C 395.01,692.78 395.7,692.57 396.41,692.5 L 396.41,691.44 L 395.06,691.44 L 395.06,690.97 C 395.5,691.01 396.57,691.01 397.06,691.01 C 397.54,691.01 398.62,691.01 399.06,690.97 L 399.06,691.44 L 397.71,691.44 L 397.71,692.5 C 398.64,692.58 399.23,692.89 399.58,693.21 C 400.26,693.85 400.3,694.8 400.3,694.93 C 400.3,695.38 400.31,696 400.72,696.07 C 400.79,696.08 400.92,696.1 400.92,696.24 C 400.92,696.42 400.75,696.42 400.6,696.42 L 399.89,696.42 C 399.55,696.42 399.01,696.39 399,695.01 C 398.99,693.8 398.56,693.14 397.71,692.91 L 397.71,697.34 z"
   id="path3143" />
<path
   style="fill:#000000;stroke-width:0"
   d="M 406.79,696.81 L 406.8,696.81 L 406.81,696.81 L 406.82,696.81 L 406.83,696.81 L 406.84,696.81 L 406.85,696.81 L 406.86,696.81 L 406.87,696.81 L 406.88,696.81 L 406.89,696.82 L 406.9,696.82 L 406.91,696.82 L 406.92,696.82 L 406.93,696.82 L 406.94,696.83 L 406.95,696.83 L 406.96,696.84 L 406.97,696.84 L 406.98,696.85 L 406.99,696.85 L 407,696.86 L 407.01,696.87 L 407.01,696.87 L 407.02,696.88 L 407.02,696.88 L 407.02,696.89 L 407.03,696.89 L 407.03,696.9 L 407.03,696.9 L 407.03,696.91 L 407.04,696.91 L 407.04,696.92 L 407.04,696.92 L 407.04,696.93 L 407.04,696.94 L 407.04,696.94 L 407.05,696.95 L 407.05,696.96 L 407.05,696.96 L 407.05,696.97 L 407.05,696.98 C 407.05,697.15 406.89,697.15 406.79,697.15 L 402.59,697.15 C 402.49,697.15 402.33,697.15 402.33,696.98 C 402.33,696.81 402.5,696.81 402.59,696.81 L 406.79,696.81 z"
   id="path3145" />
<path
   style="fill:#000000;stroke-width:0"
   d="M 407.3,692.25 L 407.3,692.25 L 407.3,692.26 L 407.3,692.26 L 407.3,692.27 L 407.3,692.27 L 407.3,692.28 L 407.3,692.28 L 407.3,692.28 L 407.3,692.29 L 407.3,692.29 L 407.3,692.3 L 407.3,692.3 L 407.3,692.3 L 407.3,692.31 L 407.3,692.31 L 407.3,692.31 L 407.3,692.32 L 407.3,692.32 L 407.3,692.32 L 407.3,692.32 L 407.3,692.33 L 407.3,692.33 L 407.3,692.33 L 407.3,692.34 L 407.3,692.34 L 407.3,692.35 L 407.3,692.35 L 407.3,692.35 L 407.31,692.36 L 407.31,692.36 L 407.31,692.36 L 407.31,692.36 L 407.31,692.36 L 407.31,692.37 L 407.31,692.37 L 407.31,692.37 L 407.31,692.37 L 407.31,692.37 L 407.32,692.38 L 407.32,692.38 C 407.38,692.42 407.73,692.42 407.82,692.42 L 408.05,692.42 L 408.05,692.81 C 407.95,692.8 407.32,692.78 407.05,692.78 C 406.78,692.78 406.13,692.81 406.06,692.81 L 406.06,692.42 L 406.29,692.42 C 406.39,692.42 406.53,692.41 406.64,692.41 C 406.8,692.39 406.8,692.39 406.8,692.25 L 406.8,689.66 C 406.8,688.63 405.96,688.33 405.17,688.33 C 403.86,688.33 403.78,689.13 403.78,689.62 L 403.78,692.42 L 404.52,692.42 L 404.52,692.81 C 404.36,692.8 403.36,692.78 403.25,692.78 C 403.1,692.78 402.13,692.8 401.98,692.81 L 401.98,692.42 L 402.72,692.42 L 402.72,689.64 C 402.72,688.77 403.47,687.94 405.14,687.94 C 406.7,687.94 407.3,688.82 407.3,689.63 L 407.3,692.25 z"
   id="path3147" />
</g>    <path
       style="fill:none;fill-rule:evenodd;stroke:#000000;stroke-width:1px;stroke-linecap:butt;stroke-linejoin:miter;marker-end:url(#Arrow1Lend);stroke-opacity:1"
       d="M 49.490432,292.48835 L 589.76686,292.48835"
       id="path3289" />
    <g
       style="font-style:normal;font-variant:normal;font-weight:normal;font-stretch:normal;letter-spacing:normal;word-spacing:normal;text-anchor:start;fill:none;fill-opacity:1;stroke:#000000;stroke-linecap:butt;stroke-linejoin:miter;stroke-miterlimit:10.43299961;stroke-dasharray:none;stroke-dashoffset:0;stroke-opacity:1"
       id="g4894"
       transform="matrix(1.6935024,0,0,-1.6935024,216.1361,1483.247)"
       xml:space="preserve"
       stroke-miterlimit="10.433"
       fill-rule="even-odd"
       font-style="normal"
       font-variant="normal"
       font-weight="normal"
       font-stretch="normal"
       font-size-adjust="none"
       letter-spacing="normal"
       word-spacing="normal"
       ns0:text="$x$"
       ns0:preamble="/home/mlenz/.inkscape/textext-preamble.tex">
<path
   style="fill:#000000;stroke-width:0"
   d="M 226.76,710.13 L 226.77,710.16 L 226.77,710.19 L 226.78,710.22 L 226.79,710.26 L 226.8,710.29 L 226.81,710.34 L 226.83,710.38 L 226.84,710.42 L 226.86,710.47 L 226.87,710.52 L 226.89,710.57 L 226.91,710.62 L 226.94,710.67 L 226.96,710.72 L 226.99,710.77 L 227.01,710.82 L 227.04,710.86 L 227.07,710.91 L 227.11,710.96 L 227.14,711 L 227.18,711.05 L 227.22,711.09 L 227.26,711.12 L 227.31,711.16 L 227.35,711.19 L 227.4,711.22 L 227.43,711.23 L 227.45,711.25 L 227.48,711.26 L 227.51,711.27 L 227.53,711.28 L 227.56,711.28 L 227.59,711.29 L 227.62,711.3 L 227.65,711.3 L 227.68,711.3 L 227.71,711.31 L 227.75,711.31 C 227.8,711.31 228.04,711.31 228.24,711.18 C 227.96,711.13 227.77,710.88 227.77,710.64 C 227.77,710.48 227.88,710.29 228.15,710.29 C 228.36,710.29 228.68,710.47 228.68,710.87 C 228.68,711.39 228.1,711.53 227.76,711.53 C 227.18,711.53 226.83,711 226.71,710.77 C 226.46,711.43 225.92,711.53 225.63,711.53 C 224.6,711.53 224.03,710.24 224.03,709.99 C 224.03,709.89 224.13,709.89 224.15,709.89 C 224.23,709.89 224.26,709.91 224.28,710 C 224.62,711.06 225.28,711.31 225.61,711.31 C 225.8,711.31 226.15,711.22 226.15,710.64 C 226.15,710.33 225.98,709.66 225.61,708.27 C 225.46,707.65 225.11,707.23 224.67,707.23 C 224.61,707.23 224.38,707.23 224.17,707.36 C 224.42,707.41 224.64,707.62 224.64,707.9 C 224.64,708.17 224.42,708.25 224.27,708.25 C 223.97,708.25 223.72,707.99 223.72,707.67 C 223.72,707.21 224.22,707.01 224.66,707.01 C 225.32,707.01 225.67,707.71 225.7,707.77 C 225.82,707.4 226.18,707.01 226.78,707.01 C 227.81,707.01 228.37,708.3 228.37,708.55 C 228.37,708.65 228.28,708.65 228.25,708.65 C 228.16,708.65 228.15,708.61 228.12,708.54 C 227.8,707.47 227.12,707.23 226.8,707.23 C 226.41,707.23 226.25,707.55 226.25,707.89 C 226.25,708.11 226.31,708.33 226.42,708.77 L 226.76,710.13 z"
   id="path4896" />
</g>    <path
       id="path4967"
       d="M 181.61074,285.0436 L 181.61074,299.9331"
       style="fill:none;fill-rule:evenodd;stroke:#000000;stroke-width:1px;stroke-linecap:butt;stroke-linejoin:miter;stroke-opacity:1" />
    <path
       id="path4969"
       d="M 469.99676,285.0436 L 469.99676,299.9331"
       style="fill:none;fill-rule:evenodd;stroke:#000000;stroke-width:1px;stroke-linecap:butt;stroke-linejoin:miter;stroke-opacity:1" />
    <g
       ns0:preamble="/home/mlenz/.inkscape/textext-preamble.tex"
       ns0:text="$x_L$"
       word-spacing="normal"
       letter-spacing="normal"
       font-size-adjust="none"
       font-stretch="normal"
       font-weight="normal"
       font-variant="normal"
       font-style="normal"
       fill-rule="even-odd"
       stroke-miterlimit="10.433"
       xml:space="preserve"
       transform="matrix(1.6949153,0,0,-1.6949153,-205.78783,1513.8497)"
       id="g5030"
       style="font-style:normal;font-variant:normal;font-weight:normal;font-stretch:normal;letter-spacing:normal;word-spacing:normal;text-anchor:start;fill:none;fill-opacity:1;stroke:#000000;stroke-linecap:butt;stroke-linejoin:miter;stroke-miterlimit:10.43299961;stroke-dasharray:none;stroke-dashoffset:0;stroke-opacity:1">
<path
   id="path5032"
   d="M 226.76,710.13 L 226.77,710.16 L 226.77,710.19 L 226.78,710.22 L 226.79,710.26 L 226.8,710.29 L 226.81,710.34 L 226.83,710.38 L 226.84,710.42 L 226.86,710.47 L 226.87,710.52 L 226.89,710.57 L 226.91,710.62 L 226.94,710.67 L 226.96,710.72 L 226.99,710.77 L 227.01,710.82 L 227.04,710.86 L 227.07,710.91 L 227.11,710.96 L 227.14,711 L 227.18,711.05 L 227.22,711.09 L 227.26,711.12 L 227.31,711.16 L 227.35,711.19 L 227.4,711.22 L 227.43,711.23 L 227.45,711.25 L 227.48,711.26 L 227.51,711.27 L 227.53,711.28 L 227.56,711.28 L 227.59,711.29 L 227.62,711.3 L 227.65,711.3 L 227.68,711.3 L 227.71,711.31 L 227.75,711.31 C 227.8,711.31 228.04,711.31 228.24,711.18 C 227.96,711.13 227.77,710.88 227.77,710.64 C 227.77,710.48 227.88,710.29 228.15,710.29 C 228.36,710.29 228.68,710.47 228.68,710.87 C 228.68,711.39 228.1,711.53 227.76,711.53 C 227.18,711.53 226.83,711 226.71,710.77 C 226.46,711.43 225.92,711.53 225.63,711.53 C 224.6,711.53 224.03,710.24 224.03,709.99 C 224.03,709.89 224.13,709.89 224.15,709.89 C 224.23,709.89 224.26,709.91 224.28,710 C 224.62,711.06 225.28,711.31 225.61,711.31 C 225.8,711.31 226.15,711.22 226.15,710.64 C 226.15,710.33 225.98,709.66 225.61,708.27 C 225.46,707.65 225.11,707.23 224.67,707.23 C 224.61,707.23 224.38,707.23 224.17,707.36 C 224.42,707.41 224.64,707.62 224.64,707.9 C 224.64,708.17 224.42,708.25 224.27,708.25 C 223.97,708.25 223.72,707.99 223.72,707.67 C 223.72,707.21 224.22,707.01 224.66,707.01 C 225.32,707.01 225.67,707.71 225.7,707.77 C 225.82,707.4 226.18,707.01 226.78,707.01 C 227.81,707.01 228.37,708.3 228.37,708.55 C 228.37,708.65 228.28,708.65 228.25,708.65 C 228.16,708.65 228.15,708.61 228.12,708.54 C 227.8,707.47 227.12,707.23 226.8,707.23 C 226.41,707.23 226.25,707.55 226.25,707.89 C 226.25,708.11 226.31,708.33 226.42,708.77 L 226.76,710.13 z"
   style="fill:#000000;stroke-width:0" />
<path
   id="path5034"
   d="M 232,709.82 L 232,709.84 L 232.01,709.87 L 232.02,709.89 L 232.02,709.91 L 232.03,709.93 L 232.03,709.94 L 232.04,709.96 L 232.05,709.98 L 232.06,709.99 L 232.06,710.01 L 232.07,710.02 L 232.09,710.03 L 232.1,710.04 L 232.11,710.06 L 232.13,710.07 L 232.14,710.08 L 232.16,710.08 L 232.18,710.09 L 232.2,710.1 L 232.23,710.11 L 232.24,710.11 L 232.25,710.11 L 232.27,710.12 L 232.28,710.12 L 232.3,710.12 L 232.31,710.12 L 232.33,710.13 L 232.35,710.13 L 232.37,710.13 L 232.38,710.13 L 232.4,710.13 L 232.42,710.13 L 232.44,710.14 L 232.47,710.14 L 232.49,710.14 L 232.51,710.14 L 232.53,710.14 L 232.56,710.14 L 232.58,710.14 L 232.61,710.14 L 232.64,710.14 L 232.66,710.14 L 232.69,710.14 L 232.72,710.14 C 232.94,710.14 233.01,710.14 233.01,710.29 C 233.01,710.3 233,710.39 232.89,710.39 C 232.73,710.39 232.54,710.38 232.38,710.37 C 232.2,710.36 231.99,710.36 231.82,710.36 C 231.67,710.36 231.48,710.37 231.34,710.37 C 231.19,710.37 231.02,710.39 230.88,710.39 C 230.84,710.39 230.74,710.39 230.74,710.24 C 230.74,710.14 230.82,710.14 230.96,710.14 C 230.97,710.14 231.1,710.14 231.22,710.13 C 231.37,710.11 231.38,710.1 231.38,710.03 C 231.38,710.02 231.38,709.98 231.36,709.88 L 230.43,706.17 C 230.37,705.94 230.35,705.88 229.82,705.88 C 229.7,705.88 229.61,705.88 229.61,705.73 C 229.61,705.63 229.69,705.63 229.82,705.63 L 233.32,705.63 C 233.5,705.63 233.51,705.64 233.56,705.77 C 233.63,705.96 234.15,707.31 234.15,707.37 C 234.15,707.39 234.14,707.46 234.04,707.46 C 233.95,707.46 233.94,707.43 233.9,707.32 C 233.63,706.66 233.32,705.88 232.05,705.88 L 231.26,705.88 C 231.04,705.88 231.04,705.89 231.04,705.95 C 231.04,705.96 231.04,705.99 231.06,706.1 L 232,709.82 z"
   style="fill:#000000;stroke-width:0" />
</g>    <g
       id="g5176"
       transform="matrix(1.6556291,0,0,-1.6556291,91.249784,1485.8964)"
       xml:space="preserve"
       stroke-miterlimit="10.433"
       fill-rule="even-odd"
       font-style="normal"
       font-variant="normal"
       font-weight="normal"
       font-stretch="normal"
       font-size-adjust="none"
       letter-spacing="normal"
       word-spacing="normal"
       ns0:text="$x_R$"
       ns0:preamble="/home/mlenz/.inkscape/textext-preamble.tex"
       style="font-style:normal;font-variant:normal;font-weight:normal;font-stretch:normal;letter-spacing:normal;word-spacing:normal;text-anchor:start;fill:none;fill-opacity:1;stroke:#000000;stroke-linecap:butt;stroke-linejoin:miter;stroke-miterlimit:10.43299961;stroke-dasharray:none;stroke-dashoffset:0;stroke-opacity:1">
<path
   style="fill:#000000;stroke-width:0"
   d="M 226.76,710.13 L 226.77,710.16 L 226.77,710.19 L 226.78,710.22 L 226.79,710.26 L 226.8,710.29 L 226.81,710.34 L 226.83,710.38 L 226.84,710.42 L 226.86,710.47 L 226.87,710.52 L 226.89,710.57 L 226.91,710.62 L 226.94,710.67 L 226.96,710.72 L 226.99,710.77 L 227.01,710.82 L 227.04,710.86 L 227.07,710.91 L 227.11,710.96 L 227.14,711 L 227.18,711.05 L 227.22,711.09 L 227.26,711.12 L 227.31,711.16 L 227.35,711.19 L 227.4,711.22 L 227.43,711.23 L 227.45,711.25 L 227.48,711.26 L 227.51,711.27 L 227.53,711.28 L 227.56,711.28 L 227.59,711.29 L 227.62,711.3 L 227.65,711.3 L 227.68,711.3 L 227.71,711.31 L 227.75,711.31 C 227.8,711.31 228.04,711.31 228.24,711.18 C 227.96,711.13 227.77,710.88 227.77,710.64 C 227.77,710.48 227.88,710.29 228.15,710.29 C 228.36,710.29 228.68,710.47 228.68,710.87 C 228.68,711.39 228.1,711.53 227.76,711.53 C 227.18,711.53 226.83,711 226.71,710.77 C 226.46,711.43 225.92,711.53 225.63,711.53 C 224.6,711.53 224.03,710.24 224.03,709.99 C 224.03,709.89 224.13,709.89 224.15,709.89 C 224.23,709.89 224.26,709.91 224.28,710 C 224.62,711.06 225.28,711.31 225.61,711.31 C 225.8,711.31 226.15,711.22 226.15,710.64 C 226.15,710.33 225.98,709.66 225.61,708.27 C 225.46,707.65 225.11,707.23 224.67,707.23 C 224.61,707.23 224.38,707.23 224.17,707.36 C 224.42,707.41 224.64,707.62 224.64,707.9 C 224.64,708.17 224.42,708.25 224.27,708.25 C 223.97,708.25 223.72,707.99 223.72,707.67 C 223.72,707.21 224.22,707.01 224.66,707.01 C 225.32,707.01 225.67,707.71 225.7,707.77 C 225.82,707.4 226.18,707.01 226.78,707.01 C 227.81,707.01 228.37,708.3 228.37,708.55 C 228.37,708.65 228.28,708.65 228.25,708.65 C 228.16,708.65 228.15,708.61 228.12,708.54 C 227.8,707.47 227.12,707.23 226.8,707.23 C 226.41,707.23 226.25,707.55 226.25,707.89 C 226.25,708.11 226.31,708.33 226.42,708.77 L 226.76,710.13 z"
   id="path5178" />
<path
   style="fill:#000000;stroke-width:0"
   d="M 233.27,708 L 233.34,708.02 L 233.42,708.04 L 233.5,708.06 L 233.57,708.09 L 233.65,708.11 L 233.72,708.14 L 233.79,708.17 L 233.86,708.2 L 233.93,708.23 L 234,708.27 L 234.06,708.3 L 234.13,708.34 L 234.19,708.38 L 234.25,708.42 L 234.31,708.46 L 234.36,708.5 L 234.42,708.54 L 234.47,708.59 L 234.51,708.63 L 234.56,708.68 L 234.6,708.73 L 234.64,708.78 L 234.68,708.83 L 234.71,708.88 L 234.74,708.93 L 234.76,708.98 L 234.79,709.04 L 234.8,709.09 L 234.82,709.15 L 234.83,709.2 L 234.83,709.26 L 234.84,709.32 C 234.84,709.92 234.12,710.39 233.11,710.39 L 230.97,710.39 C 230.84,710.39 230.75,710.39 230.75,710.24 C 230.75,710.14 230.83,710.14 230.97,710.14 C 230.98,710.14 231.11,710.14 231.24,710.13 C 231.38,710.11 231.4,710.1 231.4,710.03 C 231.4,710.02 231.4,709.98 231.37,709.88 L 230.44,706.17 C 230.39,705.94 230.37,705.88 229.83,705.88 C 229.71,705.88 229.62,705.88 229.62,705.73 C 229.62,705.66 229.67,705.63 229.73,705.63 C 229.86,705.63 230.02,705.65 230.16,705.65 C 230.3,705.65 230.5,705.66 230.62,705.66 C 230.76,705.66 230.92,705.65 231.07,705.65 C 231.22,705.65 231.39,705.63 231.54,705.63 C 231.57,705.63 231.68,705.63 231.68,705.78 C 231.68,705.88 231.62,705.88 231.45,705.88 C 231.34,705.88 231.32,705.88 231.19,705.9 C 231.04,705.92 231.04,705.93 231.04,706 C 231.04,706.01 231.04,706.05 231.06,706.15 L 231.5,707.92 L 232.45,707.92 L 232.46,708.11 L 231.56,708.11 L 232.01,709.91 C 232.05,710.1 232.07,710.12 232.22,710.14 L 232.67,710.14 C 233.32,710.14 234.12,710.14 234.12,709.42 C 234.12,709.14 233.99,708.7 233.66,708.45 C 233.37,708.22 232.94,708.11 232.46,708.11 L 232.45,707.92 C 233.05,707.92 233.31,707.62 233.31,707.29 C 233.31,707.2 233.25,706.96 233.21,706.8 C 233.13,706.48 233.1,706.38 233.1,706.26 C 233.1,705.71 233.61,705.49 234.12,705.49 C 234.77,705.49 235.05,706.17 235.05,706.3 C 235.05,706.32 235.03,706.4 234.93,706.4 C 234.84,706.4 234.82,706.35 234.8,706.28 C 234.7,705.97 234.45,705.69 234.15,705.69 C 233.97,705.69 233.84,705.76 233.84,706.14 C 233.84,706.31 233.88,706.68 233.91,706.86 C 233.94,707.05 233.94,707.12 233.94,707.19 C 233.94,707.28 233.94,707.5 233.74,707.71 C 233.61,707.85 233.42,707.95 233.27,708 z"
   id="path5180" />
</g>    <g
       style="font-style:normal;font-variant:normal;font-weight:normal;font-stretch:normal;letter-spacing:normal;word-spacing:normal;text-anchor:start;fill:none;fill-opacity:1;stroke:#000000;stroke-linecap:butt;stroke-linejoin:miter;stroke-miterlimit:10.43299961;stroke-dasharray:none;stroke-dashoffset:0;stroke-opacity:1"
       ns0:preamble="/home/mlenz/.inkscape/textext-preamble.tex"
       ns0:text="\\begin{align*}\n&amp;\\sqrt{T_{\\uparrow\\uparrow}}\\mathbf{\\Psi_U^\\uparrow}\\\\\n+&amp;\\sqrt{T_{\\downarrow\\uparrow}}\\mathbf{\\Psi_U^\\downarrow}\n\\end{align*}"
       word-spacing="normal"
       letter-spacing="normal"
       font-size-adjust="none"
       font-stretch="normal"
       font-weight="normal"
       font-variant="normal"
       font-style="normal"
       fill-rule="even-odd"
       stroke-miterlimit="10.433"
       xml:space="preserve"
       transform="matrix(1.6085256,0,0,-1.6085256,-121.67076,1351.2203)"
       id="g5304">
<path
   id="path5306"
   d="M 383.03,704.06 L 383.04,704.06 L 383.06,704.06 L 383.07,704.06 L 383.08,704.06 L 383.09,704.06 L 383.11,704.06 L 383.12,704.06 L 383.13,704.06 L 383.14,704.06 L 383.15,704.06 L 383.16,704.06 L 383.17,704.07 L 383.19,704.07 L 383.21,704.07 L 383.23,704.07 L 383.24,704.07 L 383.26,704.07 L 383.27,704.08 L 383.28,704.08 L 383.29,704.08 L 383.3,704.09 L 383.31,704.09 L 383.32,704.1 L 383.33,704.1 L 383.34,704.11 L 383.35,704.12 L 383.36,704.12 L 383.37,704.13 L 383.37,704.14 L 383.38,704.15 L 383.39,704.16 L 383.4,704.17 L 383.4,704.19 L 383.41,704.2 L 383.42,704.21 L 383.43,704.23 L 383.44,704.25 L 383.45,704.26 L 388.89,715.64 C 388.96,715.77 388.96,715.79 388.96,715.82 C 388.96,715.93 388.89,716.02 388.77,716.02 C 388.64,716.02 388.6,715.93 388.55,715.82 L 383.4,705.1 L 381.28,710.04 L 379.9,708.97 L 380.05,708.82 L 380.76,709.35 L 383.03,704.06 z"
   style="fill:#000000;stroke-width:0" />
<line
   id="line5308"
   y2="715.82001"
   x2="403.25"
   y1="715.82001"
   x1="388.76001"
   style="stroke-width:0.398" />
<path
   id="path5310"
   d="M 393.02,713.17 L 393.02,713.2 L 393.03,713.22 L 393.04,713.24 L 393.04,713.26 L 393.05,713.29 L 393.05,713.31 L 393.06,713.32 L 393.07,713.34 L 393.07,713.36 L 393.08,713.37 L 393.08,713.39 L 393.09,713.4 L 393.09,713.41 L 393.1,713.43 L 393.11,713.44 L 393.11,713.45 L 393.12,713.46 L 393.13,713.47 L 393.13,713.47 L 393.14,713.48 L 393.15,713.49 L 393.15,713.5 L 393.16,713.5 L 393.17,713.51 L 393.18,713.51 L 393.19,713.52 L 393.2,713.52 L 393.2,713.53 L 393.21,713.53 L 393.22,713.53 L 393.23,713.54 L 393.25,713.54 C 393.33,713.56 393.66,713.56 393.87,713.56 C 394.88,713.56 395.33,713.52 395.33,712.74 C 395.33,712.59 395.29,712.2 395.25,711.94 C 395.24,711.91 395.22,711.78 395.22,711.76 C 395.22,711.7 395.25,711.63 395.34,711.63 C 395.45,711.63 395.47,711.71 395.49,711.85 L 395.76,713.59 C 395.77,713.63 395.78,713.73 395.78,713.76 C 395.78,713.87 395.68,713.87 395.51,713.87 L 389.98,713.87 C 389.74,713.87 389.73,713.86 389.66,713.67 L 389.06,711.91 C 389.05,711.9 389,711.76 389,711.73 C 389,711.67 389.05,711.63 389.12,711.63 C 389.22,711.63 389.23,711.67 389.29,711.84 C 389.83,713.38 390.09,713.56 391.56,713.56 L 391.95,713.56 C 392.23,713.56 392.23,713.52 392.23,713.44 C 392.23,713.38 392.2,713.26 392.19,713.23 L 390.86,707.91 C 390.77,707.54 390.73,707.43 389.67,707.43 C 389.31,707.43 389.25,707.43 389.25,707.24 C 389.25,707.12 389.36,707.12 389.42,707.12 C 389.69,707.12 389.97,707.14 390.24,707.14 C 390.52,707.14 390.8,707.15 391.08,707.15 C 391.36,707.15 391.64,707.14 391.91,707.14 C 392.2,707.14 392.5,707.12 392.78,707.12 C 392.88,707.12 393,707.12 393,707.32 C 393,707.43 392.92,707.43 392.66,707.43 C 392.41,707.43 392.28,707.43 392.02,707.45 C 391.73,707.48 391.65,707.51 391.65,707.67 C 391.65,707.68 391.65,707.73 391.69,707.88 L 393.02,713.17 z"
   style="fill:#000000;stroke-width:0" />
<path
   id="path5312"
   d="M 396.79,709.84 L 396.83,709.79 L 396.88,709.74 L 396.92,709.7 L 396.96,709.65 L 397.01,709.61 L 397.05,709.57 L 397.1,709.53 L 397.14,709.5 L 397.19,709.46 L 397.23,709.43 L 397.28,709.4 L 397.32,709.37 L 397.36,709.34 L 397.41,709.31 L 397.45,709.29 L 397.49,709.27 L 397.53,709.24 L 397.57,709.22 L 397.61,709.2 L 397.64,709.19 L 397.68,709.17 L 397.71,709.16 L 397.74,709.14 L 397.77,709.13 L 397.8,709.12 L 397.82,709.11 L 397.84,709.11 L 397.86,709.1 L 397.88,709.09 L 397.89,709.09 L 397.9,709.09 L 397.91,709.09 C 397.98,709.09 398.01,709.15 398.01,709.21 C 398.01,709.3 397.99,709.31 397.86,709.36 C 397.31,709.58 396.97,709.93 396.72,710.39 C 396.7,710.43 396.68,710.47 396.63,710.47 C 396.59,710.47 396.58,710.46 396.56,710.44 C 396.55,710.43 396.55,710.43 396.47,710.3 C 396.3,709.98 395.97,709.6 395.36,709.35 C 395.26,709.31 395.24,709.3 395.24,709.21 C 395.24,709.15 395.26,709.09 395.34,709.09 C 395.4,709.09 396.02,709.31 396.45,709.84 L 396.45,704.53 C 396.45,704.44 396.45,704.28 396.62,704.28 C 396.79,704.28 396.79,704.43 396.79,704.53 L 396.79,709.84 z"
   style="fill:#000000;stroke-width:0" />
<path
   id="path5314"
   d="M 400.87,709.84 L 400.91,709.79 L 400.96,709.74 L 401,709.7 L 401.04,709.65 L 401.09,709.61 L 401.13,709.57 L 401.18,709.53 L 401.22,709.5 L 401.27,709.46 L 401.31,709.43 L 401.36,709.4 L 401.4,709.37 L 401.44,709.34 L 401.49,709.31 L 401.53,709.29 L 401.57,709.27 L 401.61,709.24 L 401.65,709.22 L 401.69,709.2 L 401.72,709.19 L 401.76,709.17 L 401.79,709.16 L 401.82,709.14 L 401.85,709.13 L 401.88,709.12 L 401.9,709.11 L 401.92,709.11 L 401.94,709.1 L 401.96,709.09 L 401.97,709.09 L 401.98,709.09 L 401.99,709.09 C 402.06,709.09 402.09,709.15 402.09,709.21 C 402.09,709.3 402.07,709.31 401.94,709.36 C 401.39,709.58 401.05,709.93 400.8,710.39 C 400.78,710.43 400.76,710.47 400.71,710.47 C 400.67,710.47 400.66,710.46 400.64,710.44 C 400.63,710.43 400.63,710.43 400.55,710.3 C 400.38,709.98 400.05,709.6 399.44,709.35 C 399.34,709.31 399.32,709.3 399.32,709.21 C 399.32,709.15 399.34,709.09 399.42,709.09 C 399.48,709.09 400.1,709.31 400.53,709.84 L 400.53,704.53 C 400.53,704.44 400.53,704.28 400.7,704.28 C 400.87,704.28 400.87,704.43 400.87,704.53 L 400.87,709.84 z"
   style="fill:#000000;stroke-width:0" />
<path
   id="path5316"
   d="M 408.3,713.49 L 409.64,713.49 L 409.64,713.96 C 409.2,713.93 408.14,713.93 407.65,713.93 C 407.16,713.93 406.08,713.93 405.65,713.96 L 405.65,713.49 L 406.99,713.49 L 406.99,709.07 C 405.85,709.4 405.8,710.64 405.8,711.27 C 405.8,712.15 405.52,712.57 404.92,712.57 L 404.2,712.57 C 404.05,712.57 403.88,712.57 403.88,712.39 C 403.88,712.24 404,712.22 404.11,712.21 C 404.49,712.14 404.5,711.39 404.5,711.34 C 404.5,710.99 404.51,710.1 405.1,709.46 C 405.6,708.93 406.28,708.72 406.99,708.65 L 406.99,707.59 L 405.65,707.59 L 405.65,707.12 C 406.08,707.15 407.15,707.15 407.64,707.15 C 408.13,707.15 409.2,707.15 409.64,707.12 L 409.64,707.59 L 408.3,707.59 L 408.3,708.65 C 409.22,708.73 409.81,709.03 410.16,709.35 C 410.85,710 410.89,710.95 410.89,711.08 C 410.89,711.53 410.9,712.14 411.3,712.21 C 411.37,712.22 411.5,712.24 411.5,712.39 C 411.5,712.57 411.33,712.57 411.18,712.57 L 410.47,712.57 C 410.13,712.57 409.59,712.53 409.58,711.16 C 409.57,709.95 409.14,709.28 408.3,709.05 L 408.3,713.49 z"
   style="fill:#000000;stroke-width:0" />
<path
   id="path5318"
   d="M 414.37,716.12 L 414.41,716.07 L 414.45,716.03 L 414.49,715.98 L 414.54,715.94 L 414.58,715.9 L 414.62,715.86 L 414.67,715.82 L 414.71,715.78 L 414.76,715.75 L 414.8,715.72 L 414.85,715.68 L 414.89,715.65 L 414.94,715.63 L 414.98,715.6 L 415.02,715.57 L 415.06,715.55 L 415.1,715.53 L 415.14,715.51 L 415.18,715.49 L 415.22,715.47 L 415.25,715.46 L 415.28,715.44 L 415.31,715.43 L 415.34,715.42 L 415.37,715.41 L 415.39,715.4 L 415.41,715.39 L 415.43,715.38 L 415.45,715.38 L 415.46,715.38 L 415.47,715.37 L 415.48,715.37 C 415.55,715.37 415.58,715.44 415.58,715.49 C 415.58,715.59 415.56,715.6 415.43,715.65 C 414.88,715.87 414.54,716.22 414.3,716.68 C 414.27,716.71 414.25,716.76 414.2,716.76 C 414.16,716.76 414.15,716.74 414.13,716.73 C 414.12,716.72 414.12,716.71 414.05,716.59 C 413.87,716.27 413.54,715.88 412.94,715.64 C 412.83,715.6 412.81,715.59 412.81,715.49 C 412.81,715.44 412.83,715.37 412.91,715.37 C 412.97,715.37 413.59,715.6 414.02,716.12 L 414.02,710.82 C 414.02,710.72 414.02,710.56 414.19,710.56 C 414.37,710.56 414.37,710.72 414.37,710.82 L 414.37,716.12 z"
   style="fill:#000000;stroke-width:0" />
<path
   id="path5320"
   d="M 417.87,708.39 L 417.87,708.4 L 417.87,708.4 L 417.87,708.41 L 417.87,708.41 L 417.87,708.42 L 417.87,708.42 L 417.87,708.43 L 417.87,708.43 L 417.87,708.44 L 417.87,708.44 L 417.87,708.44 L 417.87,708.45 L 417.87,708.45 L 417.87,708.45 L 417.88,708.46 L 417.88,708.46 L 417.88,708.46 L 417.88,708.47 L 417.88,708.47 L 417.88,708.47 L 417.88,708.47 L 417.88,708.48 L 417.88,708.48 L 417.88,708.49 L 417.88,708.49 L 417.88,708.49 L 417.88,708.5 L 417.88,708.5 L 417.88,708.5 L 417.88,708.51 L 417.88,708.51 L 417.88,708.51 L 417.88,708.51 L 417.88,708.51 L 417.88,708.52 L 417.89,708.52 L 417.89,708.52 L 417.89,708.52 L 417.89,708.52 L 417.89,708.53 C 417.96,708.57 418.31,708.57 418.39,708.57 L 418.62,708.57 L 418.62,708.96 C 418.53,708.95 417.89,708.93 417.63,708.93 C 417.36,708.93 416.7,708.96 416.63,708.96 L 416.63,708.57 L 416.86,708.57 C 416.97,708.57 417.11,708.56 417.21,708.55 C 417.37,708.54 417.38,708.53 417.38,708.39 L 417.38,705.81 C 417.38,704.78 416.54,704.48 415.74,704.48 C 414.43,704.48 414.35,705.28 414.35,705.77 L 414.35,708.57 L 415.1,708.57 L 415.1,708.96 C 414.94,708.95 413.94,708.93 413.83,708.93 C 413.67,708.93 412.71,708.95 412.55,708.96 L 412.55,708.57 L 413.3,708.57 L 413.3,705.79 C 413.3,704.91 414.05,704.09 415.71,704.09 C 417.27,704.09 417.87,704.97 417.87,705.78 L 417.87,708.39 z"
   style="fill:#000000;stroke-width:0" />
<path
   id="path5322"
   d="M 375.12,692.22 L 377.9,692.22 C 378.04,692.22 378.23,692.22 378.23,692.42 C 378.23,692.61 378.04,692.61 377.9,692.61 L 375.12,692.61 L 375.12,695.4 C 375.12,695.54 375.12,695.73 374.92,695.73 C 374.72,695.73 374.72,695.54 374.72,695.4 L 374.72,692.61 L 371.93,692.61 C 371.8,692.61 371.61,692.61 371.61,692.42 C 371.61,692.22 371.8,692.22 371.93,692.22 L 374.72,692.22 L 374.72,689.43 C 374.72,689.29 374.72,689.1 374.92,689.1 C 375.12,689.1 375.12,689.29 375.12,689.43 L 375.12,692.22 z"
   style="fill:#000000;stroke-width:0" />
<path
   id="path5324"
   d="M 383.03,686.86 L 383.04,686.86 L 383.06,686.86 L 383.07,686.86 L 383.08,686.86 L 383.09,686.86 L 383.11,686.86 L 383.12,686.86 L 383.13,686.86 L 383.14,686.86 L 383.15,686.86 L 383.16,686.86 L 383.17,686.86 L 383.19,686.86 L 383.21,686.86 L 383.23,686.86 L 383.24,686.87 L 383.26,686.87 L 383.27,686.87 L 383.28,686.87 L 383.29,686.88 L 383.3,686.88 L 383.31,686.89 L 383.32,686.89 L 383.33,686.9 L 383.34,686.9 L 383.35,686.91 L 383.36,686.92 L 383.37,686.93 L 383.37,686.94 L 383.38,686.95 L 383.39,686.96 L 383.4,686.97 L 383.4,686.98 L 383.41,686.99 L 383.42,687.01 L 383.43,687.02 L 383.44,687.04 L 383.45,687.06 L 388.89,698.43 C 388.96,698.56 388.96,698.58 388.96,698.61 C 388.96,698.72 388.89,698.81 388.77,698.81 C 388.64,698.81 388.6,698.72 388.55,698.61 L 383.4,687.9 L 381.28,692.84 L 379.9,691.77 L 380.05,691.61 L 380.76,692.15 L 383.03,686.86 z"
   style="fill:#000000;stroke-width:0" />
<line
   id="line5326"
   y2="698.60999"
   x2="403.25"
   y1="698.60999"
   x1="388.76001"
   style="stroke-width:0.398" />
<path
   id="path5328"
   d="M 393.02,695.97 L 393.02,696 L 393.03,696.02 L 393.04,696.04 L 393.04,696.07 L 393.05,696.09 L 393.05,696.11 L 393.06,696.13 L 393.07,696.14 L 393.07,696.16 L 393.08,696.18 L 393.08,696.19 L 393.09,696.2 L 393.09,696.22 L 393.1,696.23 L 393.11,696.24 L 393.11,696.25 L 393.12,696.26 L 393.13,696.27 L 393.13,696.28 L 393.14,696.28 L 393.15,696.29 L 393.15,696.3 L 393.16,696.3 L 393.17,696.31 L 393.18,696.32 L 393.19,696.32 L 393.2,696.32 L 393.2,696.33 L 393.21,696.33 L 393.22,696.33 L 393.23,696.34 L 393.25,696.34 C 393.33,696.36 393.66,696.36 393.87,696.36 C 394.88,696.36 395.33,696.32 395.33,695.54 C 395.33,695.39 395.29,695.01 395.25,694.75 C 395.24,694.71 395.22,694.59 395.22,694.56 C 395.22,694.5 395.25,694.43 395.34,694.43 C 395.45,694.43 395.47,694.51 395.49,694.66 L 395.76,696.39 C 395.77,696.43 395.78,696.53 395.78,696.56 C 395.78,696.67 395.68,696.67 395.51,696.67 L 389.98,696.67 C 389.74,696.67 389.73,696.66 389.66,696.47 L 389.06,694.72 C 389.05,694.7 389,694.56 389,694.54 C 389,694.48 389.05,694.43 389.12,694.43 C 389.22,694.43 389.23,694.48 389.29,694.64 C 389.83,696.18 390.09,696.36 391.56,696.36 L 391.95,696.36 C 392.23,696.36 392.23,696.32 392.23,696.24 C 392.23,696.18 392.2,696.06 392.19,696.03 L 390.86,690.71 C 390.77,690.34 390.73,690.23 389.67,690.23 C 389.31,690.23 389.25,690.23 389.25,690.04 C 389.25,689.92 389.36,689.92 389.42,689.92 C 389.69,689.92 389.97,689.95 390.24,689.95 C 390.52,689.95 390.8,689.96 391.08,689.96 C 391.36,689.96 391.64,689.95 391.91,689.95 C 392.2,689.95 392.5,689.92 392.78,689.92 C 392.88,689.92 393,689.92 393,690.12 C 393,690.23 392.92,690.23 392.66,690.23 C 392.41,690.23 392.28,690.23 392.02,690.25 C 391.73,690.28 391.65,690.31 391.65,690.47 C 391.65,690.48 391.65,690.53 391.69,690.68 L 393.02,695.97 z"
   style="fill:#000000;stroke-width:0" />
<path
   id="path5330"
   d="M 396.79,693.01 L 396.79,693.02 L 396.79,693.03 L 396.79,693.04 L 396.79,693.05 L 396.79,693.06 L 396.79,693.07 L 396.79,693.08 L 396.79,693.1 L 396.79,693.11 L 396.79,693.12 L 396.79,693.13 L 396.78,693.14 L 396.78,693.15 L 396.78,693.16 L 396.78,693.17 L 396.77,693.18 L 396.77,693.19 L 396.76,693.2 L 396.76,693.21 L 396.75,693.22 L 396.75,693.22 L 396.74,693.23 L 396.73,693.24 L 396.73,693.24 L 396.72,693.25 L 396.72,693.25 L 396.71,693.25 L 396.71,693.25 L 396.7,693.26 L 396.7,693.26 L 396.69,693.26 L 396.69,693.26 L 396.68,693.26 L 396.68,693.27 L 396.67,693.27 L 396.66,693.27 L 396.66,693.27 L 396.65,693.27 L 396.64,693.27 L 396.63,693.27 L 396.63,693.27 C 396.45,693.27 396.45,693.12 396.45,693.01 L 396.45,687.71 C 396.02,688.24 395.4,688.46 395.34,688.46 C 395.27,688.46 395.24,688.4 395.24,688.34 C 395.24,688.24 395.26,688.24 395.38,688.19 C 395.89,687.99 396.26,687.64 396.49,687.21 C 396.56,687.1 396.56,687.08 396.63,687.08 C 396.68,687.08 396.7,687.11 396.75,687.21 C 397.09,687.84 397.6,688.08 397.88,688.2 C 397.99,688.24 398.01,688.24 398.01,688.34 C 398.01,688.4 397.99,688.46 397.91,688.46 C 397.85,688.46 397.23,688.24 396.79,687.71 L 396.79,693.01 z"
   style="fill:#000000;stroke-width:0" />
<path
   id="path5332"
   d="M 400.87,692.64 L 400.91,692.59 L 400.96,692.54 L 401,692.5 L 401.04,692.46 L 401.09,692.41 L 401.13,692.37 L 401.18,692.34 L 401.22,692.3 L 401.27,692.27 L 401.31,692.23 L 401.36,692.2 L 401.4,692.17 L 401.44,692.14 L 401.49,692.12 L 401.53,692.09 L 401.57,692.07 L 401.61,692.05 L 401.65,692.03 L 401.69,692.01 L 401.72,691.99 L 401.76,691.97 L 401.79,691.96 L 401.82,691.95 L 401.85,691.94 L 401.88,691.92 L 401.9,691.92 L 401.92,691.91 L 401.94,691.9 L 401.96,691.9 L 401.97,691.89 L 401.98,691.89 L 401.99,691.89 C 402.06,691.89 402.09,691.95 402.09,692.01 C 402.09,692.11 402.07,692.11 401.94,692.16 C 401.39,692.39 401.05,692.73 400.8,693.2 C 400.78,693.23 400.76,693.27 400.71,693.27 C 400.67,693.27 400.66,693.26 400.64,693.24 C 400.63,693.24 400.63,693.23 400.55,693.1 C 400.38,692.78 400.05,692.4 399.44,692.16 C 399.34,692.11 399.32,692.11 399.32,692.01 C 399.32,691.95 399.34,691.89 399.42,691.89 C 399.48,691.89 400.1,692.11 400.53,692.64 L 400.53,687.34 C 400.53,687.24 400.53,687.08 400.7,687.08 C 400.87,687.08 400.87,687.23 400.87,687.34 L 400.87,692.64 z"
   style="fill:#000000;stroke-width:0" />
<path
   id="path5334"
   d="M 408.3,696.29 L 409.64,696.29 L 409.64,696.76 C 409.2,696.73 408.14,696.73 407.65,696.73 C 407.16,696.73 406.08,696.73 405.65,696.76 L 405.65,696.29 L 406.99,696.29 L 406.99,691.87 C 405.85,692.21 405.8,693.44 405.8,694.07 C 405.8,694.96 405.52,695.38 404.92,695.38 L 404.2,695.38 C 404.05,695.38 403.88,695.38 403.88,695.2 C 403.88,695.05 404,695.03 404.11,695.02 C 404.49,694.95 404.5,694.19 404.5,694.14 C 404.5,693.79 404.51,692.9 405.1,692.27 C 405.6,691.73 406.28,691.52 406.99,691.45 L 406.99,690.39 L 405.65,690.39 L 405.65,689.92 C 406.08,689.96 407.15,689.96 407.64,689.96 C 408.13,689.96 409.2,689.96 409.64,689.92 L 409.64,690.39 L 408.3,690.39 L 408.3,691.45 C 409.22,691.53 409.81,691.84 410.16,692.16 C 410.85,692.8 410.89,693.75 410.89,693.88 C 410.89,694.33 410.9,694.95 411.3,695.02 C 411.37,695.03 411.5,695.05 411.5,695.2 C 411.5,695.38 411.33,695.38 411.18,695.38 L 410.47,695.38 C 410.13,695.38 409.59,695.34 409.58,693.96 C 409.57,692.75 409.14,692.09 408.3,691.86 L 408.3,696.29 z"
   style="fill:#000000;stroke-width:0" />
<path
   id="path5336"
   d="M 414.37,699.29 L 414.37,699.3 L 414.37,699.31 L 414.37,699.32 L 414.37,699.33 L 414.37,699.34 L 414.36,699.35 L 414.36,699.36 L 414.36,699.37 L 414.36,699.38 L 414.36,699.39 L 414.36,699.41 L 414.36,699.42 L 414.35,699.43 L 414.35,699.44 L 414.35,699.45 L 414.34,699.46 L 414.34,699.47 L 414.34,699.48 L 414.33,699.49 L 414.32,699.49 L 414.32,699.5 L 414.31,699.51 L 414.3,699.52 L 414.3,699.52 L 414.3,699.52 L 414.29,699.53 L 414.29,699.53 L 414.28,699.53 L 414.28,699.53 L 414.27,699.54 L 414.27,699.54 L 414.26,699.54 L 414.25,699.54 L 414.25,699.54 L 414.24,699.55 L 414.23,699.55 L 414.23,699.55 L 414.22,699.55 L 414.21,699.55 L 414.21,699.55 L 414.2,699.55 C 414.02,699.55 414.02,699.4 414.02,699.29 L 414.02,693.99 C 413.59,694.52 412.97,694.74 412.91,694.74 C 412.84,694.74 412.81,694.67 412.81,694.62 C 412.81,694.52 412.83,694.52 412.96,694.47 C 413.47,694.26 413.83,693.92 414.07,693.49 C 414.13,693.38 414.14,693.36 414.2,693.36 C 414.25,693.36 414.27,693.39 414.32,693.48 C 414.66,694.12 415.17,694.36 415.45,694.47 C 415.56,694.52 415.58,694.52 415.58,694.62 C 415.58,694.67 415.56,694.74 415.48,694.74 C 415.42,694.74 414.8,694.52 414.37,693.99 L 414.37,699.29 z"
   style="fill:#000000;stroke-width:0" />
<path
   id="path5338"
   d="M 417.87,691.2 L 417.87,691.2 L 417.87,691.21 L 417.87,691.21 L 417.87,691.22 L 417.87,691.22 L 417.87,691.23 L 417.87,691.23 L 417.87,691.23 L 417.87,691.24 L 417.87,691.24 L 417.87,691.25 L 417.87,691.25 L 417.87,691.25 L 417.87,691.26 L 417.88,691.26 L 417.88,691.26 L 417.88,691.27 L 417.88,691.27 L 417.88,691.27 L 417.88,691.27 L 417.88,691.28 L 417.88,691.28 L 417.88,691.28 L 417.88,691.29 L 417.88,691.29 L 417.88,691.3 L 417.88,691.3 L 417.88,691.3 L 417.88,691.31 L 417.88,691.31 L 417.88,691.31 L 417.88,691.31 L 417.88,691.31 L 417.88,691.32 L 417.88,691.32 L 417.89,691.32 L 417.89,691.32 L 417.89,691.32 L 417.89,691.33 L 417.89,691.33 C 417.96,691.37 418.31,691.37 418.39,691.37 L 418.62,691.37 L 418.62,691.76 C 418.53,691.76 417.89,691.73 417.63,691.73 C 417.36,691.73 416.7,691.76 416.63,691.76 L 416.63,691.37 L 416.86,691.37 C 416.97,691.37 417.11,691.36 417.21,691.36 C 417.37,691.34 417.38,691.34 417.38,691.2 L 417.38,688.61 C 417.38,687.58 416.54,687.28 415.74,687.28 C 414.43,687.28 414.35,688.08 414.35,688.57 L 414.35,691.37 L 415.1,691.37 L 415.1,691.76 C 414.94,691.75 413.94,691.73 413.83,691.73 C 413.67,691.73 412.71,691.75 412.55,691.76 L 412.55,691.37 L 413.3,691.37 L 413.3,688.59 C 413.3,687.72 414.05,686.89 415.71,686.89 C 417.27,686.89 417.87,687.77 417.87,688.58 L 417.87,691.2 z"
   style="fill:#000000;stroke-width:0" />
</g>    <text
       xml:space="preserve"
       style="font-size:20px;font-style:normal;font-weight:normal;fill:#000000;fill-opacity:1;stroke:none;stroke-width:1px;stroke-linecap:butt;stroke-linejoin:miter;stroke-opacity:1;font-family:Bitstream Vera Sans"
       x="287.7793"
       y="245.30739"
       id="text3224"><tspan
         sodipodi:role="line"
         id="tspan3226"
         x="287.7793"
         y="245.30739">N</tspan></text>
    <text
       xml:space="preserve"
       style="font-size:20px;font-style:normal;font-weight:normal;fill:#000000;fill-opacity:1;stroke:none;stroke-width:1px;stroke-linecap:butt;stroke-linejoin:miter;stroke-opacity:1;font-family:Bitstream Vera Sans"
       x="349.97293"
       y="212.13747"
       id="text3228"><tspan
         sodipodi:role="line"
         id="tspan3230"
         x="349.97293"
         y="212.13747">SO</tspan></text>
  </g>
  <text
     xml:space="preserve"
     style="font-size:40px;font-style:normal;font-weight:normal;fill:#000000;fill-opacity:1;stroke:none;stroke-width:1px;stroke-linecap:butt;stroke-linejoin:miter;stroke-opacity:1;font-family:Bitstream Vera Sans"
     x="0.66580963"
     y="34.821709"
     id="text4054"><tspan
       sodipodi:role="line"
       id="tspan4056"
       x="0.66580963"
       y="34.821709">Lead L</tspan></text>
  <text
     xml:space="preserve"
     style="font-size:40px;font-style:normal;font-weight:normal;fill:#000000;fill-opacity:1;stroke:none;stroke-width:1px;stroke-linecap:butt;stroke-linejoin:miter;stroke-opacity:1;font-family:Bitstream Vera Sans"
     x="421.89575"
     y="34.267578"
     id="text4058"><tspan
       sodipodi:role="line"
       id="tspan4060"
       x="421.89575"
       y="34.267578">Lead R</tspan></text>
  <text
     xml:space="preserve"
     style="font-size:40px;font-style:normal;font-weight:normal;fill:#000000;fill-opacity:1;stroke:none;stroke-width:1px;stroke-linecap:butt;stroke-linejoin:miter;stroke-opacity:1;font-family:Bitstream Vera Sans"
     x="204.89043"
     y="30.390625"
     id="text4062"><tspan
       sodipodi:role="line"
       id="tspan4064"
       x="204.89043"
       y="30.390625">Sample</tspan></text>
</svg>
