<?xml version="1.0" encoding="UTF-8" standalone="no"?>
<!-- Created with Inkscape (http://www.inkscape.org/) -->
<svg
   xmlns:ns0="http://www.iki.fi/pav/software/textext/"
   xmlns:dc="http://purl.org/dc/elements/1.1/"
   xmlns:cc="http://creativecommons.org/ns#"
   xmlns:rdf="http://www.w3.org/1999/02/22-rdf-syntax-ns#"
   xmlns:svg="http://www.w3.org/2000/svg"
   xmlns="http://www.w3.org/2000/svg"
   xmlns:sodipodi="http://sodipodi.sourceforge.net/DTD/sodipodi-0.dtd"
   xmlns:inkscape="http://www.inkscape.org/namespaces/inkscape"
   width="560.77917"
   height="213.11357"
   id="svg2"
   sodipodi:version="0.32"
   inkscape:version="0.46"
   sodipodi:docname="adapting.svg"
   inkscape:output_extension="org.inkscape.output.svg.inkscape"
   version="1.0">
  <sodipodi:namedview
     id="base"
     pagecolor="#ffffff"
     bordercolor="#666666"
     borderopacity="1.0"
     gridtolerance="10000"
     guidetolerance="10"
     objecttolerance="10"
     inkscape:pageopacity="0.0"
     inkscape:pageshadow="2"
     inkscape:zoom="1.9294582"
     inkscape:cx="280.38955"
     inkscape:cy="106.55677"
     inkscape:document-units="px"
     inkscape:current-layer="layer1"
     showgrid="true"
     inkscape:window-width="1156"
     inkscape:window-height="670"
     inkscape:window-x="20"
     inkscape:window-y="92"
     showguides="true"
     inkscape:guide-bbox="true"
     inkscape:snap-global="false">
    <inkscape:grid
       type="xygrid"
       id="grid2444" />
  </sodipodi:namedview>
  <defs
     id="defs4">
    <marker
       inkscape:stockid="Arrow1Lend"
       orient="auto"
       refY="0"
       refX="0"
       id="Arrow1Lend"
       style="overflow:visible">
      <path
         id="path4067"
         d="M 0,0 L 5,-5 L -12.5,0 L 5,5 L 0,0 z"
         style="fill-rule:evenodd;stroke:#000000;stroke-width:1pt;marker-start:none"
         transform="matrix(-0.8,0,0,-0.8,-10,0)" />
    </marker>
    <inkscape:perspective
       id="perspective10"
       inkscape:persp3d-origin="372.04724 : 350.78739 : 1"
       inkscape:vp_z="744.09448 : 526.18109 : 1"
       inkscape:vp_y="0 : 1000 : 0"
       inkscape:vp_x="0 : 526.18109 : 1"
       sodipodi:type="inkscape:persp3d" />
  </defs>
  <metadata
     id="metadata7">
    <rdf:RDF>
      <cc:Work
         rdf:about="">
        <dc:format>image/svg+xml</dc:format>
        <dc:type
           rdf:resource="http://purl.org/dc/dcmitype/StillImage" />
      </cc:Work>
    </rdf:RDF>
  </metadata>
  <g
     id="layer1"
     inkscape:groupmode="layer"
     inkscape:label="Layer 1"
     transform="translate(-46.260727,-104.75305)">
    <path
       style="fill:#d4d4d4;fill-rule:evenodd;stroke:#000000;stroke-width:1px;stroke-linecap:butt;stroke-linejoin:miter;stroke-opacity:1;fill-opacity:1"
       d="M 140,70.52217 L 418.25212,160.24899 L 418.25212,71.623077 L 139.93565,70.586517"
       id="path2446"
       transform="translate(46.260727,104.75305)"
       sodipodi:nodetypes="cccc" />
    <rect
       y="173.54884"
       x="185.47244"
       height="94.769524"
       width="281.86523"
       id="rect2383"
       style="opacity:1;fill:none;fill-opacity:1;fill-rule:evenodd;stroke:#747474;stroke-width:4.4551158;stroke-miterlimit:4;stroke-dasharray:none;stroke-opacity:1" />
    <rect
       y="182.98123"
       x="47.260727"
       height="77.012993"
       width="134.15584"
       id="rect3155"
       style="opacity:1;fill:none;fill-opacity:1;fill-rule:evenodd;stroke:#000000;stroke-width:2;stroke-miterlimit:4;stroke-dasharray:none;stroke-opacity:1" />
    <rect
       y="182.42711"
       x="471.88409"
       height="77.012993"
       width="134.15584"
       id="rect3159"
       style="opacity:1;fill:none;fill-opacity:1;fill-rule:evenodd;stroke:#000000;stroke-width:2;stroke-miterlimit:4;stroke-dasharray:none;stroke-opacity:1" />
    <g
       ns0:preamble="/home/mlenz/.inkscape/textext-preamble.tex"
       ns0:text="\\begin{align*}\n   a C_{++}|\\chi_N^+&gt;\\\\\n   a C_{+-}|\\chi_N^-&gt;\\\\\n   b C_{--}|\\chi_N^-&gt;\\\\\n   b C_{-+}|\\chi_N^+&gt;\\\\\n\\end{align*}\n"
       word-spacing="normal"
       letter-spacing="normal"
       font-size-adjust="none"
       font-stretch="normal"
       font-weight="normal"
       font-variant="normal"
       font-style="normal"
       fill-rule="even-odd"
       stroke-miterlimit="10.433"
       xml:space="preserve"
       transform="matrix(1.320095,0,0,-1.320095,-97.249326,1116.476)"
       id="g3295"
       style="font-style:normal;font-variant:normal;font-weight:normal;font-stretch:normal;letter-spacing:normal;word-spacing:normal;text-anchor:start;fill:none;fill-opacity:1;stroke:#000000;stroke-linecap:butt;stroke-linejoin:miter;stroke-miterlimit:10.43299961;stroke-dasharray:none;stroke-dashoffset:0;stroke-opacity:1">




































</g>    <path
       style="fill:none;fill-rule:evenodd;stroke:#000000;stroke-width:1px;stroke-linecap:butt;stroke-linejoin:miter;marker-end:url(#Arrow1Lend);stroke-opacity:1"
       d="M 49.490432,292.48835 L 589.76686,292.48835"
       id="path3289" />
    <g
       style="font-style:normal;font-variant:normal;font-weight:normal;font-stretch:normal;letter-spacing:normal;word-spacing:normal;text-anchor:start;fill:none;fill-opacity:1;stroke:#000000;stroke-linecap:butt;stroke-linejoin:miter;stroke-miterlimit:10.43299961;stroke-dasharray:none;stroke-dashoffset:0;stroke-opacity:1"
       id="g4894"
       transform="matrix(1.6935024,0,0,-1.6935024,216.1361,1483.247)"
       xml:space="preserve"
       stroke-miterlimit="10.433"
       fill-rule="even-odd"
       font-style="normal"
       font-variant="normal"
       font-weight="normal"
       font-stretch="normal"
       font-size-adjust="none"
       letter-spacing="normal"
       word-spacing="normal"
       ns0:text="$x$"
       ns0:preamble="/home/mlenz/.inkscape/textext-preamble.tex">
<path
   style="fill:#000000;stroke-width:0"
   d="M 226.76,710.13 L 226.77,710.16 L 226.77,710.19 L 226.78,710.22 L 226.79,710.26 L 226.8,710.29 L 226.81,710.34 L 226.83,710.38 L 226.84,710.42 L 226.86,710.47 L 226.87,710.52 L 226.89,710.57 L 226.91,710.62 L 226.94,710.67 L 226.96,710.72 L 226.99,710.77 L 227.01,710.82 L 227.04,710.86 L 227.07,710.91 L 227.11,710.96 L 227.14,711 L 227.18,711.05 L 227.22,711.09 L 227.26,711.12 L 227.31,711.16 L 227.35,711.19 L 227.4,711.22 L 227.43,711.23 L 227.45,711.25 L 227.48,711.26 L 227.51,711.27 L 227.53,711.28 L 227.56,711.28 L 227.59,711.29 L 227.62,711.3 L 227.65,711.3 L 227.68,711.3 L 227.71,711.31 L 227.75,711.31 C 227.8,711.31 228.04,711.31 228.24,711.18 C 227.96,711.13 227.77,710.88 227.77,710.64 C 227.77,710.48 227.88,710.29 228.15,710.29 C 228.36,710.29 228.68,710.47 228.68,710.87 C 228.68,711.39 228.1,711.53 227.76,711.53 C 227.18,711.53 226.83,711 226.71,710.77 C 226.46,711.43 225.92,711.53 225.63,711.53 C 224.6,711.53 224.03,710.24 224.03,709.99 C 224.03,709.89 224.13,709.89 224.15,709.89 C 224.23,709.89 224.26,709.91 224.28,710 C 224.62,711.06 225.28,711.31 225.61,711.31 C 225.8,711.31 226.15,711.22 226.15,710.64 C 226.15,710.33 225.98,709.66 225.61,708.27 C 225.46,707.65 225.11,707.23 224.67,707.23 C 224.61,707.23 224.38,707.23 224.17,707.36 C 224.42,707.41 224.64,707.62 224.64,707.9 C 224.64,708.17 224.42,708.25 224.27,708.25 C 223.97,708.25 223.72,707.99 223.72,707.67 C 223.72,707.21 224.22,707.01 224.66,707.01 C 225.32,707.01 225.67,707.71 225.7,707.77 C 225.82,707.4 226.18,707.01 226.78,707.01 C 227.81,707.01 228.37,708.3 228.37,708.55 C 228.37,708.65 228.28,708.65 228.25,708.65 C 228.16,708.65 228.15,708.61 228.12,708.54 C 227.8,707.47 227.12,707.23 226.8,707.23 C 226.41,707.23 226.25,707.55 226.25,707.89 C 226.25,708.11 226.31,708.33 226.42,708.77 L 226.76,710.13 z"
   id="path4896" />
</g>    <path
       id="path4967"
       d="M 181.61074,285.0436 L 181.61074,299.9331"
       style="fill:none;fill-rule:evenodd;stroke:#000000;stroke-width:1px;stroke-linecap:butt;stroke-linejoin:miter;stroke-opacity:1" />
    <path
       id="path4969"
       d="M 469.99676,285.0436 L 469.99676,299.9331"
       style="fill:none;fill-rule:evenodd;stroke:#000000;stroke-width:1px;stroke-linecap:butt;stroke-linejoin:miter;stroke-opacity:1" />
    <text
       xml:space="preserve"
       style="font-size:20px;font-style:normal;font-weight:normal;fill:#000000;fill-opacity:1;stroke:none;stroke-width:1px;stroke-linecap:butt;stroke-linejoin:miter;stroke-opacity:1;font-family:Bitstream Vera Sans"
       x="287.7793"
       y="245.30739"
       id="text3224"><tspan
         sodipodi:role="line"
         id="tspan3226"
         x="287.7793"
         y="245.30739">N</tspan></text>
    <text
       xml:space="preserve"
       style="font-size:20px;font-style:normal;font-weight:normal;fill:#000000;fill-opacity:1;stroke:none;stroke-width:1px;stroke-linecap:butt;stroke-linejoin:miter;stroke-opacity:1;font-family:Bitstream Vera Sans"
       x="349.97293"
       y="212.13747"
       id="text3228"><tspan
         sodipodi:role="line"
         id="tspan3230"
         x="349.97293"
         y="212.13747">SO</tspan></text>
    <g
       id="g2518"
       transform="matrix(1.6949153,0,0,-1.6949153,-205.78783,1513.8497)"
       xml:space="preserve"
       stroke="black"
       stroke-linecap="butt"
       stroke-linejoin="miter"
       stroke-miterlimit="10.433"
       stroke-dasharray="none"
       stroke-dashoffset="0"
       stroke-opacity="1"
       fill="none"
       fill-rule="even-odd"
       fill-opacity="1"
       font-style="normal"
       font-variant="normal"
       font-weight="normal"
       font-stretch="normal"
       font-size-adjust="none"
       letter-spacing="normal"
       word-spacing="normal"
       text-anchor="start"
       ns0:text="$x_1$"
       ns0:preamble="/home/mlenz/.inkscape/textext-preamble.tex"
       style="font-style:normal;font-variant:normal;font-weight:normal;font-stretch:normal;letter-spacing:normal;word-spacing:normal;text-anchor:start;fill:none;fill-opacity:1;stroke:#000000;stroke-linecap:butt;stroke-linejoin:miter;stroke-miterlimit:10.43299961;stroke-dasharray:none;stroke-dashoffset:0;stroke-opacity:1">
<path
   d="M226.76,710.13 L226.77,710.16 L226.77,710.19 L226.78,710.22 L226.79,710.26 L226.8,710.29 L226.81,710.34 L226.83,710.38 L226.84,710.42 L226.86,710.47 L226.87,710.52 L226.89,710.57 L226.91,710.62 L226.94,710.67 L226.96,710.72 L226.99,710.77 L227.01,710.82 L227.04,710.86 L227.07,710.91 L227.11,710.96 L227.14,711 L227.18,711.05 L227.22,711.09 L227.26,711.12 L227.31,711.16 L227.35,711.19 L227.4,711.22 L227.43,711.23 L227.45,711.25 L227.48,711.26 L227.51,711.27 L227.53,711.28 L227.56,711.28 L227.59,711.29 L227.62,711.3 L227.65,711.3 L227.68,711.3 L227.71,711.31 L227.75,711.31 C227.8,711.31,228.04,711.31,228.24,711.18 C227.96,711.13,227.77,710.88,227.77,710.64 C227.77,710.48,227.88,710.29,228.15,710.29 C228.36,710.29,228.68,710.47,228.68,710.87 C228.68,711.39,228.1,711.53,227.76,711.53 C227.18,711.53,226.83,711,226.71,710.77 C226.46,711.43,225.92,711.53,225.63,711.53 C224.6,711.53,224.03,710.24,224.03,709.99 C224.03,709.89,224.13,709.89,224.15,709.89 C224.23,709.89,224.26,709.91,224.28,710 C224.62,711.06,225.28,711.31,225.61,711.31 C225.8,711.31,226.15,711.22,226.15,710.64 C226.15,710.33,225.98,709.66,225.61,708.27 C225.46,707.65,225.11,707.23,224.67,707.23 C224.61,707.23,224.38,707.23,224.17,707.36 C224.42,707.41,224.64,707.62,224.64,707.9 C224.64,708.17,224.42,708.25,224.27,708.25 C223.97,708.25,223.72,707.99,223.72,707.67 C223.72,707.21,224.22,707.01,224.66,707.01 C225.32,707.01,225.67,707.71,225.7,707.77 C225.82,707.4,226.18,707.01,226.78,707.01 C227.81,707.01,228.37,708.3,228.37,708.55 C228.37,708.65,228.28,708.65,228.25,708.65 C228.16,708.65,228.15,708.61,228.12,708.54 C227.8,707.47,227.12,707.23,226.8,707.23 C226.41,707.23,226.25,707.55,226.25,707.89 C226.25,708.11,226.31,708.33,226.42,708.77 Z "
   stroke-width="0"
   fill="black"
   id="path2520" />
<path
   d="M231.46,710.07 L231.46,710.07 L231.46,710.08 L231.46,710.09 L231.46,710.1 L231.46,710.11 L231.46,710.11 L231.46,710.12 L231.46,710.13 L231.46,710.13 L231.46,710.14 L231.46,710.15 L231.46,710.15 L231.46,710.16 L231.46,710.16 L231.46,710.17 L231.46,710.18 L231.45,710.18 L231.45,710.19 L231.45,710.19 L231.45,710.2 L231.45,710.21 L231.44,710.22 L231.44,710.22 L231.43,710.23 L231.43,710.23 L231.42,710.24 L231.42,710.24 L231.41,710.25 L231.4,710.25 L231.4,710.25 L231.39,710.25 L231.38,710.26 L231.37,710.26 L231.37,710.26 L231.36,710.26 L231.36,710.26 L231.35,710.26 L231.34,710.26 L231.34,710.26 L231.33,710.26 L231.32,710.26 L231.32,710.26 L231.31,710.26 L231.3,710.26 L231.29,710.26 L231.29,710.26 L231.28,710.26 L231.27,710.26 L231.26,710.26 L231.25,710.26 C230.81,709.82,230.17,709.81,229.88,709.81 V709.56 C230.05,709.56,230.51,709.56,230.9,709.76 V706.2 C230.9,705.97,230.9,705.88,230.2,705.88 H229.93 V705.63 C230.06,705.64,230.92,705.66,231.18,705.66 C231.39,705.66,232.27,705.64,232.42,705.63 V705.88 H232.16 C231.46,705.88,231.46,705.97,231.46,706.2 Z "
   stroke-width="0"
   fill="black"
   id="path2522" />
</g>    <g
       style="font-style:normal;font-variant:normal;font-weight:normal;font-stretch:normal;letter-spacing:normal;word-spacing:normal;text-anchor:start;fill:none;fill-opacity:1;stroke:#000000;stroke-linecap:butt;stroke-linejoin:miter;stroke-miterlimit:10.43299961;stroke-dasharray:none;stroke-dashoffset:0;stroke-opacity:1"
       ns0:preamble="/home/mlenz/.inkscape/textext-preamble.tex"
       ns0:text="$x_2$"
       text-anchor="start"
       word-spacing="normal"
       letter-spacing="normal"
       font-size-adjust="none"
       font-stretch="normal"
       font-weight="normal"
       font-variant="normal"
       font-style="normal"
       fill-opacity="1"
       fill-rule="even-odd"
       fill="none"
       stroke-opacity="1"
       stroke-dashoffset="0"
       stroke-dasharray="none"
       stroke-miterlimit="10.433"
       stroke-linejoin="miter"
       stroke-linecap="butt"
       stroke="black"
       xml:space="preserve"
       transform="matrix(1.6556291,0,0,-1.6556291,91.249784,1485.8964)"
       id="g2673">
<path
   id="path2675"
   fill="black"
   stroke-width="0"
   d="M226.76,710.13 L226.77,710.16 L226.77,710.19 L226.78,710.22 L226.79,710.26 L226.8,710.29 L226.81,710.34 L226.83,710.38 L226.84,710.42 L226.86,710.47 L226.87,710.52 L226.89,710.57 L226.91,710.62 L226.94,710.67 L226.96,710.72 L226.99,710.77 L227.01,710.82 L227.04,710.86 L227.07,710.91 L227.11,710.96 L227.14,711 L227.18,711.05 L227.22,711.09 L227.26,711.12 L227.31,711.16 L227.35,711.19 L227.4,711.22 L227.43,711.23 L227.45,711.25 L227.48,711.26 L227.51,711.27 L227.53,711.28 L227.56,711.28 L227.59,711.29 L227.62,711.3 L227.65,711.3 L227.68,711.3 L227.71,711.31 L227.75,711.31 C227.8,711.31,228.04,711.31,228.24,711.18 C227.96,711.13,227.77,710.88,227.77,710.64 C227.77,710.48,227.88,710.29,228.15,710.29 C228.36,710.29,228.68,710.47,228.68,710.87 C228.68,711.39,228.1,711.53,227.76,711.53 C227.18,711.53,226.83,711,226.71,710.77 C226.46,711.43,225.92,711.53,225.63,711.53 C224.6,711.53,224.03,710.24,224.03,709.99 C224.03,709.89,224.13,709.89,224.15,709.89 C224.23,709.89,224.26,709.91,224.28,710 C224.62,711.06,225.28,711.31,225.61,711.31 C225.8,711.31,226.15,711.22,226.15,710.64 C226.15,710.33,225.98,709.66,225.61,708.27 C225.46,707.65,225.11,707.23,224.67,707.23 C224.61,707.23,224.38,707.23,224.17,707.36 C224.42,707.41,224.64,707.62,224.64,707.9 C224.64,708.17,224.42,708.25,224.27,708.25 C223.97,708.25,223.72,707.99,223.72,707.67 C223.72,707.21,224.22,707.01,224.66,707.01 C225.32,707.01,225.67,707.71,225.7,707.77 C225.82,707.4,226.18,707.01,226.78,707.01 C227.81,707.01,228.37,708.3,228.37,708.55 C228.37,708.65,228.28,708.65,228.25,708.65 C228.16,708.65,228.15,708.61,228.12,708.54 C227.8,707.47,227.12,707.23,226.8,707.23 C226.41,707.23,226.25,707.55,226.25,707.89 C226.25,708.11,226.31,708.33,226.42,708.77 Z " />
<path
   id="path2677"
   fill="black"
   stroke-width="0"
   d="M232.65,706.9 H232.41 C232.39,706.75,232.32,706.33,232.23,706.27 C232.17,706.22,231.64,706.22,231.54,706.22 H230.26 C230.99,706.87,231.23,707.07,231.65,707.39 C232.17,707.81,232.65,708.24,232.65,708.9 C232.65,709.74,231.91,710.26,231.01,710.26 C230.15,710.26,229.56,709.65,229.56,709.01 C229.56,708.66,229.86,708.62,229.93,708.62 C230.1,708.62,230.3,708.74,230.3,708.99 C230.3,709.12,230.26,709.36,229.89,709.36 C230.11,709.86,230.58,710.01,230.91,710.01 C231.61,710.01,231.97,709.47,231.97,708.9 C231.97,708.29,231.54,707.81,231.32,707.56 L229.63,705.9 C229.56,705.84,229.56,705.83,229.56,705.63 H232.44 Z " />
</g>    <g
       id="content"
       transform="matrix(1.6085256,0,0,-1.6085256,-482.98807,1366.2672)"
       xml:space="preserve"
       stroke="black"
       stroke-linecap="butt"
       stroke-linejoin="miter"
       stroke-miterlimit="10.433"
       stroke-dasharray="none"
       stroke-dashoffset="0"
       stroke-opacity="1"
       fill="none"
       fill-rule="even-odd"
       fill-opacity="1"
       font-style="normal"
       font-variant="normal"
       font-weight="normal"
       font-stretch="normal"
       font-size-adjust="none"
       letter-spacing="normal"
       word-spacing="normal"
       text-anchor="start"
       ns0:text="\\begin{align*}\n\\mathbf{\\Psi^\\uparrow}\n\\end{align*}"
       ns0:preamble="/home/mlenz/.inkscape/textext-preamble.tex"
       style="font-style:normal;font-variant:normal;font-weight:normal;font-stretch:normal;letter-spacing:normal;word-spacing:normal;text-anchor:start;fill:none;fill-opacity:1;stroke:#000000;stroke-linecap:butt;stroke-linejoin:miter;stroke-miterlimit:10.43299961;stroke-dasharray:none;stroke-dashoffset:0;stroke-opacity:1">
<path
   d="M393.6,713.49 H394.94 V713.96 C394.5,713.93,393.44,713.93,392.95,713.93 C392.46,713.93,391.38,713.93,390.95,713.96 V713.49 H392.29 V709.07 C391.14,709.4,391.11,710.64,391.11,711.27 C391.1,712.15,390.82,712.57,390.22,712.57 H389.5 C389.35,712.57,389.18,712.57,389.18,712.39 C389.18,712.24,389.3,712.22,389.41,712.21 C389.79,712.14,389.8,711.39,389.8,711.34 C389.8,710.99,389.81,710.1,390.4,709.46 C390.9,708.93,391.58,708.72,392.29,708.65 V707.59 H390.95 V707.12 C391.38,707.15,392.45,707.15,392.94,707.15 C393.43,707.15,394.5,707.15,394.94,707.12 V707.59 H393.6 V708.65 C394.52,708.73,395.11,709.03,395.46,709.35 C396.15,710,396.19,710.95,396.19,711.08 C396.19,711.53,396.2,712.14,396.61,712.21 C396.67,712.22,396.8,712.24,396.8,712.39 C396.8,712.57,396.64,712.57,396.48,712.57 H395.77 C395.43,712.57,394.89,712.53,394.88,711.16 C394.87,709.95,394.44,709.28,393.6,709.05 Z "
   stroke-width="0"
   fill="black"
   id="path2518" />
<path
   d="M399.67,715.45 L399.71,715.4 L399.75,715.35 L399.79,715.31 L399.84,715.26 L399.88,715.22 L399.92,715.18 L399.97,715.14 L400.01,715.11 L400.06,715.07 L400.1,715.04 L400.15,715.01 L400.19,714.98 L400.24,714.95 L400.28,714.92 L400.32,714.9 L400.36,714.88 L400.4,714.85 L400.44,714.83 L400.48,714.81 L400.52,714.8 L400.55,714.78 L400.58,714.77 L400.61,714.75 L400.64,714.74 L400.67,714.73 L400.69,714.72 L400.71,714.72 L400.73,714.71 L400.75,714.7 L400.76,714.7 L400.77,714.7 L400.78,714.7 C400.85,714.7,400.88,714.76,400.88,714.82 C400.88,714.91,400.86,714.92,400.73,714.97 C400.18,715.19,399.84,715.54,399.6,716 C399.58,716.04,399.55,716.08,399.5,716.08 C399.46,716.08,399.45,716.07,399.43,716.05 C399.42,716.04,399.42,716.04,399.35,715.91 C399.17,715.59,398.84,715.21,398.24,714.96 C398.13,714.92,398.11,714.91,398.11,714.82 C398.11,714.76,398.13,714.7,398.21,714.7 C398.27,714.7,398.89,714.92,399.32,715.45 V710.15 C399.32,710.05,399.32,709.89,399.49,709.89 C399.67,709.89,399.67,710.04,399.67,710.15 Z "
   stroke-width="0"
   fill="black"
   id="path2521" />
</g>    <g
       style="font-style:normal;font-variant:normal;font-weight:normal;font-stretch:normal;letter-spacing:normal;word-spacing:normal;text-anchor:start;fill:none;fill-opacity:1;stroke:#000000;stroke-linecap:butt;stroke-linejoin:miter;stroke-miterlimit:10.43299961;stroke-dasharray:none;stroke-dashoffset:0;stroke-opacity:1"
       ns0:preamble="/home/mlenz/.inkscape/textext-preamble.tex"
       ns0:text="\\begin{align*}\n  &amp;a \\mathbf{\\Psi^+}\\\\ \n+&amp; b  \\mathbf{\\Psi^-}\n\\end{align*}"
       text-anchor="start"
       word-spacing="normal"
       letter-spacing="normal"
       font-size-adjust="none"
       font-stretch="normal"
       font-weight="normal"
       font-variant="normal"
       font-style="normal"
       fill-opacity="1"
       fill-rule="even-odd"
       fill="none"
       stroke-opacity="1"
       stroke-dashoffset="0"
       stroke-dasharray="none"
       stroke-miterlimit="10.433"
       stroke-linejoin="miter"
       stroke-linecap="butt"
       stroke="black"
       xml:space="preserve"
       transform="matrix(1.6496158,0,0,-1.6496158,-434.06243,1380.7179)"
       id="g2663">
<path
   id="path2665"
   fill="black"
   stroke-width="0"
   d="M392.48,710.89 L392.46,710.92 L392.44,710.96 L392.43,710.99 L392.41,711.02 L392.39,711.05 L392.37,711.08 L392.34,711.11 L392.32,711.14 L392.3,711.17 L392.28,711.2 L392.25,711.23 L392.23,711.25 L392.2,711.28 L392.18,711.3 L392.15,711.32 L392.12,711.35 L392.09,711.37 L392.06,711.39 L392.03,711.4 L392,711.42 L391.97,711.44 L391.94,711.45 L391.9,711.47 L391.87,711.48 L391.83,711.49 L391.8,711.5 L391.76,711.51 L391.72,711.51 L391.68,711.52 L391.64,711.52 L391.6,711.53 L391.56,711.53 L391.57,711.31 C392.22,711.31,392.36,710.49,392.36,710.43 C392.36,710.37,392.34,710.31,392.33,710.26 L391.83,708.31 C391.78,708.13,391.78,708.11,391.63,707.94 C391.19,707.39,390.79,707.23,390.51,707.23 C390.01,707.23,389.87,707.78,389.87,708.17 C389.87,708.67,390.19,709.89,390.42,710.35 C390.73,710.94,391.17,711.31,391.57,711.31 L391.56,711.53 C390.4,711.53,389.16,710.06,389.16,708.61 C389.16,707.67,389.71,707.01,390.49,707.01 C390.68,707.01,391.18,707.05,391.78,707.76 C391.86,707.34,392.21,707.01,392.69,707.01 C393.04,707.01,393.27,707.24,393.42,707.56 C393.59,707.92,393.72,708.53,393.72,708.55 C393.72,708.65,393.63,708.65,393.6,708.65 C393.51,708.65,393.49,708.61,393.46,708.47 C393.3,707.82,393.12,707.23,392.71,707.23 C392.44,707.23,392.41,707.49,392.41,707.69 C392.41,707.91,392.43,707.99,392.54,708.43 C392.65,708.85,392.67,708.95,392.76,709.32 C392.93,709.96,392.97,710.15,393.12,710.72 C393.19,711,393.19,711.02,393.19,711.06 C393.19,711.23,393.07,711.33,392.9,711.33 C392.66,711.33,392.51,711.11,392.48,710.89 Z " />
<path
   id="path2667"
   fill="black"
   stroke-width="0"
   d="M399.09,713.49 H400.43 V713.96 C399.99,713.93,398.93,713.93,398.44,713.93 C397.95,713.93,396.87,713.93,396.44,713.96 V713.49 H397.78 V709.07 C396.64,709.4,396.6,710.64,396.6,711.27 C396.58,712.15,396.31,712.57,395.71,712.57 H394.99 C394.84,712.57,394.67,712.57,394.67,712.39 C394.67,712.24,394.79,712.22,394.9,712.21 C395.28,712.14,395.29,711.39,395.29,711.34 C395.29,710.99,395.3,710.1,395.89,709.46 C396.39,708.93,397.07,708.72,397.78,708.65 V707.59 H396.44 V707.12 C396.87,707.15,397.94,707.15,398.43,707.15 C398.92,707.15,399.99,707.15,400.43,707.12 V707.59 H399.09 V708.65 C400.01,708.73,400.6,709.03,400.95,709.35 C401.64,710,401.68,710.95,401.68,711.08 C401.68,711.53,401.69,712.14,402.1,712.21 C402.16,712.22,402.29,712.24,402.29,712.39 C402.29,712.57,402.12,712.57,401.98,712.57 H401.26 C400.92,712.57,400.38,712.53,400.37,711.16 C400.36,709.95,399.93,709.28,399.09,709.05 Z " />
<path
   id="path2669"
   fill="black"
   stroke-width="0"
   d="M406.17,712.82 H408.31 C408.4,712.82,408.57,712.82,408.57,712.98 C408.57,713.16,408.41,713.16,408.31,713.16 H406.17 V715.3 C406.17,715.39,406.17,715.56,406.01,715.56 C405.83,715.56,405.83,715.4,405.83,715.3 V713.16 H403.69 C403.6,713.16,403.43,713.16,403.43,712.99 C403.43,712.82,403.59,712.82,403.69,712.82 H405.83 V710.67 C405.83,710.58,405.83,710.42,406,710.42 C406.17,710.42,406.17,710.58,406.17,710.67 Z " />
<path
   id="path2671"
   fill="black"
   stroke-width="0"
   d="M385.09,693.42 H387.87 C388.01,693.42,388.2,693.42,388.2,693.62 C388.2,693.82,388.01,693.82,387.87,693.82 H385.09 V696.6 C385.09,696.74,385.09,696.93,384.89,696.93 C384.69,696.93,384.69,696.74,384.69,696.6 V693.82 H381.9 C381.76,693.82,381.57,693.82,381.57,693.62 C381.57,693.42,381.76,693.42,381.9,693.42 H384.69 V690.63 C384.69,690.49,384.69,690.3,384.89,690.3 C385.09,690.3,385.09,690.49,385.09,690.63 Z " />
<path
   id="path2673"
   fill="black"
   stroke-width="0"
   d="M391.14,697.93 L391.14,697.93 L391.14,697.93 L391.14,697.93 L391.14,697.93 L391.14,697.94 L391.14,697.94 L391.14,697.94 L391.14,697.95 L391.14,697.95 L391.14,697.95 L391.14,697.96 L391.14,697.96 L391.14,697.97 L391.14,697.97 L391.13,697.98 L391.13,697.98 L391.13,697.99 L391.12,697.99 L391.12,698 L391.12,698 L391.11,698.01 L391.11,698.01 L391.11,698.01 L391.1,698.01 L391.1,698.02 L391.1,698.02 L391.1,698.02 L391.09,698.02 L391.09,698.02 L391.09,698.02 L391.08,698.03 L391.08,698.03 L391.07,698.03 L391.07,698.03 L391.07,698.03 L391.06,698.03 L391.06,698.03 L391.05,698.04 L391.05,698.04 L391.04,698.04 L391.04,698.04 L391.03,698.04 L391.03,698.04 L391.02,698.04 L391.01,698.04 C390.79,698.04,390.06,697.96,389.8,697.94 C389.72,697.93,389.61,697.92,389.61,697.74 C389.61,697.62,389.7,697.62,389.85,697.62 C390.33,697.62,390.35,697.55,390.35,697.45 C390.35,697.38,390.26,697.04,390.21,696.83 L389.39,693.59 C389.27,693.09,389.23,692.93,389.23,692.58 C389.23,691.63,389.76,691.02,390.5,691.02 V691.23 C390.16,691.23,389.83,691.5,389.83,692.24 C389.83,692.43,389.83,692.62,389.99,693.25 L390.21,694.16 C390.27,694.38,390.27,694.4,390.36,694.51 C390.85,695.16,391.29,695.31,391.55,695.31 C391.91,695.31,392.18,695.01,392.18,694.37 C392.18,693.78,391.85,692.64,391.67,692.26 C391.34,691.59,390.89,691.23,390.5,691.23 V691.02 C391.67,691.02,392.9,692.5,392.9,693.93 C392.9,694.84,392.37,695.53,391.57,695.53 C391.11,695.53,390.7,695.24,390.41,694.93 Z " />
<path
   id="path2676"
   fill="black"
   stroke-width="0"
   d="M398.1,697.49 H399.44 V697.96 C399,697.93,397.94,697.93,397.45,697.93 C396.96,697.93,395.88,697.93,395.45,697.96 V697.49 H396.79 V693.07 C395.64,693.41,395.61,694.64,395.61,695.27 C395.6,696.16,395.32,696.58,394.72,696.58 H394 C393.85,696.58,393.68,696.58,393.68,696.4 C393.68,696.25,393.8,696.23,393.91,696.22 C394.29,696.15,394.3,695.39,394.3,695.34 C394.3,694.99,394.31,694.1,394.9,693.47 C395.4,692.93,396.08,692.72,396.79,692.65 V691.59 H395.45 V691.12 C395.88,691.16,396.95,691.16,397.44,691.16 C397.93,691.16,399,691.16,399.44,691.12 V691.59 H398.1 V692.65 C399.02,692.73,399.61,693.04,399.96,693.36 C400.65,694,400.69,694.95,400.69,695.08 C400.69,695.53,400.7,696.15,401.11,696.22 C401.17,696.23,401.3,696.25,401.3,696.4 C401.3,696.58,401.14,696.58,400.98,696.58 H400.27 C399.93,696.58,399.39,696.53,399.38,695.16 C399.37,693.95,398.94,693.29,398.1,693.06 Z " />
<path
   id="path2678"
   fill="black"
   stroke-width="0"
   d="M407.16,696.81 L407.17,696.81 L407.18,696.81 L407.19,696.81 L407.2,696.81 L407.21,696.81 L407.22,696.81 L407.23,696.81 L407.24,696.81 L407.25,696.81 L407.26,696.82 L407.27,696.82 L407.29,696.82 L407.3,696.82 L407.31,696.82 L407.32,696.83 L407.33,696.83 L407.34,696.84 L407.35,696.84 L407.36,696.85 L407.36,696.85 L407.37,696.86 L407.38,696.87 L407.39,696.87 L407.39,696.88 L407.39,696.88 L407.4,696.89 L407.4,696.89 L407.4,696.9 L407.41,696.9 L407.41,696.91 L407.41,696.91 L407.41,696.92 L407.41,696.92 L407.42,696.93 L407.42,696.94 L407.42,696.94 L407.42,696.95 L407.42,696.96 L407.42,696.96 L407.42,696.97 L407.42,696.98 C407.42,697.15,407.26,697.15,407.16,697.15 H402.97 C402.87,697.15,402.71,697.15,402.71,696.98 C402.71,696.81,402.88,696.81,402.97,696.81 Z " />
</g>    <g
       id="g2816"
       transform="matrix(1.6496158,0,0,-1.6496158,-218.68126,1380.7179)"
       xml:space="preserve"
       stroke-miterlimit="10.433"
       fill-rule="even-odd"
       font-style="normal"
       font-variant="normal"
       font-weight="normal"
       font-stretch="normal"
       font-size-adjust="none"
       letter-spacing="normal"
       word-spacing="normal"
       ns0:text="\\begin{align*}\n  &amp;a \\mathbf{\\Psi^+}\\\\ \n+&amp; b  \\mathbf{\\Psi^-}\n\\end{align*}"
       ns0:preamble="/home/mlenz/.inkscape/textext-preamble.tex"
       style="font-style:normal;font-variant:normal;font-weight:normal;font-stretch:normal;letter-spacing:normal;word-spacing:normal;text-anchor:start;fill:none;fill-opacity:1;stroke:#000000;stroke-linecap:butt;stroke-linejoin:miter;stroke-miterlimit:10.43299961;stroke-dasharray:none;stroke-dashoffset:0;stroke-opacity:1">
<path
   style="fill:#000000;stroke-width:0"
   d="M 392.48,710.89 L 392.46,710.92 L 392.44,710.96 L 392.43,710.99 L 392.41,711.02 L 392.39,711.05 L 392.37,711.08 L 392.34,711.11 L 392.32,711.14 L 392.3,711.17 L 392.28,711.2 L 392.25,711.23 L 392.23,711.25 L 392.2,711.28 L 392.18,711.3 L 392.15,711.32 L 392.12,711.35 L 392.09,711.37 L 392.06,711.39 L 392.03,711.4 L 392,711.42 L 391.97,711.44 L 391.94,711.45 L 391.9,711.47 L 391.87,711.48 L 391.83,711.49 L 391.8,711.5 L 391.76,711.51 L 391.72,711.51 L 391.68,711.52 L 391.64,711.52 L 391.6,711.53 L 391.56,711.53 L 391.57,711.31 C 392.22,711.31 392.36,710.49 392.36,710.43 C 392.36,710.37 392.34,710.31 392.33,710.26 L 391.83,708.31 C 391.78,708.13 391.78,708.11 391.63,707.94 C 391.19,707.39 390.79,707.23 390.51,707.23 C 390.01,707.23 389.87,707.78 389.87,708.17 C 389.87,708.67 390.19,709.89 390.42,710.35 C 390.73,710.94 391.17,711.31 391.57,711.31 L 391.56,711.53 C 390.4,711.53 389.16,710.06 389.16,708.61 C 389.16,707.67 389.71,707.01 390.49,707.01 C 390.68,707.01 391.18,707.05 391.78,707.76 C 391.86,707.34 392.21,707.01 392.69,707.01 C 393.04,707.01 393.27,707.24 393.42,707.56 C 393.59,707.92 393.72,708.53 393.72,708.55 C 393.72,708.65 393.63,708.65 393.6,708.65 C 393.51,708.65 393.49,708.61 393.46,708.47 C 393.3,707.82 393.12,707.23 392.71,707.23 C 392.44,707.23 392.41,707.49 392.41,707.69 C 392.41,707.91 392.43,707.99 392.54,708.43 C 392.65,708.85 392.67,708.95 392.76,709.32 C 392.93,709.96 392.97,710.15 393.12,710.72 C 393.19,711 393.19,711.02 393.19,711.06 C 393.19,711.23 393.07,711.33 392.9,711.33 C 392.66,711.33 392.51,711.11 392.48,710.89 z"
   id="path2818" />
<path
   style="fill:#000000;stroke-width:0"
   d="M 399.09,713.49 L 400.43,713.49 L 400.43,713.96 C 399.99,713.93 398.93,713.93 398.44,713.93 C 397.95,713.93 396.87,713.93 396.44,713.96 L 396.44,713.49 L 397.78,713.49 L 397.78,709.07 C 396.64,709.4 396.6,710.64 396.6,711.27 C 396.58,712.15 396.31,712.57 395.71,712.57 L 394.99,712.57 C 394.84,712.57 394.67,712.57 394.67,712.39 C 394.67,712.24 394.79,712.22 394.9,712.21 C 395.28,712.14 395.29,711.39 395.29,711.34 C 395.29,710.99 395.3,710.1 395.89,709.46 C 396.39,708.93 397.07,708.72 397.78,708.65 L 397.78,707.59 L 396.44,707.59 L 396.44,707.12 C 396.87,707.15 397.94,707.15 398.43,707.15 C 398.92,707.15 399.99,707.15 400.43,707.12 L 400.43,707.59 L 399.09,707.59 L 399.09,708.65 C 400.01,708.73 400.6,709.03 400.95,709.35 C 401.64,710 401.68,710.95 401.68,711.08 C 401.68,711.53 401.69,712.14 402.1,712.21 C 402.16,712.22 402.29,712.24 402.29,712.39 C 402.29,712.57 402.12,712.57 401.98,712.57 L 401.26,712.57 C 400.92,712.57 400.38,712.53 400.37,711.16 C 400.36,709.95 399.93,709.28 399.09,709.05 L 399.09,713.49 z"
   id="path2820" />
<path
   style="fill:#000000;stroke-width:0"
   d="M 406.17,712.82 L 408.31,712.82 C 408.4,712.82 408.57,712.82 408.57,712.98 C 408.57,713.16 408.41,713.16 408.31,713.16 L 406.17,713.16 L 406.17,715.3 C 406.17,715.39 406.17,715.56 406.01,715.56 C 405.83,715.56 405.83,715.4 405.83,715.3 L 405.83,713.16 L 403.69,713.16 C 403.6,713.16 403.43,713.16 403.43,712.99 C 403.43,712.82 403.59,712.82 403.69,712.82 L 405.83,712.82 L 405.83,710.67 C 405.83,710.58 405.83,710.42 406,710.42 C 406.17,710.42 406.17,710.58 406.17,710.67 L 406.17,712.82 z"
   id="path2822" />
<path
   style="fill:#000000;stroke-width:0"
   d="M 385.09,693.42 L 387.87,693.42 C 388.01,693.42 388.2,693.42 388.2,693.62 C 388.2,693.82 388.01,693.82 387.87,693.82 L 385.09,693.82 L 385.09,696.6 C 385.09,696.74 385.09,696.93 384.89,696.93 C 384.69,696.93 384.69,696.74 384.69,696.6 L 384.69,693.82 L 381.9,693.82 C 381.76,693.82 381.57,693.82 381.57,693.62 C 381.57,693.42 381.76,693.42 381.9,693.42 L 384.69,693.42 L 384.69,690.63 C 384.69,690.49 384.69,690.3 384.89,690.3 C 385.09,690.3 385.09,690.49 385.09,690.63 L 385.09,693.42 z"
   id="path2824" />
<path
   style="fill:#000000;stroke-width:0"
   d="M 391.14,697.93 L 391.14,697.93 L 391.14,697.93 L 391.14,697.93 L 391.14,697.93 L 391.14,697.94 L 391.14,697.94 L 391.14,697.94 L 391.14,697.95 L 391.14,697.95 L 391.14,697.95 L 391.14,697.96 L 391.14,697.96 L 391.14,697.97 L 391.14,697.97 L 391.13,697.98 L 391.13,697.98 L 391.13,697.99 L 391.12,697.99 L 391.12,698 L 391.12,698 L 391.11,698.01 L 391.11,698.01 L 391.11,698.01 L 391.1,698.01 L 391.1,698.02 L 391.1,698.02 L 391.1,698.02 L 391.09,698.02 L 391.09,698.02 L 391.09,698.02 L 391.08,698.03 L 391.08,698.03 L 391.07,698.03 L 391.07,698.03 L 391.07,698.03 L 391.06,698.03 L 391.06,698.03 L 391.05,698.04 L 391.05,698.04 L 391.04,698.04 L 391.04,698.04 L 391.03,698.04 L 391.03,698.04 L 391.02,698.04 L 391.01,698.04 C 390.79,698.04 390.06,697.96 389.8,697.94 C 389.72,697.93 389.61,697.92 389.61,697.74 C 389.61,697.62 389.7,697.62 389.85,697.62 C 390.33,697.62 390.35,697.55 390.35,697.45 C 390.35,697.38 390.26,697.04 390.21,696.83 L 389.39,693.59 C 389.27,693.09 389.23,692.93 389.23,692.58 C 389.23,691.63 389.76,691.02 390.5,691.02 L 390.5,691.23 C 390.16,691.23 389.83,691.5 389.83,692.24 C 389.83,692.43 389.83,692.62 389.99,693.25 L 390.21,694.16 C 390.27,694.38 390.27,694.4 390.36,694.51 C 390.85,695.16 391.29,695.31 391.55,695.31 C 391.91,695.31 392.18,695.01 392.18,694.37 C 392.18,693.78 391.85,692.64 391.67,692.26 C 391.34,691.59 390.89,691.23 390.5,691.23 L 390.5,691.02 C 391.67,691.02 392.9,692.5 392.9,693.93 C 392.9,694.84 392.37,695.53 391.57,695.53 C 391.11,695.53 390.7,695.24 390.41,694.93 L 391.14,697.93 z"
   id="path2826" />
<path
   style="fill:#000000;stroke-width:0"
   d="M 398.1,697.49 L 399.44,697.49 L 399.44,697.96 C 399,697.93 397.94,697.93 397.45,697.93 C 396.96,697.93 395.88,697.93 395.45,697.96 L 395.45,697.49 L 396.79,697.49 L 396.79,693.07 C 395.64,693.41 395.61,694.64 395.61,695.27 C 395.6,696.16 395.32,696.58 394.72,696.58 L 394,696.58 C 393.85,696.58 393.68,696.58 393.68,696.4 C 393.68,696.25 393.8,696.23 393.91,696.22 C 394.29,696.15 394.3,695.39 394.3,695.34 C 394.3,694.99 394.31,694.1 394.9,693.47 C 395.4,692.93 396.08,692.72 396.79,692.65 L 396.79,691.59 L 395.45,691.59 L 395.45,691.12 C 395.88,691.16 396.95,691.16 397.44,691.16 C 397.93,691.16 399,691.16 399.44,691.12 L 399.44,691.59 L 398.1,691.59 L 398.1,692.65 C 399.02,692.73 399.61,693.04 399.96,693.36 C 400.65,694 400.69,694.95 400.69,695.08 C 400.69,695.53 400.7,696.15 401.11,696.22 C 401.17,696.23 401.3,696.25 401.3,696.4 C 401.3,696.58 401.14,696.58 400.98,696.58 L 400.27,696.58 C 399.93,696.58 399.39,696.53 399.38,695.16 C 399.37,693.95 398.94,693.29 398.1,693.06 L 398.1,697.49 z"
   id="path2828" />
<path
   style="fill:#000000;stroke-width:0"
   d="M 407.16,696.81 L 407.17,696.81 L 407.18,696.81 L 407.19,696.81 L 407.2,696.81 L 407.21,696.81 L 407.22,696.81 L 407.23,696.81 L 407.24,696.81 L 407.25,696.81 L 407.26,696.82 L 407.27,696.82 L 407.29,696.82 L 407.3,696.82 L 407.31,696.82 L 407.32,696.83 L 407.33,696.83 L 407.34,696.84 L 407.35,696.84 L 407.36,696.85 L 407.36,696.85 L 407.37,696.86 L 407.38,696.87 L 407.39,696.87 L 407.39,696.88 L 407.39,696.88 L 407.4,696.89 L 407.4,696.89 L 407.4,696.9 L 407.41,696.9 L 407.41,696.91 L 407.41,696.91 L 407.41,696.92 L 407.41,696.92 L 407.42,696.93 L 407.42,696.94 L 407.42,696.94 L 407.42,696.95 L 407.42,696.96 L 407.42,696.96 L 407.42,696.97 L 407.42,696.98 C 407.42,697.15 407.26,697.15 407.16,697.15 L 402.97,697.15 C 402.87,697.15 402.71,697.15 402.71,696.98 C 402.71,696.81 402.88,696.81 402.97,696.81 L 407.16,696.81 z"
   id="path2830" />
</g>    <g
       style="font-style:normal;font-variant:normal;font-weight:normal;font-stretch:normal;letter-spacing:normal;word-spacing:normal;text-anchor:start;fill:none;fill-opacity:1;stroke:#000000;stroke-linecap:butt;stroke-linejoin:miter;stroke-miterlimit:10.43299961;stroke-dasharray:none;stroke-dashoffset:0;stroke-opacity:1"
       ns0:preamble="/home/mlenz/.inkscape/textext-preamble.tex"
       ns0:text="\\begin{align*}\n&amp;\\sqrt{T_{\\uparrow\\uparrow}}\\mathbf{\\Psi^\\uparrow}\\\\\n+&amp;\\sqrt{T_{\\downarrow\\uparrow}}\\mathbf{\\Psi^\\downarrow}\n\\end{align*}"
       text-anchor="start"
       word-spacing="normal"
       letter-spacing="normal"
       font-size-adjust="none"
       font-stretch="normal"
       font-weight="normal"
       font-variant="normal"
       font-style="normal"
       fill-opacity="1"
       fill-rule="even-odd"
       fill="none"
       stroke-opacity="1"
       stroke-dashoffset="0"
       stroke-dasharray="none"
       stroke-miterlimit="10.433"
       stroke-linejoin="miter"
       stroke-linecap="butt"
       stroke="black"
       xml:space="preserve"
       transform="matrix(1.6085256,0,0,-1.6085256,-121.67076,1351.2203)"
       id="g2956">
<path
   id="path2958"
   fill="black"
   stroke-width="0"
   d="M384.41,704.06 L384.43,704.06 L384.44,704.06 L384.46,704.06 L384.47,704.06 L384.48,704.06 L384.49,704.06 L384.51,704.06 L384.52,704.06 L384.53,704.06 L384.54,704.06 L384.55,704.06 L384.56,704.07 L384.58,704.07 L384.6,704.07 L384.61,704.07 L384.63,704.07 L384.64,704.07 L384.66,704.08 L384.67,704.08 L384.68,704.08 L384.69,704.09 L384.7,704.09 L384.71,704.1 L384.72,704.1 L384.73,704.11 L384.74,704.12 L384.75,704.12 L384.75,704.13 L384.76,704.14 L384.77,704.15 L384.78,704.16 L384.78,704.17 L384.79,704.19 L384.8,704.2 L384.81,704.21 L384.82,704.23 L384.82,704.25 L384.83,704.26 L390.28,715.64 C390.35,715.77,390.35,715.79,390.35,715.82 C390.35,715.93,390.27,716.02,390.15,716.02 C390.02,716.02,389.98,715.93,389.93,715.82 L384.79,705.1 L382.67,710.04 L381.29,708.97 L381.43,708.82 L382.14,709.35 Z " />
<line
   id="line2960"
   stroke-width="0.398"
   y2="715.82"
   x2="404.64"
   y1="715.82"
   x1="390.16" />
<path
   id="path2962"
   fill="black"
   stroke-width="0"
   d="M394.41,713.17 L394.42,713.2 L394.42,713.22 L394.43,713.24 L394.44,713.26 L394.44,713.29 L394.45,713.31 L394.45,713.32 L394.46,713.34 L394.47,713.36 L394.47,713.37 L394.48,713.39 L394.48,713.4 L394.49,713.41 L394.5,713.43 L394.5,713.44 L394.51,713.45 L394.51,713.46 L394.52,713.47 L394.53,713.47 L394.53,713.48 L394.54,713.49 L394.55,713.5 L394.56,713.5 L394.56,713.51 L394.57,713.51 L394.58,713.52 L394.59,713.52 L394.6,713.53 L394.61,713.53 L394.62,713.53 L394.63,713.54 L394.64,713.54 C394.73,713.56,395.06,713.56,395.27,713.56 C396.27,713.56,396.72,713.52,396.72,712.74 C396.72,712.59,396.68,712.2,396.64,711.94 C396.63,711.91,396.61,711.78,396.61,711.76 C396.61,711.7,396.64,711.63,396.73,711.63 C396.84,711.63,396.86,711.71,396.88,711.85 L397.15,713.59 C397.16,713.63,397.17,713.73,397.17,713.76 C397.17,713.87,397.07,713.87,396.9,713.87 H391.37 C391.13,713.87,391.12,713.86,391.05,713.67 L390.46,711.91 C390.45,711.9,390.4,711.76,390.4,711.73 C390.4,711.67,390.45,711.63,390.52,711.63 C390.62,711.63,390.63,711.67,390.69,711.84 C391.22,713.38,391.48,713.56,392.96,713.56 H393.35 C393.62,713.56,393.62,713.52,393.62,713.44 C393.62,713.38,393.6,713.26,393.58,713.23 L392.25,707.91 C392.16,707.54,392.13,707.43,391.06,707.43 C390.7,707.43,390.65,707.43,390.65,707.24 C390.65,707.12,390.76,707.12,390.82,707.12 C391.08,707.12,391.36,707.14,391.63,707.14 C391.91,707.14,392.2,707.15,392.48,707.15 C392.76,707.15,393.04,707.14,393.31,707.14 C393.6,707.14,393.89,707.12,394.17,707.12 C394.27,707.12,394.39,707.12,394.39,707.32 C394.39,707.43,394.31,707.43,394.05,707.43 C393.8,707.43,393.67,707.43,393.42,707.45 C393.13,707.48,393.05,707.51,393.05,707.67 C393.05,707.68,393.05,707.73,393.09,707.88 Z " />
<path
   id="path2964"
   fill="black"
   stroke-width="0"
   d="M398.19,709.84 L398.23,709.79 L398.27,709.74 L398.31,709.7 L398.36,709.65 L398.4,709.61 L398.45,709.57 L398.49,709.53 L398.54,709.5 L398.58,709.46 L398.63,709.43 L398.67,709.4 L398.71,709.37 L398.76,709.34 L398.8,709.31 L398.84,709.29 L398.88,709.27 L398.92,709.24 L398.96,709.22 L399,709.2 L399.04,709.19 L399.07,709.17 L399.1,709.16 L399.14,709.14 L399.16,709.13 L399.19,709.12 L399.21,709.11 L399.24,709.11 L399.26,709.1 L399.27,709.09 L399.29,709.09 L399.3,709.09 L399.3,709.09 C399.37,709.09,399.4,709.15,399.4,709.21 C399.4,709.3,399.38,709.31,399.26,709.36 C398.7,709.58,398.36,709.93,398.12,710.39 C398.1,710.43,398.08,710.47,398.02,710.47 C397.99,710.47,397.97,710.46,397.95,710.44 C397.94,710.43,397.94,710.43,397.87,710.3 C397.69,709.98,397.36,709.6,396.76,709.35 C396.65,709.31,396.63,709.3,396.63,709.21 C396.63,709.15,396.65,709.09,396.73,709.09 C396.79,709.09,397.41,709.31,397.85,709.84 V704.53 C397.85,704.44,397.85,704.28,398.01,704.28 C398.19,704.28,398.19,704.43,398.19,704.53 Z " />
<path
   id="path2966"
   fill="black"
   stroke-width="0"
   d="M402.27,709.84 L402.31,709.79 L402.35,709.74 L402.39,709.7 L402.44,709.65 L402.48,709.61 L402.53,709.57 L402.57,709.53 L402.62,709.5 L402.66,709.46 L402.71,709.43 L402.75,709.4 L402.79,709.37 L402.84,709.34 L402.88,709.31 L402.92,709.29 L402.96,709.27 L403,709.24 L403.04,709.22 L403.08,709.2 L403.12,709.19 L403.15,709.17 L403.18,709.16 L403.22,709.14 L403.24,709.13 L403.27,709.12 L403.29,709.11 L403.32,709.11 L403.34,709.1 L403.35,709.09 L403.37,709.09 L403.38,709.09 L403.38,709.09 C403.45,709.09,403.48,709.15,403.48,709.21 C403.48,709.3,403.46,709.31,403.33,709.36 C402.78,709.58,402.44,709.93,402.2,710.39 C402.18,710.43,402.16,710.47,402.1,710.47 C402.07,710.47,402.05,710.46,402.03,710.44 C402.02,710.43,402.02,710.43,401.95,710.3 C401.77,709.98,401.45,709.6,400.84,709.35 C400.73,709.31,400.71,709.3,400.71,709.21 C400.71,709.15,400.73,709.09,400.81,709.09 C400.87,709.09,401.49,709.31,401.93,709.84 V704.53 C401.93,704.44,401.93,704.28,402.09,704.28 C402.27,704.28,402.27,704.43,402.27,704.53 Z " />
<path
   id="path2968"
   fill="black"
   stroke-width="0"
   d="M409.69,713.49 H411.04 V713.96 C410.6,713.93,409.53,713.93,409.04,713.93 C408.55,713.93,407.48,713.93,407.04,713.96 V713.49 H408.39 V709.07 C407.24,709.4,407.2,710.64,407.2,711.27 C407.19,712.15,406.91,712.57,406.31,712.57 H405.6 C405.45,712.57,405.28,712.57,405.28,712.39 C405.28,712.24,405.4,712.22,405.51,712.21 C405.89,712.14,405.89,711.39,405.89,711.34 C405.89,710.99,405.9,710.1,406.49,709.46 C406.99,708.93,407.68,708.72,408.39,708.65 V707.59 H407.04 V707.12 C407.48,707.15,408.55,707.15,409.03,707.15 C409.52,707.15,410.6,707.15,411.04,707.12 V707.59 H409.69 V708.65 C410.62,708.73,411.2,709.03,411.55,709.35 C412.24,710,412.28,710.95,412.28,711.08 C412.28,711.53,412.29,712.14,412.7,712.21 C412.77,712.22,412.9,712.24,412.9,712.39 C412.9,712.57,412.73,712.57,412.58,712.57 H411.86 C411.52,712.57,410.99,712.53,410.98,711.16 C410.97,709.95,410.54,709.28,409.69,709.05 Z " />
<path
   id="path2970"
   fill="black"
   stroke-width="0"
   d="M415.76,715.45 L415.8,715.4 L415.84,715.35 L415.89,715.31 L415.93,715.26 L415.97,715.22 L416.02,715.18 L416.06,715.14 L416.11,715.11 L416.15,715.07 L416.2,715.04 L416.24,715.01 L416.29,714.98 L416.33,714.95 L416.37,714.92 L416.42,714.9 L416.46,714.88 L416.5,714.85 L416.54,714.83 L416.57,714.81 L416.61,714.8 L416.64,714.78 L416.68,714.77 L416.71,714.75 L416.74,714.74 L416.76,714.73 L416.79,714.72 L416.81,714.72 L416.83,714.71 L416.85,714.7 L416.86,714.7 L416.87,714.7 L416.88,714.7 C416.95,714.7,416.97,714.76,416.97,714.82 C416.97,714.91,416.95,714.92,416.83,714.97 C416.28,715.19,415.93,715.54,415.69,716 C415.67,716.04,415.65,716.08,415.59,716.08 C415.56,716.08,415.55,716.07,415.52,716.05 C415.52,716.04,415.52,716.04,415.44,715.91 C415.27,715.59,414.94,715.21,414.33,714.96 C414.23,714.92,414.21,714.91,414.21,714.82 C414.21,714.76,414.23,714.7,414.3,714.7 C414.37,714.7,414.99,714.92,415.42,715.45 V710.15 C415.42,710.05,415.42,709.89,415.59,709.89 C415.76,709.89,415.76,710.04,415.76,710.15 Z " />
<path
   id="path2972"
   fill="black"
   stroke-width="0"
   d="M376.52,692.55 H379.3 C379.44,692.55,379.63,692.55,379.63,692.75 C379.63,692.95,379.44,692.95,379.3,692.95 H376.52 V695.74 C376.52,695.88,376.52,696.07,376.32,696.07 C376.12,696.07,376.12,695.88,376.12,695.74 V692.95 H373.33 C373.19,692.95,373,692.95,373,692.75 C373,692.55,373.19,692.55,373.33,692.55 H376.12 V689.76 C376.12,689.62,376.12,689.44,376.32,689.44 C376.52,689.44,376.52,689.62,376.52,689.76 Z " />
<path
   id="path2974"
   fill="black"
   stroke-width="0"
   d="M384.41,687.2 L384.43,687.2 L384.44,687.2 L384.46,687.2 L384.47,687.2 L384.48,687.2 L384.49,687.2 L384.51,687.2 L384.52,687.2 L384.53,687.2 L384.54,687.2 L384.55,687.2 L384.56,687.21 L384.58,687.21 L384.6,687.21 L384.61,687.21 L384.63,687.21 L384.64,687.21 L384.66,687.22 L384.67,687.22 L384.68,687.22 L384.69,687.23 L384.7,687.23 L384.71,687.24 L384.72,687.24 L384.73,687.25 L384.74,687.26 L384.75,687.26 L384.75,687.27 L384.76,687.28 L384.77,687.29 L384.78,687.3 L384.78,687.31 L384.79,687.33 L384.8,687.34 L384.81,687.35 L384.82,687.37 L384.82,687.39 L384.83,687.4 L390.28,698.78 C390.35,698.91,390.35,698.93,390.35,698.96 C390.35,699.07,390.27,699.16,390.15,699.16 C390.02,699.16,389.98,699.07,389.93,698.96 L384.79,688.24 L382.67,693.18 L381.29,692.11 L381.43,691.96 L382.14,692.49 Z " />
<line
   id="line2976"
   stroke-width="0.398"
   y2="698.96"
   x2="404.64"
   y1="698.96"
   x1="390.16" />
<path
   id="path2978"
   fill="black"
   stroke-width="0"
   d="M394.41,696.31 L394.42,696.34 L394.42,696.36 L394.43,696.38 L394.44,696.4 L394.44,696.43 L394.45,696.45 L394.45,696.46 L394.46,696.48 L394.47,696.5 L394.47,696.51 L394.48,696.53 L394.48,696.54 L394.49,696.55 L394.5,696.57 L394.5,696.58 L394.51,696.59 L394.51,696.6 L394.52,696.61 L394.53,696.61 L394.53,696.62 L394.54,696.63 L394.55,696.64 L394.56,696.64 L394.56,696.65 L394.57,696.65 L394.58,696.66 L394.59,696.66 L394.6,696.67 L394.61,696.67 L394.62,696.67 L394.63,696.68 L394.64,696.68 C394.73,696.7,395.06,696.7,395.27,696.7 C396.27,696.7,396.72,696.66,396.72,695.88 C396.72,695.73,396.68,695.34,396.64,695.08 C396.63,695.04,396.61,694.92,396.61,694.9 C396.61,694.84,396.64,694.77,396.73,694.77 C396.84,694.77,396.86,694.84,396.88,694.99 L397.15,696.73 C397.16,696.77,397.17,696.87,397.17,696.9 C397.17,697.01,397.07,697.01,396.9,697.01 H391.37 C391.13,697.01,391.12,697,391.05,696.81 L390.46,695.05 C390.45,695.03,390.4,694.9,390.4,694.88 C390.4,694.82,390.45,694.77,390.52,694.77 C390.62,694.77,390.63,694.82,390.69,694.97 C391.22,696.52,391.48,696.7,392.96,696.7 H393.35 C393.62,696.7,393.62,696.66,393.62,696.58 C393.62,696.52,393.6,696.4,393.58,696.37 L392.25,691.05 C392.16,690.68,392.13,690.57,391.06,690.57 C390.7,690.57,390.65,690.57,390.65,690.38 C390.65,690.26,390.76,690.26,390.82,690.26 C391.08,690.26,391.36,690.28,391.63,690.28 C391.91,690.28,392.2,690.29,392.48,690.29 C392.76,690.29,393.04,690.28,393.31,690.28 C393.6,690.28,393.89,690.26,394.17,690.26 C394.27,690.26,394.39,690.26,394.39,690.46 C394.39,690.57,394.31,690.57,394.05,690.57 C393.8,690.57,393.67,690.57,393.42,690.59 C393.13,690.62,393.05,690.65,393.05,690.81 C393.05,690.82,393.05,690.87,393.09,691.02 Z " />
<path
   id="path2980"
   fill="black"
   stroke-width="0"
   d="M398.19,693.35 L398.19,693.36 L398.19,693.37 L398.19,693.38 L398.19,693.39 L398.19,693.4 L398.19,693.41 L398.19,693.42 L398.19,693.43 L398.18,693.44 L398.18,693.45 L398.18,693.47 L398.18,693.48 L398.18,693.49 L398.17,693.5 L398.17,693.51 L398.17,693.52 L398.16,693.53 L398.16,693.54 L398.15,693.55 L398.15,693.55 L398.14,693.56 L398.13,693.57 L398.13,693.58 L398.12,693.58 L398.12,693.58 L398.11,693.59 L398.11,693.59 L398.1,693.59 L398.1,693.59 L398.09,693.6 L398.09,693.6 L398.08,693.6 L398.08,693.6 L398.07,693.6 L398.06,693.61 L398.06,693.61 L398.05,693.61 L398.04,693.61 L398.04,693.61 L398.03,693.61 L398.02,693.61 C397.85,693.61,397.85,693.46,397.85,693.35 V688.05 C397.41,688.58,396.79,688.8,396.73,688.8 C396.66,688.8,396.63,688.73,396.63,688.68 C396.63,688.58,396.65,688.58,396.78,688.53 C397.29,688.32,397.65,687.98,397.89,687.55 C397.95,687.44,397.96,687.42,398.02,687.42 C398.08,687.42,398.1,687.45,398.15,687.54 C398.48,688.18,399,688.42,399.28,688.53 C399.38,688.58,399.4,688.58,399.4,688.68 C399.4,688.73,399.38,688.8,399.3,688.8 C399.24,688.8,398.62,688.58,398.19,688.05 Z " />
<path
   id="path2982"
   fill="black"
   stroke-width="0"
   d="M402.27,692.97 L402.31,692.93 L402.35,692.88 L402.39,692.84 L402.44,692.79 L402.48,692.75 L402.53,692.71 L402.57,692.67 L402.62,692.64 L402.66,692.6 L402.71,692.57 L402.75,692.54 L402.79,692.51 L402.84,692.48 L402.88,692.45 L402.92,692.43 L402.96,692.41 L403,692.38 L403.04,692.36 L403.08,692.34 L403.12,692.33 L403.15,692.31 L403.18,692.3 L403.22,692.28 L403.24,692.27 L403.27,692.26 L403.29,692.25 L403.32,692.25 L403.34,692.24 L403.35,692.23 L403.37,692.23 L403.38,692.23 L403.38,692.23 C403.45,692.23,403.48,692.29,403.48,692.35 C403.48,692.45,403.46,692.45,403.33,692.5 C402.78,692.72,402.44,693.07,402.2,693.53 C402.18,693.57,402.16,693.61,402.1,693.61 C402.07,693.61,402.05,693.6,402.03,693.58 C402.02,693.58,402.02,693.57,401.95,693.44 C401.77,693.12,401.45,692.74,400.84,692.49 C400.73,692.45,400.71,692.45,400.71,692.35 C400.71,692.29,400.73,692.23,400.81,692.23 C400.87,692.23,401.49,692.45,401.93,692.97 V687.67 C401.93,687.58,401.93,687.42,402.09,687.42 C402.27,687.42,402.27,687.57,402.27,687.67 Z " />
<path
   id="path2984"
   fill="black"
   stroke-width="0"
   d="M409.69,696.63 H411.04 V697.1 C410.6,697.07,409.53,697.07,409.04,697.07 C408.55,697.07,407.48,697.07,407.04,697.1 V696.63 H408.39 V692.21 C407.24,692.54,407.2,693.78,407.2,694.41 C407.19,695.29,406.91,695.71,406.31,695.71 H405.6 C405.45,695.71,405.28,695.71,405.28,695.53 C405.28,695.38,405.4,695.36,405.51,695.35 C405.89,695.28,405.89,694.53,405.89,694.48 C405.89,694.13,405.9,693.24,406.49,692.6 C406.99,692.07,407.68,691.86,408.39,691.79 V690.73 H407.04 V690.26 C407.48,690.29,408.55,690.29,409.03,690.29 C409.52,690.29,410.6,690.29,411.04,690.26 V690.73 H409.69 V691.79 C410.62,691.87,411.2,692.17,411.55,692.49 C412.24,693.14,412.28,694.09,412.28,694.22 C412.28,694.67,412.29,695.28,412.7,695.35 C412.77,695.36,412.9,695.38,412.9,695.53 C412.9,695.71,412.73,695.71,412.58,695.71 H411.86 C411.52,695.71,410.99,695.67,410.98,694.3 C410.97,693.09,410.54,692.42,409.69,692.2 Z " />
<path
   id="path2986"
   fill="black"
   stroke-width="0"
   d="M415.76,698.96 L415.76,698.97 L415.76,698.98 L415.76,698.99 L415.76,699 L415.76,699.01 L415.76,699.02 L415.76,699.03 L415.76,699.04 L415.76,699.05 L415.76,699.06 L415.75,699.08 L415.75,699.09 L415.75,699.1 L415.75,699.11 L415.74,699.12 L415.74,699.13 L415.74,699.14 L415.73,699.15 L415.73,699.16 L415.72,699.16 L415.71,699.17 L415.71,699.18 L415.7,699.19 L415.69,699.19 L415.69,699.19 L415.69,699.2 L415.68,699.2 L415.68,699.2 L415.67,699.2 L415.67,699.21 L415.66,699.21 L415.65,699.21 L415.65,699.21 L415.64,699.21 L415.64,699.22 L415.63,699.22 L415.62,699.22 L415.62,699.22 L415.61,699.22 L415.6,699.22 L415.59,699.22 C415.42,699.22,415.42,699.07,415.42,698.96 V693.66 C414.99,694.18,414.37,694.41,414.3,694.41 C414.23,694.41,414.21,694.34,414.21,694.29 C414.21,694.19,414.23,694.18,414.35,694.14 C414.86,693.93,415.22,693.59,415.46,693.16 C415.52,693.05,415.53,693.03,415.59,693.03 C415.65,693.03,415.67,693.06,415.72,693.15 C416.05,693.79,416.57,694.03,416.85,694.14 C416.95,694.18,416.97,694.19,416.97,694.29 C416.97,694.34,416.95,694.41,416.88,694.41 C416.81,694.41,416.19,694.18,415.76,693.66 Z " />
</g>  </g>
  <text
     xml:space="preserve"
     style="font-size:40px;font-style:normal;font-weight:normal;fill:#000000;fill-opacity:1;stroke:none;stroke-width:1px;stroke-linecap:butt;stroke-linejoin:miter;stroke-opacity:1;font-family:Bitstream Vera Sans"
     x="0.66580963"
     y="34.821709"
     id="text4054"><tspan
       sodipodi:role="line"
       id="tspan4056"
       x="0.66580963"
       y="34.821709">Lead 1</tspan></text>
  <text
     xml:space="preserve"
     style="font-size:40px;font-style:normal;font-weight:normal;fill:#000000;fill-opacity:1;stroke:none;stroke-width:1px;stroke-linecap:butt;stroke-linejoin:miter;stroke-opacity:1;font-family:Bitstream Vera Sans"
     x="421.89575"
     y="34.267578"
     id="text4058"><tspan
       sodipodi:role="line"
       id="tspan4060"
       x="421.89575"
       y="34.267578">Lead 2</tspan></text>
  <text
     xml:space="preserve"
     style="font-size:40px;font-style:normal;font-weight:normal;fill:#000000;fill-opacity:1;stroke:none;stroke-width:1px;stroke-linecap:butt;stroke-linejoin:miter;stroke-opacity:1;font-family:Bitstream Vera Sans"
     x="204.89043"
     y="30.390625"
     id="text4062"><tspan
       sodipodi:role="line"
       id="tspan4064"
       x="204.89043"
       y="30.390625">Sample</tspan></text>
</svg>
