<?xml version="1.0" encoding="UTF-8" standalone="no"?>
<!-- Created with Inkscape (http://www.inkscape.org/) -->
<svg
   xmlns:ns0="http://www.iki.fi/pav/software/textext/"
   xmlns:dc="http://purl.org/dc/elements/1.1/"
   xmlns:cc="http://creativecommons.org/ns#"
   xmlns:rdf="http://www.w3.org/1999/02/22-rdf-syntax-ns#"
   xmlns:svg="http://www.w3.org/2000/svg"
   xmlns="http://www.w3.org/2000/svg"
   xmlns:sodipodi="http://sodipodi.sourceforge.net/DTD/sodipodi-0.dtd"
   xmlns:inkscape="http://www.inkscape.org/namespaces/inkscape"
   width="395.96964"
   height="283.2561"
   id="svg2"
   sodipodi:version="0.32"
   inkscape:version="0.46"
   sodipodi:docname="setup-two-so-regions.svg"
   inkscape:output_extension="org.inkscape.output.svg.inkscape"
   version="1.0">
  <sodipodi:namedview
     id="base"
     pagecolor="#ffffff"
     bordercolor="#666666"
     borderopacity="1.0"
     gridtolerance="10000"
     guidetolerance="10"
     objecttolerance="10"
     inkscape:pageopacity="0.0"
     inkscape:pageshadow="2"
     inkscape:zoom="1.4"
     inkscape:cx="168.09169"
     inkscape:cy="121.39972"
     inkscape:document-units="px"
     inkscape:current-layer="layer1"
     showgrid="false"
     inkscape:window-width="1085"
     inkscape:window-height="891"
     inkscape:window-x="193"
     inkscape:window-y="113" />
  <defs
     id="defs4">
    <inkscape:perspective
       id="perspective10"
       inkscape:persp3d-origin="372.04724 : 350.78739 : 1"
       inkscape:vp_z="744.09448 : 526.18109 : 1"
       inkscape:vp_y="0 : 1000 : 0"
       inkscape:vp_x="0 : 526.18109 : 1"
       sodipodi:type="inkscape:persp3d" />
  </defs>
  <metadata
     id="metadata7">
    <rdf:RDF>
      <cc:Work
         rdf:about="">
        <dc:format>image/svg+xml</dc:format>
        <dc:type
           rdf:resource="http://purl.org/dc/dcmitype/StillImage" />
      </cc:Work>
    </rdf:RDF>
  </metadata>
  <g
     id="layer1"
     inkscape:groupmode="layer"
     inkscape:label="Layer 1"
     transform="translate(-107.58632,-95.505131)">
    <g
       id="g5986">
      <path
         style="fill:none;fill-rule:evenodd;stroke:#000000;stroke-width:1;stroke-linecap:butt;stroke-linejoin:miter;stroke-miterlimit:4;stroke-dasharray:1, 1;stroke-dashoffset:0;stroke-opacity:1"
         d="M 108.08632,236.6281 L 404.06102,236.6281 L 503.05597,237.63825"
         id="path2383" />
      <path
         style="fill:none;fill-rule:evenodd;stroke:#000000;stroke-width:0.71534795;stroke-linecap:butt;stroke-linejoin:miter;stroke-miterlimit:4;stroke-dasharray:0.71534797, 0.71534797;stroke-dashoffset:0;stroke-opacity:1"
         d="M 305.68225,95.862805 L 305.68225,307.58772 L 304.95964,378.40355"
         id="path3155" />
    </g>
    <g
       transform="matrix(-0.170924,-0.2960491,0.8115767,-0.468564,0.9920758,438.6628)"
       id="g3165">
      <path
         sodipodi:type="star"
         style="stroke-width:1;stroke-miterlimit:4;stroke-dasharray:1, 1;stroke-dashoffset:0"
         id="path3161"
         sodipodi:sides="3"
         sodipodi:cx="60.609154"
         sodipodi:cy="377.58029"
         sodipodi:r1="14.178167"
         sodipodi:r2="7.0890832"
         sodipodi:arg1="0"
         sodipodi:arg2="1.0471976"
         inkscape:flatsided="true"
         inkscape:rounded="0"
         inkscape:randomized="0"
         d="M 74.787321,377.58029 L 53.52007,389.85894 L 53.52007,365.30164 L 74.787321,377.58029 z"
         transform="matrix(0,1,-1,0,441.73404,314.70284)" />
      <rect
         style="stroke-width:1;stroke-miterlimit:4;stroke-dasharray:1, 1;stroke-dashoffset:0"
         id="rect3163"
         width="10.101525"
         height="139.40105"
         x="59.102985"
         y="228.82176" />
    </g>
    <g
       id="g3257">
      <path
         sodipodi:type="star"
         style="fill:#ff0000;fill-opacity:1;stroke:#fd0000;stroke-width:1;stroke-miterlimit:4;stroke-dasharray:1, 1;stroke-dashoffset:0;stroke-opacity:1"
         id="path3177"
         sodipodi:sides="3"
         sodipodi:cx="60.609154"
         sodipodi:cy="377.58029"
         sodipodi:r1="14.178167"
         sodipodi:r2="7.0890832"
         sodipodi:arg1="0"
         sodipodi:arg2="1.0471976"
         inkscape:flatsided="true"
         inkscape:rounded="0"
         inkscape:randomized="0"
         d="M 74.787321,377.58029 L 53.52007,389.85894 L 53.52007,365.30164 L 74.787321,377.58029 z"
         transform="matrix(0.5389814,-0.5389814,0.1966111,0.1966111,278.37546,115.78642)" />
      <rect
         style="fill:#ff0000;fill-opacity:1;stroke:#fd0000;stroke-width:0.46036881;stroke-miterlimit:4;stroke-dasharray:none;stroke-dashoffset:0;stroke-opacity:1"
         id="rect3179"
         width="2.8087299"
         height="106.25633"
         x="-385.10513"
         y="49.506268"
         transform="matrix(-0.7071068,-0.7071068,0.7071068,-0.7071068,0,0)" />
    </g>
    <g
       id="g3261">
      <path
         sodipodi:type="star"
         style="fill:#0000ff;fill-opacity:1;stroke:#0000ff;stroke-width:1;stroke-miterlimit:4;stroke-dasharray:1, 1;stroke-dashoffset:0;stroke-opacity:1"
         id="path3183"
         sodipodi:sides="3"
         sodipodi:cx="60.609154"
         sodipodi:cy="377.58029"
         sodipodi:r1="14.178167"
         sodipodi:r2="7.0890832"
         sodipodi:arg1="0"
         sodipodi:arg2="1.0471976"
         inkscape:flatsided="true"
         inkscape:rounded="0"
         inkscape:randomized="0"
         d="M 74.787321,377.58029 L 53.52007,389.85894 L 53.52007,365.30164 L 74.787321,377.58029 z"
         transform="matrix(0.9075525,-0.4344146,0.1584669,0.3310594,323.82863,73.496685)" />
      <rect
         style="fill:#0000ff;fill-opacity:1;stroke:#0000ff;stroke-width:0.60799998;stroke-miterlimit:4;stroke-dasharray:none;stroke-dashoffset:0;stroke-opacity:1"
         id="rect3185"
         width="3.7075775"
         height="140.26042"
         x="-346.54501"
         y="173.94788"
         transform="matrix(-0.4317529,-0.9019919,0.9019919,-0.4317529,0,0)" />
    </g>
    <g
       transform="matrix(1.573764,0,0,1.573764,-177.46866,-135.94915)"
       id="g3247">
      <path
         sodipodi:type="arc"
         style="fill:none;fill-opacity:1;stroke:#000000;stroke-width:1;stroke-miterlimit:4;stroke-dasharray:none;stroke-dashoffset:0;stroke-opacity:1"
         id="path3209"
         sodipodi:cx="306.07623"
         sodipodi:cy="236.664"
         sodipodi:rx="37.375645"
         sodipodi:ry="37.375645"
         d="M 274.83619,257.18225 A 37.375645,37.375645 0 0 1 268.78108,239.11556"
         transform="matrix(0.9989964,4.4790381e-2,-4.4790381e-2,0.9989964,10.907442,-13.471751)"
         sodipodi:start="2.5604567"
         sodipodi:end="3.075953"
         sodipodi:open="true" />
      <path
         sodipodi:type="star"
         style="fill:#000000;fill-opacity:1;stroke:#000000;stroke-width:0.5;stroke-miterlimit:4;stroke-dasharray:none;stroke-dashoffset:0;stroke-opacity:1"
         id="path3211"
         sodipodi:sides="3"
         sodipodi:cx="259.28571"
         sodipodi:cy="252.71931"
         sodipodi:r1="0.64384842"
         sodipodi:r2="0.32192421"
         sodipodi:arg1="0.98279372"
         sodipodi:arg2="2.0299913"
         inkscape:flatsided="true"
         inkscape:rounded="0"
         inkscape:randomized="0"
         d="M 259.64285,253.25503 L 258.64319,252.76075 L 259.57108,252.14216 L 259.64285,253.25503 z"
         transform="matrix(1.8611748,0,0,1.8611748,-209.86294,-217.04048)" />
    </g>
    <path
       transform="matrix(2.6033716,0,0,2.9567588,-490.37508,-459.82256)"
       sodipodi:open="true"
       sodipodi:end="5.4279125"
       sodipodi:start="4.6800022"
       d="M 305.76937,217.01571 A 20.357143,20.357143 0 0 1 319.7831,221.99763"
       sodipodi:ry="20.357143"
       sodipodi:rx="20.357143"
       sodipodi:cy="237.36218"
       sodipodi:cx="306.42856"
       id="path3225"
       style="fill:none;fill-opacity:1;stroke:#000000;stroke-width:1;stroke-miterlimit:4;stroke-dasharray:none;stroke-dashoffset:0;stroke-opacity:1"
       sodipodi:type="arc" />
    <path
       transform="matrix(4.2569647,-1.6942942,1.6942942,4.2569647,-1190.8627,-440.61823)"
       d="M 259.64285,253.25503 L 258.64319,252.76075 L 259.57108,252.14216 L 259.64285,253.25503 z"
       inkscape:randomized="0"
       inkscape:rounded="0"
       inkscape:flatsided="true"
       sodipodi:arg2="2.0299913"
       sodipodi:arg1="0.98279372"
       sodipodi:r2="0.32192421"
       sodipodi:r1="0.64384842"
       sodipodi:cy="252.71931"
       sodipodi:cx="259.28571"
       sodipodi:sides="3"
       id="path3231"
       style="fill:#000000;fill-opacity:1;stroke:#000000;stroke-width:0.5;stroke-miterlimit:4;stroke-dasharray:none;stroke-dashoffset:0;stroke-opacity:1"
       sodipodi:type="star" />
    <g
       id="g3239"
       transform="matrix(2.7156908,0,0,2.7156908,-523.26411,-404.85584)">
      <path
         sodipodi:type="arc"
         style="fill:none;fill-opacity:1;stroke:#000000;stroke-width:1;stroke-miterlimit:4;stroke-dasharray:none;stroke-dashoffset:0;stroke-opacity:1"
         id="path3235"
         sodipodi:cx="306.07144"
         sodipodi:cy="236.64789"
         sodipodi:rx="24.464285"
         sodipodi:ry="24.464285"
         d="M 305.27926,212.19643 A 24.464285,24.464285 0 0 1 327.24141,224.38683"
         sodipodi:start="4.6800022"
         sodipodi:end="5.758221"
         sodipodi:open="true" />
      <path
         sodipodi:type="star"
         style="fill:#000000;fill-opacity:1;stroke:#000000;stroke-width:0.5;stroke-miterlimit:4;stroke-dasharray:none;stroke-dashoffset:0;stroke-opacity:1"
         id="path3237"
         sodipodi:sides="3"
         sodipodi:cx="259.28571"
         sodipodi:cy="252.71931"
         sodipodi:r1="0.64384842"
         sodipodi:r2="0.32192421"
         sodipodi:arg1="0.98279372"
         sodipodi:arg2="2.0299913"
         inkscape:flatsided="true"
         inkscape:rounded="0"
         inkscape:randomized="0"
         d="M 259.64285,253.25503 L 258.64319,252.76075 L 259.57108,252.14216 L 259.64285,253.25503 z"
         transform="matrix(1.8590333,8.9256964e-2,-8.9256964e-2,1.8590333,-132.9192,-269.6264)" />
    </g>
    <text
       id="text3513"
       y="235.93361"
       x="491.42856"
       style="font-size:14px;font-style:normal;font-weight:normal;fill:#000000;fill-opacity:1;stroke:none;stroke-width:1px;stroke-linecap:butt;stroke-linejoin:miter;stroke-opacity:1;font-family:Bitstream Vera Sans"
       xml:space="preserve"><tspan
         y="235.93361"
         x="491.42856"
         id="tspan3515"
         sodipodi:role="line">x</tspan></text>
    <text
       id="text3517"
       y="103.79075"
       x="313.57144"
       style="font-size:14px;font-style:normal;font-weight:normal;fill:#000000;fill-opacity:1;stroke:none;stroke-width:1px;stroke-linecap:butt;stroke-linejoin:miter;stroke-opacity:1;font-family:Bitstream Vera Sans"
       xml:space="preserve"><tspan
         y="103.79075"
         x="313.57144"
         id="tspan3519"
         sodipodi:role="line">z</tspan></text>
    <g
       style="font-style:normal;font-variant:normal;font-weight:normal;font-stretch:normal;letter-spacing:normal;word-spacing:normal;text-anchor:start;fill:none;fill-opacity:1;stroke:#000000;stroke-linecap:butt;stroke-linejoin:miter;stroke-miterlimit:10.43299961;stroke-dasharray:none;stroke-dashoffset:0;stroke-opacity:1"
       ns0:preamble=""
       ns0:text="$\\varphi_+$"
       word-spacing="normal"
       letter-spacing="normal"
       font-size-adjust="none"
       font-stretch="normal"
       font-weight="normal"
       font-variant="normal"
       font-style="normal"
       fill-rule="even-odd"
       stroke-miterlimit="10.433"
       xml:space="preserve"
       transform="matrix(1.5197568,0,0,-1.5197568,-83.14647,1322.9304)"
       id="content">
<path
   id="path3584"
   d="M 225.13,705.43 L 225.12,705.42 L 225.12,705.42 L 225.12,705.41 L 225.12,705.41 L 225.12,705.4 L 225.12,705.4 L 225.11,705.39 L 225.11,705.38 L 225.11,705.37 L 225.1,705.36 L 225.1,705.35 L 225.1,705.34 L 225.1,705.34 L 225.09,705.33 L 225.09,705.32 L 225.09,705.32 L 225.09,705.31 L 225.09,705.3 L 225.09,705.3 L 225.08,705.29 L 225.08,705.29 L 225.08,705.28 L 225.08,705.28 L 225.08,705.28 L 225.08,705.27 L 225.08,705.26 L 225.08,705.26 L 225.08,705.25 L 225.08,705.24 L 225.08,705.23 L 225.08,705.23 C 225.08,705.01 225.27,704.95 225.37,704.95 C 225.41,704.95 225.63,704.98 225.73,705.21 C 225.76,705.29 225.81,705.62 226.08,707.03 C 226.17,707.02 226.24,707.01 226.41,707.01 C 228.07,707.01 229.6,708.58 229.6,710.15 L 229.32,709.93 C 229.32,708.81 228.04,707.59 226.5,707.59 L 226.5,707.59 C 226.42,707.59 226.4,707.59 226.32,707.6 C 226.2,707.6 226.19,707.61 226.19,707.64 C 226.19,707.66 226.36,708.57 226.39,708.72 C 226.7,709.99 227.48,710.95 228.36,710.95 C 229.05,710.95 229.32,710.41 229.32,709.93 L 229.6,710.15 C 229.6,710.93 229.21,711.53 228.46,711.53 C 227.02,711.53 226.42,709.59 225.82,707.65 C 224.75,707.85 224.19,708.41 224.19,709.12 C 224.19,709.4 224.42,710.5 225.02,711.19 C 225.1,711.28 225.1,711.3 225.1,711.32 C 225.1,711.36 225.08,711.42 224.98,711.42 C 224.7,711.42 223.93,709.97 223.93,709.02 C 223.93,708.08 224.59,707.35 225.65,707.1 L 225.13,705.43 z"
   style="fill:#000000;stroke-width:0" />
<path
   id="path3586"
   d="M 233.18,707.21 L 235.31,707.21 C 235.4,707.21 235.57,707.21 235.57,707.37 C 235.57,707.55 235.41,707.55 235.31,707.55 L 233.18,707.55 L 233.18,709.69 C 233.18,709.78 233.18,709.95 233.01,709.95 C 232.84,709.95 232.84,709.79 232.84,709.69 L 232.84,707.55 L 230.7,707.55 C 230.61,707.55 230.44,707.55 230.44,707.38 C 230.44,707.21 230.6,707.21 230.7,707.21 L 232.84,707.21 L 232.84,705.07 C 232.84,704.97 232.84,704.81 233.01,704.81 C 233.18,704.81 233.18,704.97 233.18,705.07 L 233.18,707.21 z"
   style="fill:#000000;stroke-width:0" />
</g>    <g
       id="g3661"
       transform="matrix(1.2437811,0,0,-1.2437811,32.58957,1080.8924)"
       xml:space="preserve"
       stroke-miterlimit="10.433"
       fill-rule="even-odd"
       font-style="normal"
       font-variant="normal"
       font-weight="normal"
       font-stretch="normal"
       font-size-adjust="none"
       letter-spacing="normal"
       word-spacing="normal"
       ns0:text="$\\theta^+_+$"
       ns0:preamble=""
       style="font-style:normal;font-variant:normal;font-weight:normal;font-stretch:normal;letter-spacing:normal;word-spacing:normal;text-anchor:start;fill:none;fill-opacity:1;stroke:#000000;stroke-linecap:butt;stroke-linejoin:miter;stroke-miterlimit:10.43299961;stroke-dasharray:none;stroke-dashoffset:0;stroke-opacity:1">
<path
   d="M 227.96,712.1 L 227.96,712.17 L 227.96,712.24 L 227.96,712.31 L 227.96,712.38 L 227.95,712.46 L 227.94,712.54 L 227.93,712.62 L 227.92,712.7 L 227.91,712.78 L 227.89,712.87 L 227.87,712.95 L 227.85,713.04 L 227.83,713.12 L 227.81,713.21 L 227.78,713.29 L 227.75,713.37 L 227.71,713.45 L 227.68,713.53 L 227.64,713.6 L 227.59,713.67 L 227.55,713.74 L 227.5,713.8 L 227.44,713.86 L 227.39,713.92 L 227.32,713.97 L 227.29,713.99 L 227.26,714.01 L 227.22,714.03 L 227.19,714.05 L 227.15,714.07 L 227.11,714.09 L 227.07,714.1 L 227.03,714.11 L 226.99,714.12 L 226.95,714.13 L 226.91,714.14 L 226.86,714.14 L 226.82,714.14 L 226.77,714.15 L 226.76,713.93 C 227.25,713.93 227.31,713.29 227.31,712.72 C 227.31,712.23 227.23,711.72 226.99,710.74 L 224.91,710.74 C 225.08,711.38 225.28,712.17 225.67,712.88 C 225.94,713.37 226.31,713.93 226.76,713.93 L 226.77,714.15 C 225.38,714.15 223.85,711.34 223.85,709.05 C 223.85,708.12 224.14,707.01 225.05,707.01 L 225.05,707.23 C 224.72,707.23 224.51,707.52 224.51,708.45 C 224.51,708.87 224.57,709.44 224.83,710.42 L 226.9,710.42 C 226.79,709.96 226.58,709.11 226.2,708.4 C 225.85,707.72 225.48,707.23 225.05,707.23 L 225.05,707.01 C 226.45,707.01 227.96,709.87 227.96,712.1 z"
   id="path3663"
   style="fill:#000000;stroke-width:0" />
<path
   d="M 231.61,712.97 L 233.74,712.97 C 233.84,712.97 234,712.97 234,713.13 C 234,713.31 233.84,713.31 233.74,713.31 L 231.61,713.31 L 231.61,715.45 C 231.61,715.54 231.61,715.71 231.44,715.71 C 231.27,715.71 231.27,715.55 231.27,715.45 L 231.27,713.31 L 229.13,713.31 C 229.04,713.31 228.87,713.31 228.87,713.14 C 228.87,712.97 229.03,712.97 229.13,712.97 L 231.27,712.97 L 231.27,710.83 C 231.27,710.73 231.27,710.57 231.44,710.57 C 231.61,710.57 231.61,710.73 231.61,710.83 L 231.61,712.97 z"
   id="path3665"
   style="fill:#000000;stroke-width:0" />
<path
   d="M 231.34,706.22 L 233.48,706.22 C 233.57,706.22 233.73,706.22 233.73,706.39 C 233.73,706.57 233.57,706.57 233.48,706.57 L 231.34,706.57 L 231.34,708.71 C 231.34,708.8 231.34,708.96 231.17,708.96 C 231,708.96 231,708.8 231,708.71 L 231,706.57 L 228.86,706.57 C 228.77,706.57 228.6,706.57 228.6,706.4 C 228.6,706.22 228.76,706.22 228.86,706.22 L 231,706.22 L 231,704.08 C 231,703.99 231,703.83 231.17,703.83 C 231.34,703.83 231.34,703.98 231.34,704.08 L 231.34,706.22 z"
   id="path3667"
   style="fill:#000000;stroke-width:0" />
</g>    <g
       transform="matrix(-7.9422503e-2,-0.2964088,0.812563,-0.2177255,-6.5673199,341.35539)"
       id="g3791"
       style="opacity:0.56250000000000000;fill:#a6a6a6;fill-opacity:1;stroke:#a6a6a6;stroke-width:0.99984672;stroke-miterlimit:4;stroke-dasharray:none;stroke-opacity:1">
      <path
         sodipodi:type="star"
         style="fill:#a6a6a6;fill-opacity:1;stroke:#a6a6a6;stroke-width:0.99984672;stroke-miterlimit:4;stroke-dasharray:none;stroke-dashoffset:0;stroke-opacity:1"
         id="path3793"
         sodipodi:sides="3"
         sodipodi:cx="60.609154"
         sodipodi:cy="377.58029"
         sodipodi:r1="14.178167"
         sodipodi:r2="7.0890832"
         sodipodi:arg1="0"
         sodipodi:arg2="1.0471976"
         inkscape:flatsided="true"
         inkscape:rounded="0"
         inkscape:randomized="0"
         d="M 74.787321,377.58029 L 53.52007,389.85894 L 53.52007,365.30164 L 74.787321,377.58029 z"
         transform="matrix(0,1,-1,0,441.73404,314.70284)" />
      <rect
         style="fill:#a6a6a6;fill-opacity:1;stroke:#a6a6a6;stroke-width:0.99984672;stroke-miterlimit:4;stroke-dasharray:none;stroke-dashoffset:0;stroke-opacity:1"
         id="rect3795"
         width="10.101525"
         height="139.40105"
         x="59.102985"
         y="228.82176" />
    </g>
    <g
       style="opacity:0.5625;fill:#ff7463;fill-opacity:1;stroke:#a6a6a6;stroke-width:0.9998467;stroke-miterlimit:4;stroke-dasharray:none;stroke-opacity:1"
       id="g5239"
       transform="matrix(-9.6651546e-2,-0.2594073,0.7111285,-0.2649566,148.77467,314.05798)">
      <path
         sodipodi:type="star"
         style="fill:#ff7463;fill-opacity:1;stroke:#a6a6a6;stroke-width:0.9998467;stroke-miterlimit:4;stroke-dasharray:none;stroke-dashoffset:0;stroke-opacity:1"
         id="path5235"
         sodipodi:sides="3"
         sodipodi:cx="60.609154"
         sodipodi:cy="377.58029"
         sodipodi:r1="14.178167"
         sodipodi:r2="7.0890832"
         sodipodi:arg1="0"
         sodipodi:arg2="1.0471976"
         inkscape:flatsided="true"
         inkscape:rounded="0"
         inkscape:randomized="0"
         d="M 74.787321,377.58029 L 53.52007,389.85894 L 53.52007,365.30164 L 74.787321,377.58029 z"
         transform="matrix(0,1,-1,0,441.73404,314.70284)" />
      <rect
         style="fill:#ff7463;fill-opacity:1;stroke:#a6a6a6;stroke-width:0.9998467;stroke-miterlimit:4;stroke-dasharray:none;stroke-dashoffset:0;stroke-opacity:1"
         id="rect5237"
         width="10.101525"
         height="139.40105"
         x="59.102985"
         y="228.82176" />
    </g>
    <g
       transform="matrix(-6.495111e-2,-0.3192398,0.875151,-0.1780542,108.81974,296.98831)"
       style="opacity:0.31640625;fill:#7674ff;fill-opacity:1;stroke:#a6a6a6;stroke-width:0.9998467;stroke-miterlimit:4;stroke-dasharray:none;stroke-opacity:1"
       id="g5243">
      <path
         sodipodi:type="star"
         style="fill:#7674ff;fill-opacity:1;stroke:#a6a6a6;stroke-width:0.9998467;stroke-miterlimit:4;stroke-dasharray:none;stroke-dashoffset:0;stroke-opacity:1"
         id="path5245"
         sodipodi:sides="3"
         sodipodi:cx="60.609154"
         sodipodi:cy="377.58029"
         sodipodi:r1="14.178167"
         sodipodi:r2="7.0890832"
         sodipodi:arg1="0"
         sodipodi:arg2="1.0471976"
         inkscape:flatsided="true"
         inkscape:rounded="0"
         inkscape:randomized="0"
         d="M 74.787321,377.58029 L 53.52007,389.85894 L 53.52007,365.30164 L 74.787321,377.58029 z"
         transform="matrix(0,1,-1,0,441.73404,314.70284)" />
      <rect
         style="fill:#7674ff;fill-opacity:1;stroke:#a6a6a6;stroke-width:0.9998467;stroke-miterlimit:4;stroke-dasharray:none;stroke-dashoffset:0;stroke-opacity:1"
         id="rect5247"
         width="10.101525"
         height="139.40105"
         x="59.102985"
         y="228.82176" />
    </g>
    <g
       id="g5306"
       transform="matrix(1.5197568,0,0,-1.5197568,-170.5927,1335.7512)"
       xml:space="preserve"
       stroke-miterlimit="10.433"
       fill-rule="even-odd"
       font-style="normal"
       font-variant="normal"
       font-weight="normal"
       font-stretch="normal"
       font-size-adjust="none"
       letter-spacing="normal"
       word-spacing="normal"
       ns0:text="$\\varphi_-$"
       ns0:preamble=""
       style="font-style:normal;font-variant:normal;font-weight:normal;font-stretch:normal;letter-spacing:normal;word-spacing:normal;text-anchor:start;fill:none;fill-opacity:1;stroke:#000000;stroke-linecap:butt;stroke-linejoin:miter;stroke-miterlimit:10.43299961;stroke-dasharray:none;stroke-dashoffset:0;stroke-opacity:1">
<path
   d="M 225.13,705.43 L 225.12,705.42 L 225.12,705.42 L 225.12,705.41 L 225.12,705.41 L 225.12,705.4 L 225.12,705.4 L 225.11,705.39 L 225.11,705.38 L 225.11,705.37 L 225.1,705.36 L 225.1,705.35 L 225.1,705.34 L 225.1,705.34 L 225.09,705.33 L 225.09,705.32 L 225.09,705.32 L 225.09,705.31 L 225.09,705.3 L 225.09,705.3 L 225.08,705.29 L 225.08,705.29 L 225.08,705.28 L 225.08,705.28 L 225.08,705.28 L 225.08,705.27 L 225.08,705.26 L 225.08,705.26 L 225.08,705.25 L 225.08,705.24 L 225.08,705.23 L 225.08,705.23 C 225.08,705.01 225.27,704.95 225.37,704.95 C 225.41,704.95 225.63,704.98 225.73,705.21 C 225.76,705.29 225.81,705.62 226.08,707.03 C 226.17,707.02 226.24,707.01 226.41,707.01 C 228.07,707.01 229.6,708.58 229.6,710.15 L 229.32,709.93 C 229.32,708.81 228.04,707.59 226.5,707.59 L 226.5,707.59 C 226.42,707.59 226.4,707.59 226.32,707.6 C 226.2,707.6 226.19,707.61 226.19,707.64 C 226.19,707.66 226.36,708.57 226.39,708.72 C 226.7,709.99 227.48,710.95 228.36,710.95 C 229.05,710.95 229.32,710.41 229.32,709.93 L 229.6,710.15 C 229.6,710.93 229.21,711.53 228.46,711.53 C 227.02,711.53 226.42,709.59 225.82,707.65 C 224.75,707.85 224.19,708.41 224.19,709.12 C 224.19,709.4 224.42,710.5 225.02,711.19 C 225.1,711.28 225.1,711.3 225.1,711.32 C 225.1,711.36 225.08,711.42 224.98,711.42 C 224.7,711.42 223.93,709.97 223.93,709.02 C 223.93,708.08 224.59,707.35 225.65,707.1 L 225.13,705.43 z"
   id="path5308"
   style="fill:#000000;stroke-width:0" />
<path
   d="M 235.16,707.21 L 235.17,707.21 L 235.18,707.21 L 235.19,707.21 L 235.2,707.21 L 235.21,707.21 L 235.22,707.21 L 235.23,707.21 L 235.24,707.21 L 235.25,707.21 L 235.26,707.21 L 235.27,707.21 L 235.28,707.21 L 235.29,707.22 L 235.3,707.22 L 235.31,707.22 L 235.32,707.23 L 235.33,707.23 L 235.34,707.24 L 235.35,707.24 L 235.36,707.25 L 235.37,707.25 L 235.38,707.26 L 235.38,707.27 L 235.39,707.27 L 235.39,707.28 L 235.39,707.28 L 235.4,707.29 L 235.4,707.29 L 235.4,707.3 L 235.4,707.3 L 235.41,707.31 L 235.41,707.31 L 235.41,707.32 L 235.41,707.32 L 235.41,707.33 L 235.41,707.34 L 235.42,707.34 L 235.42,707.35 L 235.42,707.36 L 235.42,707.37 L 235.42,707.37 C 235.42,707.55 235.26,707.55 235.16,707.55 L 230.96,707.55 C 230.86,707.55 230.7,707.55 230.7,707.37 C 230.7,707.21 230.87,707.21 230.96,707.21 L 235.16,707.21 z"
   id="path5310"
   style="fill:#000000;stroke-width:0" />
</g>    <g
       style="font-style:normal;font-variant:normal;font-weight:normal;font-stretch:normal;letter-spacing:normal;word-spacing:normal;text-anchor:start;fill:none;fill-opacity:1;stroke:#000000;stroke-linecap:butt;stroke-linejoin:miter;stroke-miterlimit:10.43299961;stroke-dasharray:none;stroke-dashoffset:0;stroke-opacity:1"
       ns0:preamble=""
       ns0:text="$\\theta_+^-$"
       word-spacing="normal"
       letter-spacing="normal"
       font-size-adjust="none"
       font-stretch="normal"
       font-weight="normal"
       font-variant="normal"
       font-style="normal"
       fill-rule="even-odd"
       stroke-miterlimit="10.433"
       xml:space="preserve"
       transform="matrix(1.4005602,0,0,-1.4005602,17.302452,1160.7225)"
       id="g5662">
<path
   id="path5664"
   d="M 227.96,712.1 L 227.96,712.17 L 227.96,712.24 L 227.96,712.31 L 227.96,712.38 L 227.95,712.46 L 227.94,712.54 L 227.93,712.62 L 227.92,712.7 L 227.91,712.78 L 227.89,712.87 L 227.87,712.95 L 227.85,713.04 L 227.83,713.12 L 227.81,713.21 L 227.78,713.29 L 227.75,713.37 L 227.71,713.45 L 227.68,713.53 L 227.64,713.6 L 227.59,713.67 L 227.55,713.74 L 227.5,713.8 L 227.44,713.86 L 227.39,713.92 L 227.32,713.97 L 227.29,713.99 L 227.26,714.01 L 227.22,714.03 L 227.19,714.05 L 227.15,714.07 L 227.11,714.09 L 227.07,714.1 L 227.03,714.11 L 226.99,714.12 L 226.95,714.13 L 226.91,714.14 L 226.86,714.14 L 226.82,714.14 L 226.77,714.15 L 226.76,713.93 C 227.25,713.93 227.31,713.29 227.31,712.72 C 227.31,712.23 227.23,711.72 226.99,710.74 L 224.91,710.74 C 225.08,711.38 225.28,712.17 225.67,712.88 C 225.94,713.37 226.31,713.93 226.76,713.93 L 226.77,714.15 C 225.38,714.15 223.85,711.34 223.85,709.05 C 223.85,708.12 224.14,707.01 225.05,707.01 L 225.05,707.23 C 224.72,707.23 224.51,707.52 224.51,708.45 C 224.51,708.87 224.57,709.44 224.83,710.42 L 226.9,710.42 C 226.79,709.96 226.58,709.11 226.2,708.4 C 225.85,707.72 225.48,707.23 225.05,707.23 L 225.05,707.01 C 226.45,707.01 227.96,709.87 227.96,712.1 z"
   style="fill:#000000;stroke-width:0" />
<path
   id="path5666"
   d="M 233.59,712.97 L 233.6,712.97 L 233.61,712.97 L 233.62,712.97 L 233.63,712.97 L 233.64,712.97 L 233.65,712.97 L 233.66,712.97 L 233.67,712.97 L 233.68,712.97 L 233.69,712.97 L 233.7,712.97 L 233.71,712.97 L 233.72,712.98 L 233.73,712.98 L 233.75,712.98 L 233.76,712.99 L 233.76,712.99 L 233.77,713 L 233.78,713 L 233.79,713.01 L 233.8,713.01 L 233.81,713.02 L 233.82,713.03 L 233.82,713.03 L 233.82,713.04 L 233.83,713.04 L 233.83,713.05 L 233.83,713.05 L 233.83,713.06 L 233.84,713.06 L 233.84,713.07 L 233.84,713.07 L 233.84,713.08 L 233.84,713.08 L 233.85,713.09 L 233.85,713.1 L 233.85,713.1 L 233.85,713.11 L 233.85,713.12 L 233.85,713.13 L 233.85,713.13 C 233.85,713.31 233.69,713.31 233.59,713.31 L 229.39,713.31 C 229.3,713.31 229.14,713.31 229.14,713.13 C 229.14,712.97 229.3,712.97 229.39,712.97 L 233.59,712.97 z"
   style="fill:#000000;stroke-width:0" />
<path
   id="path5668"
   d="M 231.34,706.22 L 233.48,706.22 C 233.57,706.22 233.73,706.22 233.73,706.39 C 233.73,706.57 233.57,706.57 233.48,706.57 L 231.34,706.57 L 231.34,708.71 C 231.34,708.8 231.34,708.96 231.17,708.96 C 231,708.96 231,708.8 231,708.71 L 231,706.57 L 228.86,706.57 C 228.77,706.57 228.6,706.57 228.6,706.4 C 228.6,706.22 228.76,706.22 228.86,706.22 L 231,706.22 L 231,704.08 C 231,703.99 231,703.83 231.17,703.83 C 231.34,703.83 231.34,703.98 231.34,704.08 L 231.34,706.22 z"
   style="fill:#000000;stroke-width:0" />
</g>    <g
       id="g5780"
       transform="matrix(1.4005602,0,0,-1.4005602,110.91037,1187.7333)"
       xml:space="preserve"
       stroke-miterlimit="10.433"
       fill-rule="even-odd"
       font-style="normal"
       font-variant="normal"
       font-weight="normal"
       font-stretch="normal"
       font-size-adjust="none"
       letter-spacing="normal"
       word-spacing="normal"
       ns0:text="$\\theta^+_-$"
       ns0:preamble=""
       style="font-style:normal;font-variant:normal;font-weight:normal;font-stretch:normal;letter-spacing:normal;word-spacing:normal;text-anchor:start;fill:none;fill-opacity:1;stroke:#000000;stroke-linecap:butt;stroke-linejoin:miter;stroke-miterlimit:10.43299961;stroke-dasharray:none;stroke-dashoffset:0;stroke-opacity:1">
<path
   d="M 227.96,712.1 L 227.96,712.17 L 227.96,712.24 L 227.96,712.31 L 227.96,712.38 L 227.95,712.46 L 227.94,712.54 L 227.93,712.62 L 227.92,712.7 L 227.91,712.78 L 227.89,712.87 L 227.87,712.95 L 227.85,713.04 L 227.83,713.12 L 227.81,713.21 L 227.78,713.29 L 227.75,713.37 L 227.71,713.45 L 227.68,713.53 L 227.64,713.6 L 227.59,713.67 L 227.55,713.74 L 227.5,713.8 L 227.44,713.86 L 227.39,713.92 L 227.32,713.97 L 227.29,713.99 L 227.26,714.01 L 227.22,714.03 L 227.19,714.05 L 227.15,714.07 L 227.11,714.09 L 227.07,714.1 L 227.03,714.11 L 226.99,714.12 L 226.95,714.13 L 226.91,714.14 L 226.86,714.14 L 226.82,714.14 L 226.77,714.15 L 226.76,713.93 C 227.25,713.93 227.31,713.29 227.31,712.72 C 227.31,712.23 227.23,711.72 226.99,710.74 L 224.91,710.74 C 225.08,711.38 225.28,712.17 225.67,712.88 C 225.94,713.37 226.31,713.93 226.76,713.93 L 226.77,714.15 C 225.38,714.15 223.85,711.34 223.85,709.05 C 223.85,708.12 224.14,707.01 225.05,707.01 L 225.05,707.23 C 224.72,707.23 224.51,707.52 224.51,708.45 C 224.51,708.87 224.57,709.44 224.83,710.42 L 226.9,710.42 C 226.79,709.96 226.58,709.11 226.2,708.4 C 225.85,707.72 225.48,707.23 225.05,707.23 L 225.05,707.01 C 226.45,707.01 227.96,709.87 227.96,712.1 z"
   id="path5782"
   style="fill:#000000;stroke-width:0" />
<path
   d="M 231.61,712.97 L 233.74,712.97 C 233.84,712.97 234,712.97 234,713.13 C 234,713.31 233.84,713.31 233.74,713.31 L 231.61,713.31 L 231.61,715.45 C 231.61,715.54 231.61,715.71 231.44,715.71 C 231.27,715.71 231.27,715.55 231.27,715.45 L 231.27,713.31 L 229.13,713.31 C 229.04,713.31 228.87,713.31 228.87,713.14 C 228.87,712.97 229.03,712.97 229.13,712.97 L 231.27,712.97 L 231.27,710.83 C 231.27,710.73 231.27,710.57 231.44,710.57 C 231.61,710.57 231.61,710.73 231.61,710.83 L 231.61,712.97 z"
   id="path5784"
   style="fill:#000000;stroke-width:0" />
<path
   d="M 233.32,706.22 L 233.33,706.22 L 233.34,706.22 L 233.35,706.22 L 233.36,706.22 L 233.37,706.22 L 233.38,706.23 L 233.39,706.23 L 233.4,706.23 L 233.41,706.23 L 233.42,706.23 L 233.43,706.23 L 233.44,706.23 L 233.45,706.24 L 233.46,706.24 L 233.48,706.24 L 233.49,706.24 L 233.49,706.25 L 233.5,706.25 L 233.51,706.26 L 233.52,706.26 L 233.53,706.27 L 233.54,706.28 L 233.55,706.29 L 233.55,706.29 L 233.55,706.29 L 233.56,706.3 L 233.56,706.3 L 233.56,706.31 L 233.56,706.31 L 233.57,706.32 L 233.57,706.32 L 233.57,706.33 L 233.57,706.34 L 233.57,706.34 L 233.58,706.35 L 233.58,706.35 L 233.58,706.36 L 233.58,706.37 L 233.58,706.38 L 233.58,706.38 L 233.58,706.39 C 233.58,706.57 233.42,706.57 233.32,706.57 L 229.12,706.57 C 229.03,706.57 228.87,706.57 228.87,706.39 C 228.87,706.22 229.03,706.22 229.12,706.22 L 233.32,706.22 z"
   id="path5786"
   style="fill:#000000;stroke-width:0" />
</g>    <g
       style="font-style:normal;font-variant:normal;font-weight:normal;font-stretch:normal;letter-spacing:normal;word-spacing:normal;text-anchor:start;fill:none;fill-opacity:1;stroke:#000000;stroke-linecap:butt;stroke-linejoin:miter;stroke-miterlimit:10.43299961;stroke-dasharray:none;stroke-dashoffset:0;stroke-opacity:1"
       ns0:preamble=""
       ns0:text="$\\theta^-_-$"
       word-spacing="normal"
       letter-spacing="normal"
       font-size-adjust="none"
       font-stretch="normal"
       font-weight="normal"
       font-variant="normal"
       font-style="normal"
       fill-rule="even-odd"
       stroke-miterlimit="10.433"
       xml:space="preserve"
       transform="matrix(1.4005602,0,0,-1.4005602,132.59104,1210.2544)"
       id="g5910">
<path
   id="path5912"
   d="M 227.96,712.1 L 227.96,712.17 L 227.96,712.24 L 227.96,712.31 L 227.96,712.38 L 227.95,712.46 L 227.94,712.54 L 227.93,712.62 L 227.92,712.7 L 227.91,712.78 L 227.89,712.87 L 227.87,712.95 L 227.85,713.04 L 227.83,713.12 L 227.81,713.21 L 227.78,713.29 L 227.75,713.37 L 227.71,713.45 L 227.68,713.53 L 227.64,713.6 L 227.59,713.67 L 227.55,713.74 L 227.5,713.8 L 227.44,713.86 L 227.39,713.92 L 227.32,713.97 L 227.29,713.99 L 227.26,714.01 L 227.22,714.03 L 227.19,714.05 L 227.15,714.07 L 227.11,714.09 L 227.07,714.1 L 227.03,714.11 L 226.99,714.12 L 226.95,714.13 L 226.91,714.14 L 226.86,714.14 L 226.82,714.14 L 226.77,714.15 L 226.76,713.93 C 227.25,713.93 227.31,713.29 227.31,712.72 C 227.31,712.23 227.23,711.72 226.99,710.74 L 224.91,710.74 C 225.08,711.38 225.28,712.17 225.67,712.88 C 225.94,713.37 226.31,713.93 226.76,713.93 L 226.77,714.15 C 225.38,714.15 223.85,711.34 223.85,709.05 C 223.85,708.12 224.14,707.01 225.05,707.01 L 225.05,707.23 C 224.72,707.23 224.51,707.52 224.51,708.45 C 224.51,708.87 224.57,709.44 224.83,710.42 L 226.9,710.42 C 226.79,709.96 226.58,709.11 226.2,708.4 C 225.85,707.72 225.48,707.23 225.05,707.23 L 225.05,707.01 C 226.45,707.01 227.96,709.87 227.96,712.1 z"
   style="fill:#000000;stroke-width:0" />
<path
   id="path5914"
   d="M 233.59,712.97 L 233.6,712.97 L 233.61,712.97 L 233.62,712.97 L 233.63,712.97 L 233.64,712.97 L 233.65,712.97 L 233.66,712.97 L 233.67,712.97 L 233.68,712.97 L 233.69,712.97 L 233.7,712.97 L 233.71,712.97 L 233.72,712.98 L 233.73,712.98 L 233.75,712.98 L 233.76,712.99 L 233.76,712.99 L 233.77,713 L 233.78,713 L 233.79,713.01 L 233.8,713.01 L 233.81,713.02 L 233.82,713.03 L 233.82,713.03 L 233.82,713.04 L 233.83,713.04 L 233.83,713.05 L 233.83,713.05 L 233.83,713.06 L 233.84,713.06 L 233.84,713.07 L 233.84,713.07 L 233.84,713.08 L 233.84,713.08 L 233.85,713.09 L 233.85,713.1 L 233.85,713.1 L 233.85,713.11 L 233.85,713.12 L 233.85,713.13 L 233.85,713.13 C 233.85,713.31 233.69,713.31 233.59,713.31 L 229.39,713.31 C 229.3,713.31 229.14,713.31 229.14,713.13 C 229.14,712.97 229.3,712.97 229.39,712.97 L 233.59,712.97 z"
   style="fill:#000000;stroke-width:0" />
<path
   id="path5916"
   d="M 233.32,706.22 L 233.33,706.22 L 233.34,706.22 L 233.35,706.22 L 233.36,706.22 L 233.37,706.22 L 233.38,706.23 L 233.39,706.23 L 233.4,706.23 L 233.41,706.23 L 233.42,706.23 L 233.43,706.23 L 233.44,706.23 L 233.45,706.24 L 233.46,706.24 L 233.48,706.24 L 233.49,706.24 L 233.49,706.25 L 233.5,706.25 L 233.51,706.26 L 233.52,706.26 L 233.53,706.27 L 233.54,706.28 L 233.55,706.29 L 233.55,706.29 L 233.55,706.29 L 233.56,706.3 L 233.56,706.3 L 233.56,706.31 L 233.56,706.31 L 233.57,706.32 L 233.57,706.32 L 233.57,706.33 L 233.57,706.34 L 233.57,706.34 L 233.58,706.35 L 233.58,706.35 L 233.58,706.36 L 233.58,706.37 L 233.58,706.38 L 233.58,706.38 L 233.58,706.39 C 233.58,706.57 233.42,706.57 233.32,706.57 L 229.12,706.57 C 229.03,706.57 228.87,706.57 228.87,706.39 C 228.87,706.22 229.03,706.22 229.12,706.22 L 233.32,706.22 z"
   style="fill:#000000;stroke-width:0" />
</g>    <g
       id="g2659"
       transform="translate(1.4258127,0)">
      <text
         id="text2651"
         y="141.39865"
         x="135.44347"
         style="font-size:40px;font-style:normal;font-weight:normal;fill:#000000;fill-opacity:1;stroke:none;stroke-width:1px;stroke-linecap:butt;stroke-linejoin:miter;stroke-opacity:1;font-family:Bitstream Vera Sans"
         xml:space="preserve"><tspan
           y="141.39865"
           x="135.44347"
           id="tspan2653"
           sodipodi:role="line">SO 1</tspan></text>
      <text
         id="text2655"
         y="141.39865"
         x="379.15579"
         style="font-size:40px;font-style:normal;font-weight:normal;fill:#000000;fill-opacity:1;stroke:none;stroke-width:1px;stroke-linecap:butt;stroke-linejoin:miter;stroke-opacity:1;font-family:Bitstream Vera Sans"
         xml:space="preserve"><tspan
           y="141.39865"
           x="379.15579"
           id="tspan2657"
           sodipodi:role="line">SO 2</tspan></text>
    </g>
  </g>
</svg>
