<?xml version="1.0" encoding="UTF-8" standalone="no"?>
<!-- Created with Inkscape (http://www.inkscape.org/) -->
<svg
   xmlns:ns0="http://www.iki.fi/pav/software/textext/"
   xmlns:dc="http://purl.org/dc/elements/1.1/"
   xmlns:cc="http://creativecommons.org/ns#"
   xmlns:rdf="http://www.w3.org/1999/02/22-rdf-syntax-ns#"
   xmlns:svg="http://www.w3.org/2000/svg"
   xmlns="http://www.w3.org/2000/svg"
   xmlns:sodipodi="http://sodipodi.sourceforge.net/DTD/sodipodi-0.dtd"
   xmlns:inkscape="http://www.inkscape.org/namespaces/inkscape"
   width="395.96964"
   height="283.2561"
   id="svg2"
   sodipodi:version="0.32"
   inkscape:version="0.46"
   sodipodi:docname="setup-two-so-regions.svg"
   inkscape:output_extension="org.inkscape.output.svg.inkscape"
   version="1.0">
  <sodipodi:namedview
     id="base"
     pagecolor="#ffffff"
     bordercolor="#666666"
     borderopacity="1.0"
     gridtolerance="10000"
     guidetolerance="10"
     objecttolerance="10"
     inkscape:pageopacity="0.0"
     inkscape:pageshadow="2"
     inkscape:zoom="1"
     inkscape:cx="129.07386"
     inkscape:cy="141.62805"
     inkscape:document-units="px"
     inkscape:current-layer="layer1"
     showgrid="false"
     inkscape:window-width="1085"
     inkscape:window-height="891"
     inkscape:window-x="18"
     inkscape:window-y="36" />
  <defs
     id="defs4">
    <inkscape:perspective
       id="perspective10"
       inkscape:persp3d-origin="372.04724 : 350.78739 : 1"
       inkscape:vp_z="744.09448 : 526.18109 : 1"
       inkscape:vp_y="0 : 1000 : 0"
       inkscape:vp_x="0 : 526.18109 : 1"
       sodipodi:type="inkscape:persp3d" />
  </defs>
  <metadata
     id="metadata7">
    <rdf:RDF>
      <cc:Work
         rdf:about="">
        <dc:format>image/svg+xml</dc:format>
        <dc:type
           rdf:resource="http://purl.org/dc/dcmitype/StillImage" />
      </cc:Work>
    </rdf:RDF>
  </metadata>
  <g
     id="layer1"
     inkscape:groupmode="layer"
     inkscape:label="Layer 1"
     transform="translate(-107.58632,-95.505131)">
    <g
       transform="matrix(-9.2073461e-2,-0.3292151,0.9024965,-0.2524064,-39.797854,355.77104)"
       id="g2440">
      <g
         id="g2446"
         style="fill:#646464;fill-opacity:1;stroke:#646464;stroke-opacity:1">
        <path
           transform="matrix(0,1,-1,0,441.73404,314.70284)"
           d="M 74.787321,377.58029 L 53.52007,389.85894 L 53.52007,365.30164 L 74.787321,377.58029 z"
           inkscape:randomized="0"
           inkscape:rounded="0"
           inkscape:flatsided="true"
           sodipodi:arg2="1.0471976"
           sodipodi:arg1="0"
           sodipodi:r2="7.0890832"
           sodipodi:r1="14.178167"
           sodipodi:cy="377.58029"
           sodipodi:cx="60.609154"
           sodipodi:sides="3"
           id="path2442"
           style="fill:#646464;fill-opacity:1;stroke:#646464;stroke-width:1;stroke-miterlimit:4;stroke-dasharray:1, 1;stroke-dashoffset:0;stroke-opacity:1"
           sodipodi:type="star" />
        <rect
           y="228.82176"
           x="59.102985"
           height="139.40105"
           width="10.101525"
           id="rect2444"
           style="fill:#646464;fill-opacity:1;stroke:#646464;stroke-width:1;stroke-miterlimit:4;stroke-dasharray:1, 1;stroke-dashoffset:0;stroke-opacity:1" />
      </g>
    </g>
    <g
       id="g5986">
      <path
         style="fill:none;fill-rule:evenodd;stroke:#000000;stroke-width:1;stroke-linecap:butt;stroke-linejoin:miter;stroke-miterlimit:4;stroke-dasharray:1, 1;stroke-dashoffset:0;stroke-opacity:1"
         d="M 108.08632,236.6281 L 404.06102,236.6281 L 503.05597,237.63825"
         id="path2383" />
      <path
         style="fill:none;fill-rule:evenodd;stroke:#000000;stroke-width:0.71534795;stroke-linecap:butt;stroke-linejoin:miter;stroke-miterlimit:4;stroke-dasharray:0.71534797, 0.71534797;stroke-dashoffset:0;stroke-opacity:1"
         d="M 305.68225,95.862805 L 305.68225,307.58772 L 304.95964,378.40355"
         id="path3155" />
    </g>
    <g
       transform="matrix(-0.170924,-0.2960491,0.8115767,-0.468564,0.9920758,438.6628)"
       id="g3165">
      <path
         sodipodi:type="star"
         style="stroke-width:1;stroke-miterlimit:4;stroke-dasharray:1, 1;stroke-dashoffset:0"
         id="path3161"
         sodipodi:sides="3"
         sodipodi:cx="60.609154"
         sodipodi:cy="377.58029"
         sodipodi:r1="14.178167"
         sodipodi:r2="7.0890832"
         sodipodi:arg1="0"
         sodipodi:arg2="1.0471976"
         inkscape:flatsided="true"
         inkscape:rounded="0"
         inkscape:randomized="0"
         d="M 74.787321,377.58029 L 53.52007,389.85894 L 53.52007,365.30164 L 74.787321,377.58029 z"
         transform="matrix(0,1,-1,0,441.73404,314.70284)" />
      <rect
         style="stroke-width:1;stroke-miterlimit:4;stroke-dasharray:1, 1;stroke-dashoffset:0"
         id="rect3163"
         width="10.101525"
         height="139.40105"
         x="59.102985"
         y="228.82176" />
    </g>
    <g
       id="g3257">
      <path
         sodipodi:type="star"
         style="fill:#ff0000;fill-opacity:1;stroke:#fd0000;stroke-width:1;stroke-miterlimit:4;stroke-dasharray:1, 1;stroke-dashoffset:0;stroke-opacity:1"
         id="path3177"
         sodipodi:sides="3"
         sodipodi:cx="60.609154"
         sodipodi:cy="377.58029"
         sodipodi:r1="14.178167"
         sodipodi:r2="7.0890832"
         sodipodi:arg1="0"
         sodipodi:arg2="1.0471976"
         inkscape:flatsided="true"
         inkscape:rounded="0"
         inkscape:randomized="0"
         d="M 74.787321,377.58029 L 53.52007,389.85894 L 53.52007,365.30164 L 74.787321,377.58029 z"
         transform="matrix(0.5389814,-0.5389814,0.1966111,0.1966111,278.37546,115.78642)" />
      <rect
         style="fill:#ff0000;fill-opacity:1;stroke:#fd0000;stroke-width:0.46036881;stroke-miterlimit:4;stroke-dasharray:none;stroke-dashoffset:0;stroke-opacity:1"
         id="rect3179"
         width="2.8087299"
         height="106.25633"
         x="-385.10513"
         y="49.506268"
         transform="matrix(-0.7071068,-0.7071068,0.7071068,-0.7071068,0,0)" />
    </g>
    <g
       id="g3215">
      <path
         sodipodi:type="star"
         style="fill:#0000ff;fill-opacity:1;stroke:#0000ff;stroke-width:1;stroke-miterlimit:4;stroke-dasharray:1, 1;stroke-dashoffset:0;stroke-opacity:1"
         id="path3183"
         sodipodi:sides="3"
         sodipodi:cx="60.609154"
         sodipodi:cy="377.58029"
         sodipodi:r1="14.178167"
         sodipodi:r2="7.0890832"
         sodipodi:arg1="0"
         sodipodi:arg2="1.0471976"
         inkscape:flatsided="true"
         inkscape:rounded="0"
         inkscape:randomized="0"
         d="M 74.787321,377.58029 L 53.52007,389.85894 L 53.52007,365.30164 L 74.787321,377.58029 z"
         transform="matrix(0.9075525,-0.4344146,0.1584669,0.3310594,323.82863,73.496685)" />
      <rect
         style="fill:#0000ff;fill-opacity:1;stroke:#0000ff;stroke-width:0.60799998000000000;stroke-miterlimit:4;stroke-dasharray:none;stroke-dashoffset:0;stroke-opacity:1"
         id="rect3185"
         width="3.7075775"
         height="140.26042"
         x="-346.54501"
         y="173.94788"
         transform="matrix(-0.4317529,-0.9019919,0.9019919,-0.4317529,0,0)" />
    </g>
    <g
       transform="matrix(2.5353299,0,0,1.9360873,-460.36899,-219.79898)"
       id="g3247">
      <path
         sodipodi:type="arc"
         style="fill:none;fill-opacity:1;stroke:#000000;stroke-width:1;stroke-miterlimit:4;stroke-dasharray:none;stroke-dashoffset:0;stroke-opacity:1"
         id="path3209"
         sodipodi:cx="306.07623"
         sodipodi:cy="236.664"
         sodipodi:rx="37.375645"
         sodipodi:ry="37.375645"
         d="M 274.83619,257.18225 A 37.375645,37.375645 0 0 1 268.78108,239.11556"
         transform="matrix(0.9989964,4.4790381e-2,-4.4790381e-2,0.9989964,10.907442,-13.471751)"
         sodipodi:start="2.5604567"
         sodipodi:end="3.075953"
         sodipodi:open="true" />
      <path
         sodipodi:type="star"
         style="fill:#000000;fill-opacity:1;stroke:#000000;stroke-width:0.5;stroke-miterlimit:4;stroke-dasharray:none;stroke-dashoffset:0;stroke-opacity:1"
         id="path3211"
         sodipodi:sides="3"
         sodipodi:cx="259.28571"
         sodipodi:cy="252.71931"
         sodipodi:r1="0.64384842"
         sodipodi:r2="0.32192421"
         sodipodi:arg1="0.98279372"
         sodipodi:arg2="2.0299913"
         inkscape:flatsided="true"
         inkscape:rounded="0"
         inkscape:randomized="0"
         d="M 259.64285,253.25503 L 258.64319,252.76075 L 259.57108,252.14216 L 259.64285,253.25503 z"
         transform="matrix(1.8611748,0,0,1.8611748,-209.86294,-217.04048)" />
    </g>
    <text
       id="text3513"
       y="235.93361"
       x="491.42856"
       style="font-size:14px;font-style:normal;font-weight:normal;fill:#000000;fill-opacity:1;stroke:none;stroke-width:1px;stroke-linecap:butt;stroke-linejoin:miter;stroke-opacity:1;font-family:Bitstream Vera Sans"
       xml:space="preserve"><tspan
         y="235.93361"
         x="491.42856"
         id="tspan3515"
         sodipodi:role="line">x</tspan></text>
    <text
       id="text3517"
       y="103.79075"
       x="313.57144"
       style="font-size:14px;font-style:normal;font-weight:normal;fill:#000000;fill-opacity:1;stroke:none;stroke-width:1px;stroke-linecap:butt;stroke-linejoin:miter;stroke-opacity:1;font-family:Bitstream Vera Sans"
       xml:space="preserve"><tspan
         y="103.79075"
         x="313.57144"
         id="tspan3519"
         sodipodi:role="line">z</tspan></text>
    <g
       id="g3661"
       transform="matrix(1.2437811,0,0,-1.2437811,96.69279,1057.2544)"
       xml:space="preserve"
       stroke-miterlimit="10.433"
       fill-rule="even-odd"
       font-style="normal"
       font-variant="normal"
       font-weight="normal"
       font-stretch="normal"
       font-size-adjust="none"
       letter-spacing="normal"
       word-spacing="normal"
       ns0:text="$\\theta^+_+$"
       ns0:preamble=""
       style="font-style:normal;font-variant:normal;font-weight:normal;font-stretch:normal;letter-spacing:normal;word-spacing:normal;text-anchor:start;fill:none;fill-opacity:1;stroke:#000000;stroke-linecap:butt;stroke-linejoin:miter;stroke-miterlimit:10.43299961;stroke-dasharray:none;stroke-dashoffset:0;stroke-opacity:1">
<path
   d="M 227.96,712.1 L 227.96,712.17 L 227.96,712.24 L 227.96,712.31 L 227.96,712.38 L 227.95,712.46 L 227.94,712.54 L 227.93,712.62 L 227.92,712.7 L 227.91,712.78 L 227.89,712.87 L 227.87,712.95 L 227.85,713.04 L 227.83,713.12 L 227.81,713.21 L 227.78,713.29 L 227.75,713.37 L 227.71,713.45 L 227.68,713.53 L 227.64,713.6 L 227.59,713.67 L 227.55,713.74 L 227.5,713.8 L 227.44,713.86 L 227.39,713.92 L 227.32,713.97 L 227.29,713.99 L 227.26,714.01 L 227.22,714.03 L 227.19,714.05 L 227.15,714.07 L 227.11,714.09 L 227.07,714.1 L 227.03,714.11 L 226.99,714.12 L 226.95,714.13 L 226.91,714.14 L 226.86,714.14 L 226.82,714.14 L 226.77,714.15 L 226.76,713.93 C 227.25,713.93 227.31,713.29 227.31,712.72 C 227.31,712.23 227.23,711.72 226.99,710.74 L 224.91,710.74 C 225.08,711.38 225.28,712.17 225.67,712.88 C 225.94,713.37 226.31,713.93 226.76,713.93 L 226.77,714.15 C 225.38,714.15 223.85,711.34 223.85,709.05 C 223.85,708.12 224.14,707.01 225.05,707.01 L 225.05,707.23 C 224.72,707.23 224.51,707.52 224.51,708.45 C 224.51,708.87 224.57,709.44 224.83,710.42 L 226.9,710.42 C 226.79,709.96 226.58,709.11 226.2,708.4 C 225.85,707.72 225.48,707.23 225.05,707.23 L 225.05,707.01 C 226.45,707.01 227.96,709.87 227.96,712.1 z"
   id="path3663"
   style="fill:#000000;stroke-width:0" />
<path
   d="M 231.61,712.97 L 233.74,712.97 C 233.84,712.97 234,712.97 234,713.13 C 234,713.31 233.84,713.31 233.74,713.31 L 231.61,713.31 L 231.61,715.45 C 231.61,715.54 231.61,715.71 231.44,715.71 C 231.27,715.71 231.27,715.55 231.27,715.45 L 231.27,713.31 L 229.13,713.31 C 229.04,713.31 228.87,713.31 228.87,713.14 C 228.87,712.97 229.03,712.97 229.13,712.97 L 231.27,712.97 L 231.27,710.83 C 231.27,710.73 231.27,710.57 231.44,710.57 C 231.61,710.57 231.61,710.73 231.61,710.83 L 231.61,712.97 z"
   id="path3665"
   style="fill:#000000;stroke-width:0" />
<path
   d="M 231.34,706.22 L 233.48,706.22 C 233.57,706.22 233.73,706.22 233.73,706.39 C 233.73,706.57 233.57,706.57 233.48,706.57 L 231.34,706.57 L 231.34,708.71 C 231.34,708.8 231.34,708.96 231.17,708.96 C 231,708.96 231,708.8 231,708.71 L 231,706.57 L 228.86,706.57 C 228.77,706.57 228.6,706.57 228.6,706.4 C 228.6,706.22 228.76,706.22 228.86,706.22 L 231,706.22 L 231,704.08 C 231,703.99 231,703.83 231.17,703.83 C 231.34,703.83 231.34,703.98 231.34,704.08 L 231.34,706.22 z"
   id="path3667"
   style="fill:#000000;stroke-width:0" />
</g>    <g
       style="font-style:normal;font-variant:normal;font-weight:normal;font-stretch:normal;letter-spacing:normal;word-spacing:normal;text-anchor:start;fill:none;fill-opacity:1;stroke:#000000;stroke-linecap:butt;stroke-linejoin:miter;stroke-miterlimit:10.43299961;stroke-dasharray:none;stroke-dashoffset:0;stroke-opacity:1"
       ns0:preamble=""
       ns0:text="$\\theta_+^-$"
       word-spacing="normal"
       letter-spacing="normal"
       font-size-adjust="none"
       font-stretch="normal"
       font-weight="normal"
       font-variant="normal"
       font-style="normal"
       fill-rule="even-odd"
       stroke-miterlimit="10.433"
       xml:space="preserve"
       transform="matrix(1.4005602,0,0,-1.4005602,47.751482,1189.9696)"
       id="g5662">
<path
   id="path5664"
   d="M 227.96,712.1 L 227.96,712.17 L 227.96,712.24 L 227.96,712.31 L 227.96,712.38 L 227.95,712.46 L 227.94,712.54 L 227.93,712.62 L 227.92,712.7 L 227.91,712.78 L 227.89,712.87 L 227.87,712.95 L 227.85,713.04 L 227.83,713.12 L 227.81,713.21 L 227.78,713.29 L 227.75,713.37 L 227.71,713.45 L 227.68,713.53 L 227.64,713.6 L 227.59,713.67 L 227.55,713.74 L 227.5,713.8 L 227.44,713.86 L 227.39,713.92 L 227.32,713.97 L 227.29,713.99 L 227.26,714.01 L 227.22,714.03 L 227.19,714.05 L 227.15,714.07 L 227.11,714.09 L 227.07,714.1 L 227.03,714.11 L 226.99,714.12 L 226.95,714.13 L 226.91,714.14 L 226.86,714.14 L 226.82,714.14 L 226.77,714.15 L 226.76,713.93 C 227.25,713.93 227.31,713.29 227.31,712.72 C 227.31,712.23 227.23,711.72 226.99,710.74 L 224.91,710.74 C 225.08,711.38 225.28,712.17 225.67,712.88 C 225.94,713.37 226.31,713.93 226.76,713.93 L 226.77,714.15 C 225.38,714.15 223.85,711.34 223.85,709.05 C 223.85,708.12 224.14,707.01 225.05,707.01 L 225.05,707.23 C 224.72,707.23 224.51,707.52 224.51,708.45 C 224.51,708.87 224.57,709.44 224.83,710.42 L 226.9,710.42 C 226.79,709.96 226.58,709.11 226.2,708.4 C 225.85,707.72 225.48,707.23 225.05,707.23 L 225.05,707.01 C 226.45,707.01 227.96,709.87 227.96,712.1 z"
   style="fill:#000000;stroke-width:0" />
<path
   id="path5666"
   d="M 233.59,712.97 L 233.6,712.97 L 233.61,712.97 L 233.62,712.97 L 233.63,712.97 L 233.64,712.97 L 233.65,712.97 L 233.66,712.97 L 233.67,712.97 L 233.68,712.97 L 233.69,712.97 L 233.7,712.97 L 233.71,712.97 L 233.72,712.98 L 233.73,712.98 L 233.75,712.98 L 233.76,712.99 L 233.76,712.99 L 233.77,713 L 233.78,713 L 233.79,713.01 L 233.8,713.01 L 233.81,713.02 L 233.82,713.03 L 233.82,713.03 L 233.82,713.04 L 233.83,713.04 L 233.83,713.05 L 233.83,713.05 L 233.83,713.06 L 233.84,713.06 L 233.84,713.07 L 233.84,713.07 L 233.84,713.08 L 233.84,713.08 L 233.85,713.09 L 233.85,713.1 L 233.85,713.1 L 233.85,713.11 L 233.85,713.12 L 233.85,713.13 L 233.85,713.13 C 233.85,713.31 233.69,713.31 233.59,713.31 L 229.39,713.31 C 229.3,713.31 229.14,713.31 229.14,713.13 C 229.14,712.97 229.3,712.97 229.39,712.97 L 233.59,712.97 z"
   style="fill:#000000;stroke-width:0" />
<path
   id="path5668"
   d="M 231.34,706.22 L 233.48,706.22 C 233.57,706.22 233.73,706.22 233.73,706.39 C 233.73,706.57 233.57,706.57 233.48,706.57 L 231.34,706.57 L 231.34,708.71 C 231.34,708.8 231.34,708.96 231.17,708.96 C 231,708.96 231,708.8 231,708.71 L 231,706.57 L 228.86,706.57 C 228.77,706.57 228.6,706.57 228.6,706.4 C 228.6,706.22 228.76,706.22 228.86,706.22 L 231,706.22 L 231,704.08 C 231,703.99 231,703.83 231.17,703.83 C 231.34,703.83 231.34,703.98 231.34,704.08 L 231.34,706.22 z"
   style="fill:#000000;stroke-width:0" />
</g>    <g
       id="g5780"
       transform="matrix(1.4005602,0,0,-1.4005602,110.91037,1187.7333)"
       xml:space="preserve"
       stroke-miterlimit="10.433"
       fill-rule="even-odd"
       font-style="normal"
       font-variant="normal"
       font-weight="normal"
       font-stretch="normal"
       font-size-adjust="none"
       letter-spacing="normal"
       word-spacing="normal"
       ns0:text="$\\theta^+_-$"
       ns0:preamble=""
       style="font-style:normal;font-variant:normal;font-weight:normal;font-stretch:normal;letter-spacing:normal;word-spacing:normal;text-anchor:start;fill:none;fill-opacity:1;stroke:#000000;stroke-linecap:butt;stroke-linejoin:miter;stroke-miterlimit:10.43299961;stroke-dasharray:none;stroke-dashoffset:0;stroke-opacity:1">
<path
   d="M 227.96,712.1 L 227.96,712.17 L 227.96,712.24 L 227.96,712.31 L 227.96,712.38 L 227.95,712.46 L 227.94,712.54 L 227.93,712.62 L 227.92,712.7 L 227.91,712.78 L 227.89,712.87 L 227.87,712.95 L 227.85,713.04 L 227.83,713.12 L 227.81,713.21 L 227.78,713.29 L 227.75,713.37 L 227.71,713.45 L 227.68,713.53 L 227.64,713.6 L 227.59,713.67 L 227.55,713.74 L 227.5,713.8 L 227.44,713.86 L 227.39,713.92 L 227.32,713.97 L 227.29,713.99 L 227.26,714.01 L 227.22,714.03 L 227.19,714.05 L 227.15,714.07 L 227.11,714.09 L 227.07,714.1 L 227.03,714.11 L 226.99,714.12 L 226.95,714.13 L 226.91,714.14 L 226.86,714.14 L 226.82,714.14 L 226.77,714.15 L 226.76,713.93 C 227.25,713.93 227.31,713.29 227.31,712.72 C 227.31,712.23 227.23,711.72 226.99,710.74 L 224.91,710.74 C 225.08,711.38 225.28,712.17 225.67,712.88 C 225.94,713.37 226.31,713.93 226.76,713.93 L 226.77,714.15 C 225.38,714.15 223.85,711.34 223.85,709.05 C 223.85,708.12 224.14,707.01 225.05,707.01 L 225.05,707.23 C 224.72,707.23 224.51,707.52 224.51,708.45 C 224.51,708.87 224.57,709.44 224.83,710.42 L 226.9,710.42 C 226.79,709.96 226.58,709.11 226.2,708.4 C 225.85,707.72 225.48,707.23 225.05,707.23 L 225.05,707.01 C 226.45,707.01 227.96,709.87 227.96,712.1 z"
   id="path5782"
   style="fill:#000000;stroke-width:0" />
<path
   d="M 231.61,712.97 L 233.74,712.97 C 233.84,712.97 234,712.97 234,713.13 C 234,713.31 233.84,713.31 233.74,713.31 L 231.61,713.31 L 231.61,715.45 C 231.61,715.54 231.61,715.71 231.44,715.71 C 231.27,715.71 231.27,715.55 231.27,715.45 L 231.27,713.31 L 229.13,713.31 C 229.04,713.31 228.87,713.31 228.87,713.14 C 228.87,712.97 229.03,712.97 229.13,712.97 L 231.27,712.97 L 231.27,710.83 C 231.27,710.73 231.27,710.57 231.44,710.57 C 231.61,710.57 231.61,710.73 231.61,710.83 L 231.61,712.97 z"
   id="path5784"
   style="fill:#000000;stroke-width:0" />
<path
   d="M 233.32,706.22 L 233.33,706.22 L 233.34,706.22 L 233.35,706.22 L 233.36,706.22 L 233.37,706.22 L 233.38,706.23 L 233.39,706.23 L 233.4,706.23 L 233.41,706.23 L 233.42,706.23 L 233.43,706.23 L 233.44,706.23 L 233.45,706.24 L 233.46,706.24 L 233.48,706.24 L 233.49,706.24 L 233.49,706.25 L 233.5,706.25 L 233.51,706.26 L 233.52,706.26 L 233.53,706.27 L 233.54,706.28 L 233.55,706.29 L 233.55,706.29 L 233.55,706.29 L 233.56,706.3 L 233.56,706.3 L 233.56,706.31 L 233.56,706.31 L 233.57,706.32 L 233.57,706.32 L 233.57,706.33 L 233.57,706.34 L 233.57,706.34 L 233.58,706.35 L 233.58,706.35 L 233.58,706.36 L 233.58,706.37 L 233.58,706.38 L 233.58,706.38 L 233.58,706.39 C 233.58,706.57 233.42,706.57 233.32,706.57 L 229.12,706.57 C 229.03,706.57 228.87,706.57 228.87,706.39 C 228.87,706.22 229.03,706.22 229.12,706.22 L 233.32,706.22 z"
   id="path5786"
   style="fill:#000000;stroke-width:0" />
</g>    <g
       style="font-style:normal;font-variant:normal;font-weight:normal;font-stretch:normal;letter-spacing:normal;word-spacing:normal;text-anchor:start;fill:none;fill-opacity:1;stroke:#000000;stroke-linecap:butt;stroke-linejoin:miter;stroke-miterlimit:10.43299961;stroke-dasharray:none;stroke-dashoffset:0;stroke-opacity:1"
       ns0:preamble=""
       ns0:text="$\\theta^-_-$"
       word-spacing="normal"
       letter-spacing="normal"
       font-size-adjust="none"
       font-stretch="normal"
       font-weight="normal"
       font-variant="normal"
       font-style="normal"
       fill-rule="even-odd"
       stroke-miterlimit="10.433"
       xml:space="preserve"
       transform="matrix(1.4005602,0,0,-1.4005602,132.59104,1210.2544)"
       id="g5910">
<path
   id="path5912"
   d="M 227.96,712.1 L 227.96,712.17 L 227.96,712.24 L 227.96,712.31 L 227.96,712.38 L 227.95,712.46 L 227.94,712.54 L 227.93,712.62 L 227.92,712.7 L 227.91,712.78 L 227.89,712.87 L 227.87,712.95 L 227.85,713.04 L 227.83,713.12 L 227.81,713.21 L 227.78,713.29 L 227.75,713.37 L 227.71,713.45 L 227.68,713.53 L 227.64,713.6 L 227.59,713.67 L 227.55,713.74 L 227.5,713.8 L 227.44,713.86 L 227.39,713.92 L 227.32,713.97 L 227.29,713.99 L 227.26,714.01 L 227.22,714.03 L 227.19,714.05 L 227.15,714.07 L 227.11,714.09 L 227.07,714.1 L 227.03,714.11 L 226.99,714.12 L 226.95,714.13 L 226.91,714.14 L 226.86,714.14 L 226.82,714.14 L 226.77,714.15 L 226.76,713.93 C 227.25,713.93 227.31,713.29 227.31,712.72 C 227.31,712.23 227.23,711.72 226.99,710.74 L 224.91,710.74 C 225.08,711.38 225.28,712.17 225.67,712.88 C 225.94,713.37 226.31,713.93 226.76,713.93 L 226.77,714.15 C 225.38,714.15 223.85,711.34 223.85,709.05 C 223.85,708.12 224.14,707.01 225.05,707.01 L 225.05,707.23 C 224.72,707.23 224.51,707.52 224.51,708.45 C 224.51,708.87 224.57,709.44 224.83,710.42 L 226.9,710.42 C 226.79,709.96 226.58,709.11 226.2,708.4 C 225.85,707.72 225.48,707.23 225.05,707.23 L 225.05,707.01 C 226.45,707.01 227.96,709.87 227.96,712.1 z"
   style="fill:#000000;stroke-width:0" />
<path
   id="path5914"
   d="M 233.59,712.97 L 233.6,712.97 L 233.61,712.97 L 233.62,712.97 L 233.63,712.97 L 233.64,712.97 L 233.65,712.97 L 233.66,712.97 L 233.67,712.97 L 233.68,712.97 L 233.69,712.97 L 233.7,712.97 L 233.71,712.97 L 233.72,712.98 L 233.73,712.98 L 233.75,712.98 L 233.76,712.99 L 233.76,712.99 L 233.77,713 L 233.78,713 L 233.79,713.01 L 233.8,713.01 L 233.81,713.02 L 233.82,713.03 L 233.82,713.03 L 233.82,713.04 L 233.83,713.04 L 233.83,713.05 L 233.83,713.05 L 233.83,713.06 L 233.84,713.06 L 233.84,713.07 L 233.84,713.07 L 233.84,713.08 L 233.84,713.08 L 233.85,713.09 L 233.85,713.1 L 233.85,713.1 L 233.85,713.11 L 233.85,713.12 L 233.85,713.13 L 233.85,713.13 C 233.85,713.31 233.69,713.31 233.59,713.31 L 229.39,713.31 C 229.3,713.31 229.14,713.31 229.14,713.13 C 229.14,712.97 229.3,712.97 229.39,712.97 L 233.59,712.97 z"
   style="fill:#000000;stroke-width:0" />
<path
   id="path5916"
   d="M 233.32,706.22 L 233.33,706.22 L 233.34,706.22 L 233.35,706.22 L 233.36,706.22 L 233.37,706.22 L 233.38,706.23 L 233.39,706.23 L 233.4,706.23 L 233.41,706.23 L 233.42,706.23 L 233.43,706.23 L 233.44,706.23 L 233.45,706.24 L 233.46,706.24 L 233.48,706.24 L 233.49,706.24 L 233.49,706.25 L 233.5,706.25 L 233.51,706.26 L 233.52,706.26 L 233.53,706.27 L 233.54,706.28 L 233.55,706.29 L 233.55,706.29 L 233.55,706.29 L 233.56,706.3 L 233.56,706.3 L 233.56,706.31 L 233.56,706.31 L 233.57,706.32 L 233.57,706.32 L 233.57,706.33 L 233.57,706.34 L 233.57,706.34 L 233.58,706.35 L 233.58,706.35 L 233.58,706.36 L 233.58,706.37 L 233.58,706.38 L 233.58,706.38 L 233.58,706.39 C 233.58,706.57 233.42,706.57 233.32,706.57 L 229.12,706.57 C 229.03,706.57 228.87,706.57 228.87,706.39 C 228.87,706.22 229.03,706.22 229.12,706.22 L 233.32,706.22 z"
   style="fill:#000000;stroke-width:0" />
</g>    <text
       xml:space="preserve"
       style="font-size:40px;font-style:normal;font-weight:normal;fill:#000000;fill-opacity:1;stroke:none;stroke-width:1px;stroke-linecap:butt;stroke-linejoin:miter;stroke-opacity:1;font-family:Bitstream Vera Sans"
       x="136.86928"
       y="141.39865"
       id="text2651"><tspan
         sodipodi:role="line"
         id="tspan2653"
         x="136.86928"
         y="141.39865">SO A</tspan></text>
    <text
       xml:space="preserve"
       style="font-size:40px;font-style:normal;font-weight:normal;fill:#000000;fill-opacity:1;stroke:none;stroke-width:1px;stroke-linecap:butt;stroke-linejoin:miter;stroke-opacity:1;font-family:Bitstream Vera Sans"
       x="380.5816"
       y="141.39865"
       id="text2655"><tspan
         sodipodi:role="line"
         id="tspan2657"
         x="380.5816"
         y="141.39865">SO B</tspan></text>
    <g
       id="g2439"
       transform="matrix(0.8749652,0.4079014,-0.399412,0.8935624,133.64415,-99.63047)"
       style="fill:#ff685f;fill-opacity:1;stroke:#ff6664;stroke-opacity:1">
      <path
         sodipodi:type="star"
         style="fill:#ff685f;fill-opacity:1;stroke:#ff6664;stroke-width:1;stroke-miterlimit:4;stroke-dasharray:1, 1;stroke-dashoffset:0;stroke-opacity:1"
         id="path2441"
         sodipodi:sides="3"
         sodipodi:cx="60.609154"
         sodipodi:cy="377.58029"
         sodipodi:r1="14.178167"
         sodipodi:r2="7.0890832"
         sodipodi:arg1="0"
         sodipodi:arg2="1.0471976"
         inkscape:flatsided="true"
         inkscape:rounded="0"
         inkscape:randomized="0"
         d="M 74.787321,377.58029 L 53.52007,389.85894 L 53.52007,365.30164 L 74.787321,377.58029 z"
         transform="matrix(0.5389814,-0.5389814,0.1966111,0.1966111,278.37546,115.78642)" />
      <rect
         style="fill:#ff685f;fill-opacity:1;stroke:#ff6664;stroke-width:0.46036881;stroke-miterlimit:4;stroke-dasharray:none;stroke-dashoffset:0;stroke-opacity:1"
         id="rect2443"
         width="2.8087299"
         height="106.25633"
         x="-385.10513"
         y="49.506268"
         transform="matrix(-0.7071068,-0.7071068,0.7071068,-0.7071068,0,0)" />
    </g>
    <g
       id="g3219"
       transform="matrix(0.8890302,0.2023322,-0.2004358,0.8980467,81.235335,-37.191358)"
       style="fill:#6468ff;fill-opacity:1;stroke:#6464ff;stroke-opacity:1">
      <path
         sodipodi:type="star"
         style="fill:#6468ff;fill-opacity:1;stroke:#6464ff;stroke-width:1;stroke-miterlimit:4;stroke-dasharray:1, 1;stroke-dashoffset:0;stroke-opacity:1"
         id="path3221"
         sodipodi:sides="3"
         sodipodi:cx="60.609154"
         sodipodi:cy="377.58029"
         sodipodi:r1="14.178167"
         sodipodi:r2="7.0890832"
         sodipodi:arg1="0"
         sodipodi:arg2="1.0471976"
         inkscape:flatsided="true"
         inkscape:rounded="0"
         inkscape:randomized="0"
         d="M 74.787321,377.58029 L 53.52007,389.85894 L 53.52007,365.30164 L 74.787321,377.58029 z"
         transform="matrix(0.9075525,-0.4344146,0.1584669,0.3310594,323.82863,73.496685)" />
      <rect
         style="fill:#6468ff;fill-opacity:1;stroke:#6464ff;stroke-width:0.60799998;stroke-miterlimit:4;stroke-dasharray:none;stroke-dashoffset:0;stroke-opacity:1"
         id="rect3223"
         width="3.7075775"
         height="140.26042"
         x="-346.54501"
         y="173.94788"
         transform="matrix(-0.4317529,-0.9019919,0.9019919,-0.4317529,0,0)" />
    </g>
    <g
       id="g2448">
      <path
         sodipodi:type="arc"
         style="fill:none;fill-opacity:1;stroke:#000000;stroke-width:1;stroke-miterlimit:4;stroke-dasharray:none;stroke-dashoffset:0;stroke-opacity:1"
         id="path3225"
         sodipodi:cx="306.42856"
         sodipodi:cy="237.36218"
         sodipodi:rx="20.357143"
         sodipodi:ry="20.357143"
         d="M 305.76937,217.01571 A 20.357143,20.357143 0 0 1 319.7831,221.99763"
         sodipodi:start="4.6800022"
         sodipodi:end="5.4279125"
         sodipodi:open="true"
         transform="matrix(1.8408617,1.8408617,-2.0907442,2.0907442,269.5399,-815.0607)" />
      <path
         sodipodi:type="star"
         style="fill:#000000;fill-opacity:1;stroke:#000000;stroke-width:0.5;stroke-miterlimit:4;stroke-dasharray:none;stroke-dashoffset:0;stroke-opacity:1"
         id="path3231"
         sodipodi:sides="3"
         sodipodi:cx="259.28571"
         sodipodi:cy="252.71931"
         sodipodi:r1="0.64384842"
         sodipodi:r2="0.32192421"
         sodipodi:arg1="0.98279372"
         sodipodi:arg2="2.0299913"
         inkscape:flatsided="true"
         inkscape:rounded="0"
         inkscape:randomized="0"
         d="M 259.64285,253.25503 L 258.64319,252.76075 L 259.57108,252.14216 L 259.64285,253.25503 z"
         transform="matrix(2.3538045,-3.9309014,3.9309014,2.3538045,-1223.0114,627.67779)" />
    </g>
    <g
       id="g2452">
      <path
         transform="matrix(2.3518572,1.3578454,-1.3578454,2.3518572,-63.72393,-736.03892)"
         sodipodi:type="arc"
         style="fill:none;fill-opacity:1;stroke:#000000;stroke-width:1;stroke-miterlimit:4;stroke-dasharray:none;stroke-dashoffset:0;stroke-opacity:1"
         id="path3235"
         sodipodi:cx="306.07144"
         sodipodi:cy="236.64789"
         sodipodi:rx="24.464285"
         sodipodi:ry="24.464285"
         d="M 305.27926,212.19643 A 24.464285,24.464285 0 0 1 327.24141,224.38683"
         sodipodi:start="4.6800022"
         sodipodi:end="5.758221"
         sodipodi:open="true" />
      <path
         inkscape:transform-center-y="3.3235396"
         inkscape:transform-center-x="2.8148432"
         sodipodi:type="star"
         style="fill:#000000;fill-opacity:1;stroke:#000000;stroke-width:0.5;stroke-miterlimit:4;stroke-dasharray:none;stroke-dashoffset:0;stroke-opacity:1"
         id="path3237"
         sodipodi:sides="3"
         sodipodi:cx="259.28571"
         sodipodi:cy="252.71931"
         sodipodi:r1="0.64384842"
         sodipodi:r2="0.32192421"
         sodipodi:arg1="0.98279372"
         sodipodi:arg2="2.0299913"
         inkscape:flatsided="true"
         inkscape:rounded="0"
         inkscape:randomized="0"
         d="M 259.64285,253.25503 L 258.64319,252.76075 L 259.57108,252.14216 L 259.64285,253.25503 z"
         transform="matrix(2.474828,2.8604014,-2.8604014,2.474828,449.39876,-1188.7)" />
    </g>
    <g
       id="g2504"
       transform="matrix(1.5197568,0,0,-1.5197568,-170.5927,1335.7512)"
       xml:space="preserve"
       stroke="black"
       stroke-linecap="butt"
       stroke-linejoin="miter"
       stroke-miterlimit="10.433"
       stroke-dasharray="none"
       stroke-dashoffset="0"
       stroke-opacity="1"
       fill="none"
       fill-rule="even-odd"
       fill-opacity="1"
       font-style="normal"
       font-variant="normal"
       font-weight="normal"
       font-stretch="normal"
       font-size-adjust="none"
       letter-spacing="normal"
       word-spacing="normal"
       text-anchor="start"
       ns0:text="$\\phi_-$"
       ns0:preamble="/home/mlenz/.inkscape/textext-preamble.tex"
       style="font-style:normal;font-variant:normal;font-weight:normal;font-stretch:normal;letter-spacing:normal;word-spacing:normal;text-anchor:start;fill:none;fill-opacity:1;stroke:#000000;stroke-linecap:butt;stroke-linejoin:miter;stroke-miterlimit:10.43299961;stroke-dasharray:none;stroke-dashoffset:0;stroke-opacity:1">
<path
   d="M227.79,713.8 L227.79,713.8 L227.79,713.8 L227.79,713.8 L227.79,713.8 L227.79,713.8 L227.79,713.8 L227.79,713.81 L227.79,713.81 L227.79,713.81 L227.79,713.82 L227.79,713.82 L227.79,713.83 L227.79,713.83 L227.79,713.84 L227.79,713.84 L227.8,713.85 L227.8,713.85 L227.8,713.86 L227.8,713.87 L227.8,713.88 L227.81,713.89 L227.81,713.89 L227.81,713.9 L227.81,713.9 L227.81,713.91 L227.81,713.91 L227.81,713.92 L227.81,713.92 L227.81,713.93 L227.81,713.93 L227.81,713.93 L227.81,713.93 L227.82,713.93 L227.82,713.93 L227.82,713.93 L227.82,713.93 L227.82,713.94 L227.82,713.94 L227.82,713.94 C227.82,713.95,227.82,714.04,227.7,714.04 C227.6,714.04,227.59,714.01,227.55,713.84 L226.97,711.54 C225.38,711.49,223.92,710.16,223.92,708.81 C223.92,707.86,224.62,707.07,225.83,707 L225.88,707.22 C225.29,707.25,224.57,707.6,224.57,708.6 C224.57,709.79,225.43,711.19,226.91,711.32 L225.88,707.22 L225.83,707 C225.75,706.69,225.68,706.38,225.6,706.07 C225.49,705.6,225.38,705.22,225.38,705.19 C225.38,705.09,225.46,705.08,225.51,705.08 C225.55,705.08,225.57,705.09,225.6,705.12 C225.62,705.14,225.68,705.38,225.71,705.52 C225.84,706.01,225.96,706.51,226.09,707 L226.14,707.22 L227.17,711.32 C227.93,711.28,228.49,710.82,228.49,709.94 C228.49,708.77,227.64,707.34,226.14,707.22 L226.09,707 C227.7,707.05,229.14,708.4,229.14,709.73 C229.14,710.52,228.61,711.44,227.23,711.54 Z "
   stroke-width="0"
   fill="black"
   id="path2506" />
<path
   d="M234.57,707.21 L234.58,707.21 L234.59,707.21 L234.6,707.21 L234.61,707.21 L234.62,707.21 L234.63,707.21 L234.64,707.21 L234.65,707.21 L234.66,707.21 L234.67,707.21 L234.68,707.21 L234.7,707.21 L234.71,707.22 L234.72,707.22 L234.73,707.22 L234.74,707.23 L234.75,707.23 L234.76,707.24 L234.77,707.24 L234.77,707.25 L234.78,707.25 L234.79,707.26 L234.8,707.27 L234.8,707.27 L234.8,707.28 L234.81,707.28 L234.81,707.29 L234.81,707.29 L234.82,707.3 L234.82,707.3 L234.82,707.31 L234.82,707.31 L234.82,707.32 L234.83,707.32 L234.83,707.33 L234.83,707.34 L234.83,707.34 L234.83,707.35 L234.83,707.36 L234.83,707.37 L234.83,707.37 C234.83,707.55,234.67,707.55,234.57,707.55 H230.38 C230.28,707.55,230.12,707.55,230.12,707.37 C230.12,707.21,230.29,707.21,230.38,707.21 Z "
   stroke-width="0"
   fill="black"
   id="path2508" />
</g>    <g
       style="font-style:normal;font-variant:normal;font-weight:normal;font-stretch:normal;letter-spacing:normal;word-spacing:normal;text-anchor:start;fill:none;fill-opacity:1;stroke:#000000;stroke-linecap:butt;stroke-linejoin:miter;stroke-miterlimit:10.43299961;stroke-dasharray:none;stroke-dashoffset:0;stroke-opacity:1"
       ns0:preamble="/home/mlenz/.inkscape/textext-preamble.tex"
       ns0:text="$\\phi_+$"
       text-anchor="start"
       word-spacing="normal"
       letter-spacing="normal"
       font-size-adjust="none"
       font-stretch="normal"
       font-weight="normal"
       font-variant="normal"
       font-style="normal"
       fill-opacity="1"
       fill-rule="even-odd"
       fill="none"
       stroke-opacity="1"
       stroke-dashoffset="0"
       stroke-dasharray="none"
       stroke-miterlimit="10.433"
       stroke-linejoin="miter"
       stroke-linecap="butt"
       stroke="black"
       xml:space="preserve"
       transform="matrix(1.5197568,0,0,-1.5197568,-130.14647,1351.9304)"
       id="content">
<path
   id="path2640"
   fill="black"
   stroke-width="0"
   d="M227.79,713.8 L227.79,713.8 L227.79,713.8 L227.79,713.8 L227.79,713.8 L227.79,713.8 L227.79,713.8 L227.79,713.81 L227.79,713.81 L227.79,713.81 L227.79,713.82 L227.79,713.82 L227.79,713.83 L227.79,713.83 L227.79,713.84 L227.79,713.84 L227.8,713.85 L227.8,713.85 L227.8,713.86 L227.8,713.87 L227.8,713.88 L227.81,713.89 L227.81,713.89 L227.81,713.9 L227.81,713.9 L227.81,713.91 L227.81,713.91 L227.81,713.92 L227.81,713.92 L227.81,713.93 L227.81,713.93 L227.81,713.93 L227.81,713.93 L227.82,713.93 L227.82,713.93 L227.82,713.93 L227.82,713.93 L227.82,713.94 L227.82,713.94 L227.82,713.94 C227.82,713.95,227.82,714.04,227.7,714.04 C227.6,714.04,227.59,714.01,227.55,713.84 L226.97,711.54 C225.38,711.49,223.92,710.16,223.92,708.81 C223.92,707.86,224.62,707.07,225.83,707 L225.88,707.22 C225.29,707.25,224.57,707.6,224.57,708.6 C224.57,709.79,225.43,711.19,226.91,711.32 L225.88,707.22 L225.83,707 C225.75,706.69,225.68,706.38,225.6,706.07 C225.49,705.6,225.38,705.22,225.38,705.19 C225.38,705.09,225.46,705.08,225.51,705.08 C225.55,705.08,225.57,705.09,225.6,705.12 C225.62,705.14,225.68,705.38,225.71,705.52 C225.84,706.01,225.96,706.51,226.09,707 L226.14,707.22 L227.17,711.32 C227.93,711.28,228.49,710.82,228.49,709.94 C228.49,708.77,227.64,707.34,226.14,707.22 L226.09,707 C227.7,707.05,229.14,708.4,229.14,709.73 C229.14,710.52,228.61,711.44,227.23,711.54 Z " />
<path
   id="path2642"
   fill="black"
   stroke-width="0"
   d="M232.59,707.21 H234.73 C234.82,707.21,234.99,707.21,234.99,707.37 C234.99,707.55,234.83,707.55,234.73,707.55 H232.59 V709.69 C232.59,709.78,232.59,709.95,232.43,709.95 C232.25,709.95,232.25,709.79,232.25,709.69 V707.55 H230.11 C230.02,707.55,229.85,707.55,229.85,707.38 C229.85,707.21,230.01,707.21,230.11,707.21 H232.25 V705.07 C232.25,704.97,232.25,704.81,232.42,704.81 C232.59,704.81,232.59,704.97,232.59,705.07 Z " />
</g>  </g>
</svg>
